<?xml version="1.0" encoding="UTF-8"?>
<!DOCTYPE svg PUBLIC "-//W3C//DTD SVG 1.1//EN" "http://www.w3.org/Graphics/SVG/1.1/DTD/svg11.dtd">
<!-- Creator: CorelDRAW -->
<svg xmlns="http://www.w3.org/2000/svg" xml:space="preserve" width="125mm" height="75mm" style="shape-rendering:geometricPrecision; text-rendering:geometricPrecision; image-rendering:optimizeQuality; fill-rule:evenodd; clip-rule:evenodd"
viewBox="0 0 125 75"
 xmlns:xlink="http://www.w3.org/1999/xlink">
 <defs>
  <style type="text/css">
   <![CDATA[
    .str0 {stroke:black;stroke-width:1.5}
    .fil0 {fill:none}
    .fil1 {fill:black}
    .fil2 {fill:black;fill-rule:nonzero}
   ]]>
  </style>
 </defs>
 <g id="Capa_x0020_1">
  <metadata id="CorelCorpID_0Corel-Layer"/>
  <rect class="fil0" x="62.6019" y="-0.362851" width="62.5" height="75"/>
  <rect class="fil0" x="0.101849" y="-0.362851" width="62.5" height="75"/>
  <g id="_388812160">
   <path id="_388813936" class="fil1" d="M38.1885 31.5596l-0.1797 0 0 0.36 -0.18 0 0 0.3598 -0.18 0 0 0.3597 -0.1798 0 0 0.18 -0.18 0 0 0.3598 -0.1798 0 0 0.18 -0.1799 0 0 0.18 -0.18 0 0 0.3597 -0.1798 0 0 0.18 -0.18 0 0 0.1798 -0.18 0 0 0.18 -0.1798 0 0 0.18 -0.3599 0 0 0.1798 -0.1798 0 0 0.1799 -0.18 0 0 0.5398 0.18 0 0 0.5397 -0.18 0 0 0.3598 -0.18 0 0 0.18 -0.1798 0 0 0.18 -0.3599 0 0 0.1798 -0.7196 0 0 0.1799 -5.0377 0 0 -0.1799 -0.3598 0 0 -0.1798 -0.36 0 0 -0.18 -0.1797 0 0 -0.18 -0.18 0 0 -1.0795 -0.18 0 0 -0.1798 -0.3598 0 0 -0.18 -0.3597 0 0 -0.1799 -0.18 0 0 -0.1798 -0.18 0 0 -0.18 -0.1798 0 0 -0.18 -0.18 0 0 -0.3598 -0.18 0 0 -0.1799 -0.1797 0 0 -0.3598 -0.18 0 0 -0.5398 -0.18 0 0 -0.5397 -0.1798 0 0 -0.5398 -0.18 0 0 -2.5187 0.18 0 0 -0.5398 0.1798 0 0 -0.36 0.18 0 0 -0.1797 0.3597 0 0 -0.18 0.36 0 0 -0.18 0.8995 0 0 -0.1798 1.6193 0 0 -0.18 2.339 0 0 -0.18 3.7782 0 0 0.18 1.2593 0 0 0.18 0.7198 0 0 0.1798 0.5397 0 0 0.18 0.3598 0 0 0.7197 0.18 0 0 0.7195 0.1797 0 0 0.7198 0.18 0 0 0.8995 -0.18 0 0 0.5397zm15.6528 -2.159l0.18 0 0 -0.1797 0.18 0 0 -0.18 0.3598 0 0 -0.18 0.3597 0 0 0.18 0.36 0 0 0.18 0.1798 0 0 0.1797 0.18 0 0 0.7198 -0.18 0 0 0.3597 -0.3598 0 0 0.18 -0.7197 0 0 -0.18 -0.3598 0 0 -0.3597 -0.18 0 0 -0.7198zm-45.1591 0l0.18 0 0 -0.1797 0.18 0 0 -0.18 0.3597 0 0 -0.18 0.3598 0 0 0.18 0.36 0 0 0.18 0.1797 0 0 0.3597 0.18 0 0 0.5398 -0.18 0 0 0.3597 -0.3597 0 0 0.18 -0.7198 0 0 -0.18 -0.3597 0 0 -0.3597 -0.18 0 0 -0.7198zm43.7199 -4.8577l0.18 0 0 -0.1798 0.1797 0 0 -0.18 0.18 0 0 -0.18 0.7198 0 0 0.18 0.1797 0 0 0.18 0.18 0 0 0.1798 0.18 0 0 0.7197 -0.18 0 0 0.3598 -0.3597 0 0 0.18 -0.7198 0 0 -0.18 -0.3597 0 0 -0.3598 -0.18 0 0 -0.7197zm-42.2804 0l0.1797 0 0 -0.3598 0.36 0 0 -0.18 0.7195 0 0 0.18 0.18 0 0 0.18 0.18 0 0 0.1798 0.1798 0 0 0.7197 -0.1798 0 0 0.18 -0.18 0 0 0.1798 -0.18 0 0 0.18 -0.7195 0 0 -0.18 -0.36 0 0 -0.3598 -0.1797 0 0 -0.7197zm23.749 -2.5188l-0.18 0 0 -0.18 0.18 0 0 0.18zm-20.6905 -2.8785l0.18 0 0 -0.36 0.3597 0 0 -0.1798 0.7198 0 0 0.1798 0.3597 0 0 0.36 0.18 0 0 0.7195 -0.18 0 0 0.18 -0.18 0 0 0.1798 -0.3597 0 0 0.1799 -0.3598 0 0 -0.1799 -0.36 0 0 -0.1798 -0.1797 0 0 -0.18 -0.18 0 0 -0.7195zm37.7826 0.8995l-0.18 0 0 0.1798 -0.3598 0 0 0.1799 -0.3599 0 0 -0.1799 -0.3598 0 0 -0.1798 -0.18 0 0 -0.18 -0.1798 0 0 -0.7195 0.1798 0 0 -0.36 0.18 0 0 -0.1798 0.8995 0 0 0.1798 0.36 0 0 0.36 0.1798 0 0 0.5397 -0.1798 0 0 0.3598zm-8.636 -3.5983l0.1797 0 0 0.1798 -0.1797 0 0 -0.1798zm-20.8704 0l0 0.1798 -0.1799 0 0 -0.1798 0.1799 0zm20.8704 0l-0.18 0 0 -0.18 -0.3598 0 0 -0.18 -0.36 0 0 -0.1797 -0.7195 0 0 -0.18 -0.5397 0 0 0.18 -0.36 0 0 0.1797 -0.1798 0 0 0.18 -0.18 0 0 0.3598 -0.18 0 0 1.0795 0.18 0 0 0.5397 0.18 0 0 0.36 0.1798 0 0 0.3598 0.18 0 0 0.18 0.18 0 0 0.1797 0.3597 0 0 0.18 0.3598 0 0 0.18 1.0795 0 0 -0.18 0.36 0 0 -0.18 0.3597 0 0 0.5398 0.18 0 0 0.5397 -0.18 0 0 0.5398 -0.18 0 0 0.3598 -0.1797 0 0 0.3599 -0.36 0 0 0.1798 -0.1798 0 0 0.18 -0.36 0 0 0.18 -0.5397 0 0 0.1798 -1.4393 0 0 -0.1798 -0.5397 0 0 -0.18 -0.3598 0 0 -0.18 -0.36 0 0 -0.3598 -0.1797 0 0 -0.3597 -0.18 0 0 -0.5398 -0.18 0 0 -0.5397 -0.1798 0 0 -0.3598 -0.18 0 0 -0.5397 -0.1798 0 0 -0.5398 -0.1799 0 0 -0.36 -0.18 0 0 -0.5397 -0.1798 0 0 -0.8995 0.1798 0 0 -0.5398 0.18 0 0 -0.3597 0.1799 0 0 -0.36 0.1798 0 0 -0.1798 0.18 0 0 -0.36 0.1798 0 0 -0.1797 0.36 0 0 -0.18 0.1797 0 0 -0.18 0.7198 0 0 -0.1798 0.7197 0 0 0.1798 0.8995 0 0 0.18 0.3598 0 0 0.18 0.36 0 0 0.1797 0.1797 0 0 0.18 0.18 0 0 0.18 0.18 0 0 0.1798 0.1798 0 0 0.18 0.18 0 0 0.3597 0.18 0 0 0.36zm-8.4561 5.5773l0.1798 0 0 0.18 0.18 0 0 0.1798 0.18 0 0 0.5397 0.1798 0 0 0.7198 -0.1798 0 0 0.5397 -0.18 0 0 0.18 -0.18 0 0 0.1798 -0.3598 0 0 0.18 -0.5397 0 0 0.1799 -1.0795 0 0 0.1798 -1.0795 0 0 -0.1798 -1.2595 0 0 -0.1799 -0.3598 0 0 -0.18 -0.18 0 0 -0.1798 -0.1797 0 0 -0.36 -0.18 0 0 -0.5397 -0.18 0 0 -2.6988 0.18 0 0 -0.8995 0.18 0 0 -0.7195 0.1797 0 0 -0.36 0.18 0 0 -0.5398 0.18 0 0 -0.3597 0.1798 0 0 -0.3598 0.18 0 0 -0.36 0.18 0 0 -0.3597 0.1797 0 0 -0.3598 0.18 0 0 -0.18 0.18 0 0 -0.3597 0.1798 0 0 -0.18 0.18 0 0 -0.18 0.18 0 0 -0.1798 0.1798 0 0 0.3598 -0.1798 0 0 0.5397 -0.18 0 0 0.7198 -0.18 0 0 0.8995 -0.1798 0 0 0.8995 -0.18 0 0 1.0795 -0.18 0 0 2.6988 0.18 0 0 0.3597 0.18 0 0 0.18 0.3598 0 0 0.18 0.8995 0 0 0.1798 0.36 0 0 -0.1798 1.2593 0 0 -0.18 0.3599 0 0 -0.18 0.1798 0 0 -0.3597 -0.1798 0 0 -0.5398zm-12.4143 -5.5773l0 -0.36 0.1798 0 0 -0.3597 0.18 0 0 -0.18 0.18 0 0 -0.1798 0.1798 0 0 -0.18 0.18 0 0 -0.18 0.1799 0 0 -0.1797 0.3598 0 0 -0.18 0.3598 0 0 -0.18 0.8997 0 0 -0.1798 0.7195 0 0 0.1798 0.7198 0 0 0.18 0.18 0 0 0.18 0.3597 0 0 0.1797 0.18 0 0 0.36 0.1798 0 0 0.1798 0.18 0 0 0.36 0.18 0 0 0.3597 0.1797 0 0 0.5398 0.18 0 0 0.8995 -0.18 0 0 0.36 -0.1797 0 0 0.5397 -0.18 0 0 0.5398 -0.18 0 0 0.3597 -0.1798 0 0 0.5398 -0.18 0 0 0.5397 -0.18 0 0 0.3598 -0.1797 0 0 0.5397 -0.18 0 0 0.18 -0.18 0 0 0.1798 -0.1798 0 0 0.18 -0.36 0 0 0.18 -0.5397 0 0 0.1798 -1.4393 0 0 -0.1798 -0.5397 0 0 -0.18 -0.3598 0 0 -0.18 -0.36 0 0 -0.1798 -0.1798 0 0 -0.3599 -0.1799 0 0 -0.1798 -0.18 0 0 -0.5398 -0.1798 0 0 -0.8995 0.1798 0 0 -0.36 0.18 0 0 0.18 0.5397 0 0 0.18 1.0795 0 0 -0.18 0.3598 0 0 -0.18 0.18 0 0 -0.1797 0.18 0 0 -0.18 0.1797 0 0 -0.18 0.18 0 0 -0.1798 0.18 0 0 -0.36 0.1798 0 0 -0.7195 0.18 0 0 -0.7197 -0.18 0 0 -0.5398 -0.1798 0 0 -0.18 -0.18 0 0 -0.1797 -0.3597 0 0 -0.18 -0.5398 0 0 0.18 -0.7197 0 0 0.1797 -0.3598 0 0 0.18 -0.36 0 0 0.18 -0.1798 0zm25.9079 -3.5985l0.18 0 0 -0.1798 0.18 0 0 -0.1799 0.8995 0 0 0.1799 0.18 0 0 0.1798 0.1798 0 0 1.0795 -0.1798 0 0 0.18 -0.5398 0 0 0.18 -0.1799 0 0 -0.18 -0.5398 0 0 -0.3598 -0.18 0 0 -0.8997zm-32.2051 0.36l0.18 0 0 -0.36 0.18 0 0 -0.1798 0.1798 0 0 -0.1799 0.8997 0 0 0.1799 0.1798 0 0 0.1798 0.1799 0 0 0.8997 -0.1799 0 0 0.1798 -0.1798 0 0 0.18 -0.36 0 0 0.18 -0.3598 0 0 -0.18 -0.3597 0 0 -0.18 -0.18 0 0 -0.5397 -0.18 0 0 -0.1798zm5.7575 -8.996l0.1798 0 0 -0.1798 0.18 0 0 -0.18 0.3597 0 0 -0.18 0.5398 0 0 0.18 0.18 0 0 0.18 0.1799 0 0 0.1798 0.1798 0 0 0.7197 -0.1798 0 0 0.3598 -0.3599 0 0 0.18 -0.7196 0 0 -0.18 -0.3599 0 0 -0.3598 -0.1798 0 0 -0.7197zm22.3096 0.8997l-0.18 0 0 0.1798 -0.1798 0 0 0.18 -0.7197 0 0 -0.18 -0.3598 0 0 -0.3598 -0.18 0 0 -0.7197 0.18 0 0 -0.3598 0.3598 0 0 -0.18 0.5397 0 0 0.18 0.3598 0 0 0.18 0.18 0 0 0.3598 0.18 0 0 0.3597 -0.18 0 0 0.36zm-21.7699 -3.2385l-0.1799 0 0 0.1798 -0.18 0 0 0.18 -0.1798 0 0 0.3597 -0.18 0 0 0.18 -0.18 0 0 0.18 -0.1798 0 0 0.1798 -0.1799 0 0 0.18 -0.3598 0 0 0.18 -0.18 0 0 0.1797 -0.3598 0 0 0.18 -0.18 0 0 0.18 -0.3597 0 0 0.1798 -0.18 0 0 0.18 -0.3598 0 0 0.18 -0.18 0 0 0.1797 -0.1799 0 0 0.5398 -0.1798 0 0 0.36 -0.18 0 0 0.5397 -0.18 0 0 0.3598 -0.1798 0 0 0.5397 -0.18 0 0 0.5398 -0.1799 0 0 0.3598 -0.1798 0 0 0.5397 -0.18 0 0 0.36 -0.18 0 0 0.3597 -0.1798 0 0 0.3598 -0.18 0 0 0.36 -0.1799 0 0 0.1798 -0.1798 0 0 0.18 -1.4395 0 0 0.1799 -0.3598 0 0 0.1798 -0.18 0 0 0.18 -0.1797 0 0 0.18 -0.18 0 0 0.3598 -0.18 0 0 0.8995 0.18 0 0 0.3599 0.18 0 0 0.3598 0.1797 0 0 0.18 0.18 0 0 0.1798 0.18 0 0 0.18 0.1798 0 0 0.1799 0.18 0 0 0.1798 0.18 0 0 0.18 -0.18 0 0 0.3598 -0.18 0 0 0.5397 -0.1798 0 0 0.36 -0.18 0 0 0.3598 -0.18 0 0 0.3597 -0.1797 0 0 0.18 -1.2595 0 0 0.18 -0.5398 0 0 0.1798 -0.18 0 0 0.18 -0.1797 0 0 0.18 -0.18 0 0 0.1797 -0.18 0 0 0.36 -0.1798 0 0 0.5398 -0.18 0 0 0.7195 0.18 0 0 0.36 0.1798 0 0 0.1797 0.18 0 0 0.18 0.18 0 0 0.18 0.1797 0 0 0.1798 0.18 0 0 0.18 0.18 0 0 0.3597 -0.18 0 0 0.5398 -0.18 0 0 0.3598 -0.1797 0 0 0.3599 -0.18 0 0 0.3598 -0.18 0 0 0.18 -0.1798 0 0 0.1798 -0.36 0 0 0.18 -0.3597 0 0 0.1799 -0.3598 0 0 0.1798 -0.18 0 0 0.18 -0.18 0 0 0.18 -0.1797 0 0 0.1798 -0.18 0 0 0.3599 -0.18 0 0 0.5398 -0.1798 0 0 0.7195 0.1798 0 0 0.18 0.18 0 0 0.18 0.18 0 0 0.1798 0.3597 0 0 0.18 0.18 0 0 0.3597 -0.18 0 0 0.7198 -0.18 0 0 0.5397 -0.3597 0 0 -0.18 -0.7198 0 0 0.18 -0.1797 0 0 0.18 -0.18 0 0 0.1798 -0.18 0 0 0.18 -0.1798 0 0 0.18 -0.18 0 0 0.3597 -0.18 0 0 1.2595 0.18 0 0 0.3598 0.18 0 0 0.18 0.1798 0 0 0.1797 0.18 0 0 0.18 0.18 0 0 0.18 0.1797 0 0 0.1798 0.18 0 0 0.5397 -0.18 0 0 1.2595 -0.1797 0 0 0.8996 -0.18 0 0 0.7197 -0.18 0 0 0.7197 -0.1798 0 0 0.5398 -0.18 0 0 0.5397 -0.18 0 0 0.5398 -0.1798 0 0 0.3597 -0.1799 0 0 0.18 -0.3598 0 0 0.1798 -0.18 0 0 0.18 -0.18 0 0 0.18 -0.3597 0 0 0.1798 -0.18 0 0 0.18 -0.1798 0 0 0.1799 -0.18 0 0 0.1798 -0.18 0 0 0.18 -0.1798 0 0 0.18 -0.1799 0 0 0.3598 -0.18 0 0 0.1799 -0.1798 0 0 0.3598 -0.18 0 0 0.3598 -0.18 0 0 0.3599 -0.1798 0 0 0.8996 -0.1799 0 0 1.6192 0.1799 0 0 1.0795 0.1798 0 0 0.5398 0.18 0 0 0.3597 0.18 0 0 0.36 0.1798 0 0 0.3598 0.18 0 0 0.18 0.1799 0 0 0.3597 0.3598 0 0 -1.4392 0.18 0 0 -0.8998 0.1798 0 0 -0.5397 0.18 0 0 -0.5398 0.1799 0 0 -0.3597 0.1798 0 0 -0.3598 0.18 0 0 -0.36 0.18 0 0 -0.3597 0.1798 0 0 -0.3598 0.18 0 0 -0.18 0.1799 0 0 -0.3598 0.1798 0 0 -0.1799 0.18 0 0 -0.18 0.18 0 0 -0.1798 0.1798 0 0 -0.36 0.18 0 0 -0.1798 0.18 0 0 -0.1799 0.1797 0 0 -0.18 0.18 0 0 -0.1798 0.18 0 0 -0.18 0.1798 0 0 -0.18 0.18 0 0 -0.1798 0.18 0 0 -0.1799 0.1797 0 0 -0.18 0.18 0 0 -0.1798 0.3598 0 0 -0.18 0.18 0 0 -0.18 0.3597 0 0 -0.1798 0.18 0 0 -0.18 0.3598 0 0 -0.1799 0.36 0 0 -0.1798 0.5397 0 0 -0.18 0.7195 0 0 -0.18 2.519 0 0 -0.1798 -0.18 0 0 -1.6192 0.18 0 0 -0.8997 0.1798 0 0 -0.1798 -0.1798 0 0 -0.18 0.1798 0 0 -0.8995 0.18 0 0 -0.5398 0.18 0 0 -0.5397 0.1798 0 0 -0.7198 0.1799 0 0 -0.5397 0.18 0 0 -0.7198 0.1798 0 0 -0.5397 0.18 0 0 -0.5398 0.18 0 0 -0.3597 0.1798 0 0 -0.3598 0.1799 0 0 -0.36 0.18 0 0 -0.1797 0.1798 0 0 -0.36 0.18 0 0 -0.3598 0.18 0 0 -0.18 1.0795 0 0 0.18 0.1798 0 0 0.18 0.1799 0 0 0.1798 0.18 0 0 0.36 0.1798 0 0 0.3597 0.18 0 0 1.7993 0.18 0 0 1.6192 0.1798 0 0 1.0795 0.18 0 0 0.5398 0.1799 0 0 0.3597 0.1798 0 0 0.3598 0.18 0 0 0.18 0.18 0 0 0.3598 0.1798 0 0 0.1799 0.18 0 0 0.18 0.1799 0 0 0.1798 0.1798 0 0 0.18 0.18 0 0 0.18 0.18 0 0 0.1798 0.1798 0 0 0.1799 0.18 0 0 0.18 0.1799 0 0 0.1798 0.1798 0 0 0.18 0.36 0 0 0.18 0.1798 0 0 0.1798 0.18 0 0 0.1799 0.3597 0 0 0.18 0.18 0 0 0.1798 0.3598 0 0 0.18 0.36 0 0 0.18 0.3597 0 0 0.1798 0.3598 0 0 0.1799 0.36 0 0 0.18 0.3597 0 0 0.1798 0.3598 0 0 0.18 0.36 0 0 0.18 0.3597 0 0 0.1798 0.18 0 0 0.18 0.3598 0 0 0.1799 0.18 0 0 0.1798 0.1797 0 0 0.18 0.18 0 0 0.18 0.18 0 0 0.3598 0.1798 0 0 0.1799 0.18 0 0 0.3598 0.18 0 0 0.5398 0.1797 0 0 1.6192 -0.1797 0 0 0.5398 -0.18 0 0 0.5397 -0.18 0 0 0.3598 -0.1798 0 0 0.36 -0.18 0 0 0.1797 -0.18 0 0 0.18 -0.1797 0 0 0.18 -0.18 0 0 0.1798 -0.18 0 0 0.18 -0.1798 0 0 0.18 -0.36 0 0 0.1797 -0.5397 0 0 0.18 -1.6193 0 0 0.8995 0.18 0 0 1.2595 -0.18 0 0 1.979 -0.1797 0 0 1.2595 -0.18 0 0 1.2595 -0.18 0 0 3.5983 0.18 0 0 0.5398 0.18 0 0 0.5397 0.1797 0 0 0.3598 0.18 0 0 0.3597 0.18 0 0 0.18 0.1798 0 0 0.18 0.18 0 0 0.1798 0.18 0 0 0.18 0.1797 0 0 0.18 0.18 0 0 0.1797 0.3598 0 0 0.18 0.36 0 0 0.18 0.3597 0 0 0.1798 0.5398 0 0 0.18 0.5397 0 0 0.18 0.5398 0 0 0.1797 0.7197 0 0 0.18 5.2175 0 0 -0.18 0.8996 0 0 -0.1797 0.7197 0 0 -0.18 0.5398 0 0 -0.18 0.3597 0 0 -0.1798 0.3598 0 0 -0.18 0.18 0 0 -0.18 0.3597 0 0 -0.1797 0.18 0 0 -0.18 0.18 0 0 -0.18 0.1798 0 0 -0.1798 0.18 0 0 -0.18 0.18 0 0 -0.3597 0.1797 0 0 -0.18 0.18 0 0 -0.5398 0.18 0 0 -0.3597 0.1798 0 0 -0.7198 0.18 0 0 -3.4183 -0.18 0 0 -1.4394 -0.1798 0 0 -1.0796 -0.18 0 0 -1.4392 -0.18 0 0 -2.6988 -1.4392 0 0 -0.18 -0.5398 0 0 -0.1797 -0.3597 0 0 -0.18 -0.18 0 0 -0.18 -0.3598 0 0 -0.1798 -0.18 0 0 -0.18 -0.1798 0 0 -0.3597 -0.1799 0 0 -0.36 -0.18 0 0 -0.3598 -0.1798 0 0 -0.3597 -0.18 0 0 -0.5398 -0.18 0 0 -1.9792 0.18 0 0 -0.3598 0.18 0 0 -0.3598 0.1798 0 0 -0.3599 0.18 0 0 -0.1798 0.1799 0 0 -0.18 0.1798 0 0 -0.18 0.18 0 0 -0.1798 0.18 0 0 -0.1799 0.1798 0 0 -0.18 0.3599 0 0 -0.1798 0.1798 0 0 -0.18 0.3598 0 0 -0.18 0.36 0 0 -0.1798 0.5397 0 0 -0.18 0.3598 0 0 -0.1799 0.3597 0 0 -0.1798 0.36 0 0 -0.18 0.3598 0 0 -0.18 0.18 0 0 -0.1798 0.3597 0 0 -0.18 0.18 0 0 -0.1799 0.3598 0 0 -0.1798 0.18 0 0 -0.18 0.3597 0 0 -0.18 0.18 0 0 -0.1798 0.1798 0 0 -0.18 0.18 0 0 -0.1799 0.18 0 0 -0.1798 0.1797 0 0 -0.18 0.18 0 0 -0.18 0.18 0 0 -0.1798 0.1798 0 0 -0.18 0.18 0 0 -0.3597 0.18 0 0 -0.18 0.1798 0 0 -0.3598 0.1799 0 0 -0.36 0.18 0 0 -0.3597 0.1798 0 0 -0.5398 0.18 0 0 -1.0795 0.18 0 0 -2.339 0.1798 0 0 -0.8995 0.1799 0 0 -0.3597 0.18 0 0 -0.36 0.1798 0 0 -0.1798 0.18 0 0 -0.18 0.18 0 0 -0.18 0.8995 0 0 0.18 0.18 0 0 0.18 0.1798 0 0 0.1798 0.1799 0 0 0.36 0.18 0 0 0.3597 0.1798 0 0 0.3598 0.18 0 0 0.36 0.18 0 0 0.3597 0.1798 0 0 0.3598 0.18 0 0 0.5397 0.1799 0 0 0.7198 0.1798 0 0 0.7197 0.18 0 0 0.5398 0.18 0 0 0.5397 0.1798 0 0 0.7195 0.18 0 0 1.4395 0.1799 0 0 2.5188 0.1798 0 0 -0.18 2.159 0 0 0.18 0.8998 0 0 0.18 0.3597 0 0 0.1798 0.3598 0 0 0.1799 0.36 0 0 0.18 0.3597 0 0 0.1798 0.18 0 0 0.18 0.3598 0 0 0.18 0.18 0 0 0.1798 0.1797 0 0 0.18 0.36 0 0 0.1799 0.1798 0 0 0.1798 0.18 0 0 0.18 0.18 0 0 0.18 0.1797 0 0 0.1798 0.18 0 0 0.18 0.18 0 0 0.3597 0.1798 0 0 0.18 0.18 0 0 0.18 0.18 0 0 0.1798 0.1797 0 0 0.3599 0.18 0 0 0.1798 0.18 0 0 0.36 0.1798 0 0 0.1798 0.18 0 0 0.3599 0.18 0 0 0.3598 0.1797 0 0 0.3598 0.18 0 0 0.36 0.18 0 0 0.5397 0.1798 0 0 0.3598 0.18 0 0 0.7197 0.18 0 0 1.2593 0.1798 0 0 0.7197 0.1799 0 0 -0.18 0.18 0 0 -0.1797 0.1798 0 0 -0.18 0.18 0 0 -0.3598 0.18 0 0 -0.36 0.1798 0 0 -0.5397 0.1799 0 0 -0.5398 0.18 0 0 -1.2592 0.1798 0 0 -1.0796 -0.1798 0 0 -0.8997 -0.18 0 0 -0.5397 -0.1799 0 0 -0.3598 -0.1798 0 0 -0.3598 -0.18 0 0 -0.1799 -0.18 0 0 -0.18 -0.1798 0 0 -0.3598 -0.18 0 0 -0.18 -0.1799 0 0 -0.1798 -0.1798 0 0 -0.1799 -0.18 0 0 -0.18 -0.3598 0 0 -0.1798 -0.18 0 0 -0.18 -0.18 0 0 -0.18 -0.1797 0 0 -0.1798 -0.36 0 0 -0.18 -0.1798 0 0 -0.3597 -0.18 0 0 -0.36 -0.18 0 0 -0.7195 -0.1797 0 0 -0.5398 -0.18 0 0 -0.5397 -0.18 0 0 -0.7198 -0.1798 0 0 -0.8995 -0.18 0 0 -1.0795 -0.18 0 0 -0.8997 0.18 0 0 -0.1798 0.18 0 0 -0.18 0.1798 0 0 -0.18 0.18 0 0 -0.1797 0.18 0 0 -0.36 0.1797 0 0 -0.1798 0.18 0 0 -1.0795 -0.18 0 0 -0.5397 -0.1797 0 0 -0.18 -0.18 0 0 -0.18 -0.18 0 0 -0.1798 -0.1798 0 0 -0.18 -0.18 0 0 -0.18 -0.7197 0 0 0.18 -0.3598 0 0 -0.5397 -0.18 0 0 -0.5398 -0.1797 0 0 -0.5397 0.1797 0 0 -0.18 0.36 0 0 -0.1798 0.1798 0 0 -0.18 0.18 0 0 -0.18 0.18 0 0 -0.5397 -0.18 0 0 -0.5398 -0.18 0 0 -0.3597 -0.1798 0 0 -0.3598 -0.18 0 0 -0.18 -0.18 0 0 -0.18 -0.1797 0 0 -0.1798 -0.36 0 0 -0.1799 -0.3598 0 0 -0.18 -0.3597 0 0 -0.1798 -0.18 0 0 -0.18 -0.18 0 0 -0.18 -0.1798 0 0 -0.5397 -0.18 0 0 -0.3598 -0.18 0 0 -0.5398 -0.1797 0 0 -0.3597 0.1797 0 0 -0.18 0.18 0 0 -0.1798 0.18 0 0 -0.18 0.1798 0 0 -0.18 0.18 0 0 -0.1797 0.18 0 0 -0.36 0.1797 0 0 -0.5398 -0.1797 0 0 -0.7195 -0.18 0 0 -0.36 -0.18 0 0 -0.1797 -0.1798 0 0 -0.18 -0.18 0 0 -0.18 -0.18 0 0 -0.1798 -0.5397 0 0 -0.18 -1.4393 0 0 -0.3597 -0.18 0 0 -0.5398 -0.1798 0 0 -0.36 -0.1799 0 0 -0.3597 -0.18 0 0 -0.3598 -0.1798 0 0 -0.36 0.1798 0 0 -0.1798 0.18 0 0 -0.1799 0.1799 0 0 -0.18 0.1798 0 0 -0.1798 0.18 0 0 -0.36 0.18 0 0 -0.1798 0.1798 0 0 -0.3599 0.18 0 0 -0.7196 -0.18 0 0 -0.3599 -0.1798 0 0 -0.3598 -0.18 0 0 -0.18 -0.18 0 0 -0.1798 -0.5397 0 0 -0.1799 -1.2593 0 0 -0.18 -0.18 0 0 -0.1798 -0.18 0 0 -0.36 -0.1798 0 0 -0.1798 -0.1799 0 0 -0.3599 -0.18 0 0 -0.5398 -0.1798 0 0 -0.3598 -0.18 0 0 -0.5397 -0.18 0 0 -0.5398 -0.1798 0 0 -0.3597 -0.18 0 0 -0.5398 -0.1799 0 0 -0.5397 -0.1798 0 0 -0.36 -0.18 0 0 -0.3598 -0.18 0 0 -0.3597 -0.1798 0 0 -0.18 -0.3599 0 0 -0.18 -0.1798 0 0 -0.1798 -0.36 0 0 -0.18 -0.1798 0 0 -0.18 -0.3599 0 0 -0.1797 -0.1798 0 0 -0.18 -0.36 0 0 -0.18 -0.1798 0 0 -0.1798 -0.18 0 0 -0.18 -0.1799 0 0 -0.18 -0.1798 0 0 -0.1797 -0.18 0 0 -0.36 -0.18 0 0 -0.1798 -0.1798 0 0 -0.18 -0.7197 0 0 0.18 -0.18 0 0 0.1798 -0.3598 0 0 0.18 -0.18 0 0 0.18 -0.1797 0 0 0.1797 -0.18 0 0 0.18 -0.3598 0 0 0.18 -0.18 0 0 0.1798 -0.3597 0 0 0.18 -0.5398 0 0 0.18 -0.7197 0 0 0.1797 -0.5398 0 0 0.18 -0.5397 0 0 0.18 -0.5398 0 0 0.1798 -0.5397 0 0 0.18 -0.3598 0 0 0.18 -0.3598 0 0 0.1797 -0.3599 0 0 0.18 -0.1798 0 0 0.18 -0.36 0 0 0.1798 -0.1798 0 0 0.18 -0.18 0 0 0.18 -0.1799 0 0 0.1797 -0.1798 0 0 0.18 -0.18 0 0 0.18 -0.18 0 0 0.3598 -0.1798 0 0 0.18 -0.18 0 0 0.3597 -0.1799 0 0 0.5398 -0.1798 0 0 0.5397 -0.18 0 0 0.3598 -0.18 0 0 0.36 -0.5397 0 0 0.1798 -0.8996 0 0 -0.3598 -0.1799 0 0 -0.5398 -0.1798 0 0 -0.3597 -0.18 0 0 -0.36 -0.18 0 0 -0.3598 -0.1798 0 0 -0.3597 -0.18 0 0 -0.18 -0.18 0 0 -0.3598 -0.1797 0 0 -0.18 -0.18 0 0 -0.18 -0.18 0 0 -0.1797 -0.1798 0 0 -0.18 -0.18 0 0 -0.18 -0.18 0 0 -0.1798 -0.3597 0 0 -0.18 -0.18 0 0 -0.18 -0.3598 0 0 -0.1797 -0.3597 0 0 -0.18 -0.5398 0 0 -0.18 -0.36 0 0 -0.1798 -0.5397 0 0 -0.18 -0.5398 0 0 -0.18 -0.7195 0 0 -0.1797 -0.5397 0 0 -0.18 -0.5398 0 0 -0.18 -0.36 0 0 -0.1798 -0.1797 0 0 -0.18 -0.36 0 0 -0.18 -0.1798 0 0 -0.1797 -0.18 0 0 -0.18 -0.3598 0 0 -0.18 -0.1799 0 0 -0.1798 -0.18 0 0 -0.18 -0.7196 0 0 0.18z"/>
   <path id="_388813120" class="fil1" d="M14.7994 71.5013l-0.18 0 0 0.18 -0.5397 0 0 -0.18 -0.1798 0 0 -0.7198 0.1798 0 0 -0.1797 0.5397 0 0 0.1797 0.18 0 0 0.18 0.18 0 0 0.3598 -0.18 0 0 0.18zm3.7783 -1.2595l0.8995 0 0 0.8997 -0.8995 0 0 -0.8997zm5.0378 -1.4393l0.1797 0 0 -0.18 0.7198 0 0 0.8998 -0.7198 0 0 -0.18 -0.1797 0 0 -0.5398zm-13.6738 0l0.18 0 0 -0.18 0.7195 0 0 0.18 0.18 0 0 0.5398 -0.18 0 0 0.18 -0.7195 0 0 -0.18 -0.18 0 0 -0.5398zm12.774 -21.2301l-0.3597 0 0 0.1798 -0.3598 0 0 0.18 -0.18 0 0 0.18 -0.18 0 0 0.1797 -0.1798 0 0 0.18 -0.1799 0 0 0.18 -0.18 0 0 0.1798 -0.1798 0 0 0.18 -0.18 0 0 0.18 -0.18 0 0 0.1797 -0.1798 0 0 0.18 -0.1799 0 0 0.18 -0.18 0 0 0.1798 -0.1798 0 0 0.18 -0.18 0 0 0.3598 -0.18 0 0 0.1799 -0.1798 0 0 0.18 -0.18 0 0 0.1798 -0.1799 0 0 0.36 -0.1798 0 0 0.1798 -0.18 0 0 0.1799 -0.18 0 0 0.18 -0.1798 0 0 0.3598 -0.18 0 0 0.18 -0.1799 0 0 0.1798 -0.1798 0 0 0.1799 -0.18 0 0 0.18 -0.18 0 0 0.1798 -0.1798 0 0 0.18 -0.18 0 0 0.18 -0.1799 0 0 0.1798 -0.3598 0 0 0.18 -0.18 0 0 0.1799 -0.3598 0 0 0.1798 -0.5397 0 0 0.18 -0.7198 0 0 0.18 -2.159 0 0 0.8995 0.18 0 0 1.0795 0.18 0 0 0.8995 0.1798 0 0 1.2595 -0.1798 0 0 0.8995 -0.18 0 0 0.8995 -0.18 0 0 0.7198 -0.1797 0 0 0.5397 -0.18 0 0 0.5398 -0.18 0 0 0.3598 -0.1798 0 0 0.3599 -0.18 0 0 0.3598 -0.18 0 0 0.3598 -0.1797 0 0 0.3599 -0.18 0 0 0.1798 -0.18 0 0 0.36 -0.1798 0 0 0.3597 -0.18 0 0 0.18 -0.18 0 0 0.3598 -0.1797 0 0 0.3598 -0.18 0 0 0.3599 -0.18 0 0 0.3598 -0.1798 0 0 0.3598 -0.18 0 0 0.3599 -0.18 0 0 0.3598 -0.1797 0 0 0.3598 -0.18 0 0 0.5397 -0.18 0 0 1.4395 0.18 0 0 0.3598 0.18 0 0 0.3597 0.1797 0 0 0.18 0.18 0 0 0.18 0.18 0 0 0.1798 0.1798 0 0 0.18 0.18 0 0 0.18 0.3597 0 0 0.1797 0.36 0 0 -0.1797 0.3598 0 0 -0.18 0.18 0 0 -0.18 0.1797 0 0 -0.1798 0.18 0 0 -0.36 0.18 0 0 -0.3597 0.1798 0 0 -0.3598 0.18 0 0 -0.36 0.18 0 0 -0.5397 0.1797 0 0 -0.3598 0.18 0 0 -0.7197 0.18 0 0 -0.5398 0.1798 0 0 -0.7195 0.18 0 0 -0.7197 0.18 0 0 -0.3598 0.1797 0 0 -0.18 0.5398 0 0 1.2595 -0.1798 0 0 0.5397 -0.18 0 0 0.5398 -0.18 0 0 0.5397 -0.1797 0 0 0.5398 -0.18 0 0 0.3598 -0.18 0 0 0.5397 -0.1798 0 0 0.3598 -0.18 0 0 0.5397 -0.18 0 0 0.5398 -0.1797 0 0 1.4395 0.1797 0 0 0.1797 0.36 0 0 0.18 0.5398 0 0 0.18 0.7195 0 0 0.1798 1.4395 0 0 -0.3598 0.1798 0 0 -0.5397 0.1799 0 0 -0.8995 0.18 0 0 -1.2595 0.1798 0 0 -1.2595 0.18 0 0 -2.8786 0.18 0 0 0.1798 0.3597 0 0 0.36 0.18 0 0 0.3598 0.1798 0 0 2.159 0.18 0 0 3.5982 0.18 0 0 0.5398 0.1798 0 0 0.18 0.1799 0 0 -0.18 1.2595 0 0 -0.1798 0.8996 0 0 -0.18 0.7197 0 0 -0.18 0.1798 0 0 -1.799 -0.1798 0 0 -0.7197 -0.18 0 0 -0.7198 -0.18 0 0 -0.5397 -0.1798 0 0 -0.7196 -0.1799 0 0 -1.4394 0.1799 0 0 -0.5398 0.1798 0 0 -0.1798 0.18 0 0 0.1798 0.18 0 0 0.7198 0.1798 0 0 0.7197 0.18 0 0 0.5397 0.1799 0 0 0.5398 0.1798 0 0 0.3598 0.18 0 0 0.5397 0.18 0 0 0.3598 0.1798 0 0 0.36 0.18 0 0 0.3597 0.1799 0 0 0.18 0.1798 0 0 0.3598 0.18 0 0 0.18 0.3598 0 0 0.1797 0.7197 0 0 -0.1797 0.3598 0 0 -0.18 0.36 0 0 -0.18 0.1797 0 0 -0.1798 0.18 0 0 -0.18 0.18 0 0 -0.18 0.1798 0 0 -0.1797 0.18 0 0 -0.18 0.18 0 0 -0.3598 0.1797 0 0 -0.18 0.18 0 0 -0.5397 0.18 0 0 -0.7198 0.1798 0 0 -0.3597 -0.1798 0 0 -0.5398 -0.18 0 0 -0.3598 -0.18 0 0 -0.3599 -0.1797 0 0 -0.1798 -0.18 0 0 -0.36 -0.18 0 0 -0.1798 -0.1798 0 0 -0.1799 -0.18 0 0 -0.18 -0.18 0 0 -0.3598 -0.1797 0 0 -0.18 -0.18 0 0 -0.1798 -0.18 0 0 -0.18 -0.1798 0 0 -0.3597 -0.18 0 0 -0.18 -0.18 0 0 -0.18 -0.1797 0 0 -0.1798 -0.18 0 0 -0.3599 -0.18 0 0 -0.3598 -0.1798 0 0 -0.3598 -0.18 0 0 -0.3599 -0.18 0 0 -0.7196 -0.1798 0 0 -2.8787 -0.1799 0 0 -1.0795 0.1799 0 0 -1.4393 0.1798 0 0 -0.7197 0.18 0 0 -0.5398 0.18 0 0 -1.6192 0.1798 0 0 -2.159 0.18 0 0 -3.0586 0.18 0 0 -0.8995 -0.18 0 0 -0.18 -0.7198 0 0 0.18z"/>
   <path id="_388812544" class="fil1" d="M48.9836 70.9615l0.18 0 0 -0.18 0.1799 0 0 -0.1797 0.5398 0 0 0.1797 0.1798 0 0 0.7198 -0.1798 0 0 0.18 -0.5398 0 0 -0.18 -0.1799 0 0 -0.18 -0.18 0 0 -0.3598zm-4.4978 -0.7197l0.8995 0 0 0.8997 -0.8995 0 0 -0.8997zm-5.0378 -1.6193l0.8995 0 0 0.8998 -0.8995 0 0 -0.8998zm13.4938 0.18l0.18 0 0 -0.18 0.7195 0 0 0.18 0.18 0 0 0.5398 -0.18 0 0 0.18 -0.7195 0 0 -0.18 -0.18 0 0 -0.5398zm-12.0545 -18.3515l0.18 0 0 1.6192 0.18 0 0 1.4395 0.1797 0 0 1.6192 0.18 0 0 1.4393 0.18 0 0 5.2175 -0.18 0 0 0.8996 -0.18 0 0 0.3599 -0.1797 0 0 0.3598 -0.18 0 0 0.3598 -0.18 0 0 0.1799 -0.1798 0 0 0.3598 -0.18 0 0 0.18 -0.18 0 0 0.18 -0.1797 0 0 0.1798 -0.18 0 0 0.3599 -0.18 0 0 0.1798 -0.1798 0 0 0.18 -0.18 0 0 0.18 -0.18 0 0 0.3598 -0.1797 0 0 0.1799 -0.18 0 0 0.1798 -0.18 0 0 0.36 -0.1798 0 0 0.1798 -0.18 0 0 0.3599 -0.18 0 0 0.1798 -0.1797 0 0 0.5398 -0.18 0 0 0.7197 0.18 0 0 0.7198 0.1797 0 0 0.3597 0.18 0 0 0.3598 0.18 0 0 0.18 0.1798 0 0 0.18 0.18 0 0 0.1797 0.18 0 0 0.18 0.1797 0 0 0.18 0.18 0 0 0.1798 0.18 0 0 0.18 0.3598 0 0 0.18 0.18 0 0 0.1797 0.7195 0 0 -0.1797 0.18 0 0 -0.18 0.18 0 0 -0.18 0.1797 0 0 -0.1798 0.18 0 0 -0.36 0.18 0 0 -0.3597 0.1798 0 0 -0.3598 0.18 0 0 -0.36 0.18 0 0 -0.5397 0.1797 0 0 -0.5398 0.18 0 0 -0.5397 0.18 0 0 -0.5398 0.1798 0 0 -0.7195 0.18 0 0 -0.5398 0.18 0 0 0.1798 0.1798 0 0 0.18 0.1799 0 0 2.159 -0.1799 0 0 0.7198 -0.1798 0 0 0.5397 -0.18 0 0 0.7195 -0.18 0 0 1.0795 -0.1798 0 0 0.8998 0.1798 0 0 0.1797 0.36 0 0 0.18 0.7195 0 0 0.18 0.8997 0 0 0.1798 1.2593 0 0 -0.1798 0.18 0 0 -0.7197 0.18 0 0 -4.6778 0.1798 0 0 -0.8997 0.1799 0 0 -0.3598 0.18 0 0 -0.18 0.1798 0 0 -0.1798 0.18 0 0 -0.1799 0.18 0 0 3.7782 0.1798 0 0 1.0795 0.18 0 0 1.0795 0.1799 0 0 0.7198 0.1798 0 0 0.5397 0.18 0 0 0.1798 0.18 0 0 0.18 0.1798 0 0 -0.18 1.2595 0 0 -0.1798 0.7197 0 0 -0.18 0.5398 0 0 -0.18 0.1797 0 0 -0.3597 0.18 0 0 -1.0795 -0.18 0 0 -0.5398 -0.1797 0 0 -0.3597 -0.18 0 0 -0.5398 -0.18 0 0 -0.5397 -0.1798 0 0 -0.36 -0.18 0 0 -0.5398 -0.18 0 0 -0.5397 -0.1798 0 0 -0.3598 -0.1799 0 0 -0.7197 -0.18 0 0 -0.7196 -0.1798 0 0 -0.5397 0.1798 0 0 -0.18 0.5397 0 0 0.3598 0.18 0 0 0.5397 0.18 0 0 0.7198 0.1798 0 0 0.7197 0.18 0 0 0.5397 0.18 0 0 0.5398 0.1797 0 0 0.5398 0.18 0 0 0.3597 0.18 0 0 0.3598 0.1798 0 0 0.36 0.18 0 0 0.3597 0.18 0 0 0.18 0.1797 0 0 0.1798 0.18 0 0 0.18 0.18 0 0 0.18 0.3598 0 0 0.1797 0.18 0 0 0.18 0.1797 0 0 -0.18 0.18 0 0 -0.1797 0.18 0 0 -0.18 0.3598 0 0 -0.18 0.18 0 0 -0.1798 0.1797 0 0 -0.18 0.18 0 0 -0.18 0.18 0 0 -0.3597 0.1798 0 0 -0.3598 0.18 0 0 -1.2595 -0.18 0 0 -0.5397 -0.1798 0 0 -0.5398 -0.18 0 0 -0.3598 -0.18 0 0 -0.3599 -0.1797 0 0 -0.3598 -0.18 0 0 -0.3598 -0.18 0 0 -0.3599 -0.1798 0 0 -0.3598 -0.18 0 0 -0.18 -0.18 0 0 -0.3598 -0.1797 0 0 -0.3597 -0.18 0 0 -0.18 -0.18 0 0 -0.3598 -0.1798 0 0 -0.3599 -0.18 0 0 -0.3598 -0.18 0 0 -0.3598 -0.1797 0 0 -0.3599 -0.18 0 0 -0.3598 -0.18 0 0 -0.3598 -0.1798 0 0 -0.7197 -0.18 0 0 -0.7198 -0.18 0 0 -0.7195 -0.1797 0 0 -0.8997 -0.18 0 0 -1.6193 0.18 0 0 -0.8995 0.1797 0 0 -1.0795 0.18 0 0 -0.7195 -2.159 0 0 -0.18 -0.7197 0 0 -0.18 -0.5398 0 0 -0.1798 -0.3597 0 0 -0.1799 -0.3598 0 0 -0.18 -0.18 0 0 -0.1798 -0.18 0 0 -0.18 -0.1798 0 0 -0.18 -0.3599 0 0 -0.3598 -0.1798 0 0 -0.1799 -0.18 0 0 -0.1798 -0.18 0 0 -0.18 -0.1798 0 0 -0.18 -0.18 0 0 -0.1798 -0.1799 0 0 -0.3599 -0.1798 0 0 -0.1798 -0.18 0 0 -0.18 -0.18 0 0 -0.18 -0.1798 0 0 -0.3598 -0.18 0 0 -0.1799 -0.1799 0 0 -0.1798 -0.1798 0 0 -0.18 -0.18 0 0 -0.3598 -0.18 0 0 -0.18 -0.1798 0 0 -0.18 -0.18 0 0 -0.1797 -0.1799 0 0 -0.18 -0.1798 0 0 -0.18 -0.18 0 0 -0.1798 -0.18 0 0 -0.18 -0.1798 0 0 -0.18 -0.18 0 0 -0.1797 -0.18 0 0 -0.18 -0.3597 0 0 -0.18 -0.18 0 0 -0.1798 -0.5398 0 0 -0.18 -0.5397 0 0 3.0586z"/>
   <path id="_388812784" class="fil1" d="M52.2221 50.451l0.18 0 0 -0.3598 0.7197 0 0 0.18 0.1798 0 0 0.7195 -0.3598 0 0 0.18 -0.3597 0 0 -0.18 -0.18 0 0 -0.1798 -0.18 0 0 -0.3599zm-1.6193 -2.8786l-0.7195 0 0 -0.18 -0.18 0 0 -0.5397 0.18 0 0 -0.18 0.7195 0 0 0.36 0.18 0 0 0.1797 -0.18 0 0 0.36zm-3.0585 -3.7782l0.18 0 0 -0.18 0.1798 0 0 -0.18 0.5397 0 0 0.18 0.18 0 0 0.7197 -0.3598 0 0 0.1798 -0.3599 0 0 -0.1798 -0.1798 0 0 -0.18 -0.18 0 0 -0.3597zm-3.2385 -2.519l0.18 0 0 -0.1798 0.5397 0 0 0.1798 0.1798 0 0 0.7197 -0.1798 0 0 0.18 -0.5397 0 0 -0.18 -0.18 0 0 -0.7197zm4.318 -3.4183l-0.18 0 0 0.1798 -0.3597 0 0 0.18 -0.18 0 0 0.1799 -0.3598 0 0 0.1798 -0.3598 0 0 0.18 -0.3599 0 0 0.18 -0.3598 0 0 0.1798 -0.3598 0 0 0.18 -0.5397 0 0 0.1799 -0.36 0 0 0.1798 -0.3598 0 0 0.18 -0.3597 0 0 0.18 -0.36 0 0 0.1798 -0.3598 0 0 0.18 -0.1799 0 0 0.1799 -0.3598 0 0 0.1798 -0.18 0 0 0.18 -0.1798 0 0 0.18 -0.18 0 0 0.1798 -0.18 0 0 0.18 -0.1797 0 0 0.1799 -0.18 0 0 0.3598 -0.18 0 0 0.18 -0.1798 0 0 0.3598 -0.18 0 0 0.5397 -0.18 0 0 0.5398 -0.1797 0 0 0.5397 -0.18 0 0 1.0795 0.18 0 0 0.3598 0.1797 0 0 0.18 0.18 0 0 0.18 1.0795 0 0 -0.18 0.3598 0 0 -0.18 0.18 0 0 -0.1798 0.3598 0 0 -0.18 0.1799 0 0 -0.18 0.18 0 0 -0.1797 0.1798 0 0 -0.18 0.18 0 0 -0.18 0.18 0 0 -0.1798 0.1798 0 0 -0.36 0.1799 0 0 -0.1797 0.18 0 0 -0.18 0.1798 0 0 -0.18 0.18 0 0 -0.1798 0.18 0 0 -0.18 0.1798 0 0 -0.3597 0.1799 0 0 -0.18 0.18 0 0 -0.18 0.1798 0 0 -0.1798 0.36 0 0 -0.18 0.1798 0 0 -0.18 0.1799 0 0 0.18 0.3598 0 0 0.5398 -0.1798 0 0 0.3597 -0.18 0 0 0.18 -0.1799 0 0 0.18 -0.1798 0 0 0.1798 -0.18 0 0 0.18 -0.18 0 0 0.18 -0.1798 0 0 0.1797 -0.18 0 0 0.18 -0.1799 0 0 0.18 -0.3598 0 0 0.1798 -0.18 0 0 0.18 -0.1798 0 0 0.18 -0.3599 0 0 0.1797 -0.1798 0 0 0.36 -0.18 0 0 0.1798 -0.18 0 0 0.36 -0.1798 0 0 1.4392 0.1798 0 0 0.3598 0.18 0 0 0.18 0.18 0 0 0.3597 0.1798 0 0 0.18 0.7197 0 0 -0.18 0.3598 0 0 -0.1797 0.3599 0 0 -0.18 0.1798 0 0 -0.18 0.18 0 0 -0.1798 0.18 0 0 -0.18 0.1798 0 0 -0.18 0.1799 0 0 -0.1797 0.18 0 0 -0.18 0.1798 0 0 -0.3598 0.18 0 0 -0.18 0.18 0 0 -0.18 0.1798 0 0 -0.1797 0.18 0 0 -0.18 0.1799 0 0 -0.18 0.1798 0 0 -0.1798 0.18 0 0 -0.18 0.18 0 0 -0.18 0.1798 0 0 -0.1797 0.18 0 0 -0.18 0.1799 0 0 -0.18 0.1798 0 0 0.18 0.36 0 0 0.5397 -0.18 0 0 0.3598 -0.18 0 0 0.18 -0.1798 0 0 0.18 -0.1799 0 0 0.1797 -0.18 0 0 0.18 -0.1798 0 0 0.18 -0.18 0 0 0.1798 -0.18 0 0 0.18 -0.1798 0 0 0.18 -0.3599 0 0 0.1797 -0.1798 0 0 0.18 -0.18 0 0 0.18 -0.18 0 0 0.1798 -0.1798 0 0 0.18 -0.18 0 0 0.18 -0.1799 0 0 0.1797 -0.1798 0 0 0.18 -0.18 0 0 0.3598 -0.18 0 0 1.2595 0.18 0 0 0.18 0.18 0 0 0.1798 0.1798 0 0 0.3599 0.1799 0 0 0.1798 0.18 0 0 0.18 0.1798 0 0 0.18 0.18 0 0 0.1798 0.3598 0 0 -0.1798 0.3599 0 0 -0.18 0.3598 0 0 -0.18 0.18 0 0 -0.1798 0.1798 0 0 -0.18 0.18 0 0 -0.1799 0.1799 0 0 -0.1798 0.1798 0 0 -0.18 0.18 0 0 -0.3598 0.18 0 0 -0.18 0.1798 0 0 -0.18 0.18 0 0 -0.1797 0.1799 0 0 -0.18 0.1798 0 0 -0.18 0.18 0 0 -0.1798 0.18 0 0 -0.18 0.1798 0 0 -0.3597 0.18 0 0 -0.18 0.3597 0 0 -0.18 0.18 0 0 -0.1798 0.3598 0 0 0.1798 0.18 0 0 0.5397 -0.18 0 0 0.36 -0.1798 0 0 0.1798 -0.18 0 0 0.18 -0.18 0 0 0.18 -0.1797 0 0 0.1797 -0.18 0 0 0.18 -0.18 0 0 0.18 -0.1798 0 0 0.1798 -0.18 0 0 0.18 -0.3598 0 0 0.18 -0.1799 0 0 0.1798 -0.3598 0 0 0.1799 -0.18 0 0 0.18 -0.18 0 0 0.1798 -0.1798 0 0 0.18 -0.1799 0 0 0.3598 -0.18 0 0 0.3599 -0.1798 0 0 0.8995 0.1798 0 0 0.18 0.18 0 0 0.1798 0.1799 0 0 0.18 0.1798 0 0 0.18 0.5398 0 0 0.1798 1.0795 0 0 -0.1798 0.5397 0 0 -0.18 0.36 0 0 -0.18 0.1798 0 0 -0.1798 0.18 0 0 -0.18 0.18 0 0 -0.1799 0.1797 0 0 -0.1798 0.18 0 0 -0.18 0.18 0 0 -0.18 0.1798 0 0 -0.1798 0.18 0 0 -0.18 0.18 0 0 -0.3597 0.1797 0 0 -0.18 0.18 0 0 -0.18 0.18 0 0 -0.1798 0.1798 0 0 -0.3599 0.18 0 0 -0.1798 0.18 0 0 -0.18 0.1797 0 0 -0.18 0.18 0 0 -0.1798 0.18 0 0 -0.18 0.1798 0 0 -0.18 0.36 0 0 -0.1797 0.1797 0 0 -0.18 0.18 0 0 -0.18 0.18 0 0 -0.1798 0.1798 0 0 -0.5397 0.18 0 0 -0.7198 0.18 0 0 -0.8995 -0.18 0 0 -0.7197 -0.18 0 0 -0.5398 -0.1798 0 0 -0.5397 -0.18 0 0 -0.5398 -0.18 0 0 -0.3597 -0.1797 0 0 -0.5398 -0.18 0 0 -0.36 -0.18 0 0 -0.3597 -0.1798 0 0 -0.18 -0.18 0 0 -0.3598 -0.18 0 0 -0.3598 -0.1797 0 0 -0.1799 -0.18 0 0 -0.3598 -0.18 0 0 -0.18 -0.1798 0 0 -0.18 -0.18 0 0 -0.1798 -0.18 0 0 -0.1799 -0.1797 0 0 -0.18 -0.18 0 0 -0.1798 -0.18 0 0 -0.18 -0.1798 0 0 -0.18 -0.18 0 0 -0.1798 -0.18 0 0 -0.1799 -0.1797 0 0 -0.18 -0.36 0 0 -0.1798 -0.1798 0 0 -0.18 -0.36 0 0 -0.18 -0.3597 0 0 -0.1798 -0.3598 0 0 -0.1799 -0.5398 0 0 -0.18 -0.5397 0 0 -0.1798 -0.8997 0 0 -0.18 -0.3598 0 0 0.18z"/>
   <path id="_388812880" class="fil1" d="M11.0212 50.2712l0.18 0 0 -0.18 0.5397 0 0 0.18 0.1798 0 0 0.7195 -0.3598 0 0 0.18 -0.3597 0 0 -0.18 -0.18 0 0 -0.7195zm2.5187 -3.4185l0.18 0 0 -0.18 0.7198 0 0 0.18 0.1797 0 0 0.5397 -0.1797 0 0 0.18 -0.7198 0 0 -0.18 -0.18 0 0 -0.5397zm1.9793 -3.0585l0.1798 0 0 -0.18 0.1799 0 0 -0.18 0.5398 0 0 0.18 0.18 0 0 0.7197 -0.36 0 0 0.1798 -0.3598 0 0 -0.1798 -0.1799 0 0 -0.18 -0.1798 0 0 -0.3597zm3.4183 -2.339l0.1799 0 0 -0.18 0.18 0 0 -0.1798 0.3598 0 0 0.1798 0.18 0 0 0.18 0.1798 0 0 0.3597 -0.1798 0 0 0.36 -0.5398 0 0 -0.18 -0.18 0 0 -0.18 -0.1799 0 0 -0.3597zm-3.5983 -3.5983l-0.8995 0 0 0.1798 -0.7198 0 0 0.18 -0.3597 0 0 0.1799 -0.36 0 0 0.1798 -0.3598 0 0 0.18 -0.3597 0 0 0.18 -0.36 0 0 0.1798 -0.1798 0 0 0.18 -0.18 0 0 0.1799 -0.3597 0 0 0.1798 -0.18 0 0 0.18 -0.18 0 0 0.18 -0.1798 0 0 0.1798 -0.18 0 0 0.18 -0.18 0 0 0.1799 -0.1797 0 0 0.3598 -0.18 0 0 0.18 -0.18 0 0 0.1798 -0.1798 0 0 0.3599 -0.18 0 0 0.1798 -0.18 0 0 0.36 -0.1797 0 0 0.1798 -0.18 0 0 0.36 -0.18 0 0 0.3597 -0.1798 0 0 0.5398 -0.18 0 0 0.3597 -0.18 0 0 0.5398 -0.1797 0 0 0.5397 -0.18 0 0 0.5398 -0.18 0 0 0.7197 -0.1798 0 0 1.4393 0.1798 0 0 0.5397 0.18 0 0 0.36 0.18 0 0 0.1798 0.1797 0 0 0.18 0.18 0 0 0.18 0.18 0 0 0.1797 0.1798 0 0 0.18 0.36 0 0 0.18 0.1797 0 0 0.1798 0.18 0 0 0.18 0.18 0 0 0.18 0.1798 0 0 0.3597 0.18 0 0 0.18 0.18 0 0 0.1798 0.1797 0 0 0.18 0.18 0 0 0.3598 0.18 0 0 0.1799 0.1798 0 0 0.18 0.18 0 0 0.1798 0.18 0 0 0.18 0.1797 0 0 0.18 0.18 0 0 0.1798 0.18 0 0 0.1799 0.1798 0 0 0.18 0.18 0 0 0.1798 0.18 0 0 0.18 0.3597 0 0 0.18 0.5398 0 0 0.1798 1.0795 0 0 -0.1798 0.3597 0 0 -0.18 0.36 0 0 -0.18 0.1798 0 0 -0.1798 0.18 0 0 -0.5397 0.18 0 0 -0.18 -0.18 0 0 -0.5398 -0.18 0 0 -0.3597 -0.1798 0 0 -0.18 -0.18 0 0 -0.18 -0.18 0 0 -0.1798 -0.1797 0 0 -0.18 -0.18 0 0 -0.1799 -0.18 0 0 -0.1798 -0.3598 0 0 -0.18 -0.18 0 0 -0.18 -0.1797 0 0 -0.1798 -0.36 0 0 -0.18 -0.1798 0 0 -0.18 -0.18 0 0 -0.1797 -0.18 0 0 -0.18 -0.1797 0 0 -0.18 -0.18 0 0 -0.3598 -0.18 0 0 -0.3597 -0.1798 0 0 -0.36 0.3598 0 0 -0.1798 0.18 0 0 0.1798 0.3597 0 0 0.18 0.18 0 0 0.18 0.1798 0 0 0.1797 0.18 0 0 0.18 0.18 0 0 0.18 0.1797 0 0 0.1798 0.18 0 0 0.18 0.18 0 0 0.18 0.1798 0 0 0.1797 0.18 0 0 0.36 0.18 0 0 0.1798 0.1797 0 0 0.18 0.18 0 0 0.3598 0.18 0 0 0.1799 0.1798 0 0 0.18 0.18 0 0 0.1798 0.3598 0 0 0.18 0.3599 0 0 0.18 0.3598 0 0 0.1798 0.3598 0 0 -0.1798 0.1799 0 0 -0.18 0.18 0 0 -0.3598 0.1798 0 0 -0.18 0.18 0 0 -0.1799 0.18 0 0 -0.3598 0.1798 0 0 -0.3598 0.1799 0 0 -0.5397 -0.1799 0 0 -0.5398 -0.1798 0 0 -0.36 -0.18 0 0 -0.1797 -0.18 0 0 -0.18 -0.1798 0 0 -0.18 -0.18 0 0 -0.1798 -0.1799 0 0 -0.18 -0.1798 0 0 -0.18 -0.36 0 0 -0.1797 -0.1798 0 0 -0.18 -0.18 0 0 -0.18 -0.3597 0 0 -0.1798 -0.18 0 0 -0.18 -0.18 0 0 -0.18 -0.1798 0 0 -0.1797 -0.18 0 0 -0.18 -0.18 0 0 -0.3598 -0.1797 0 0 -0.7197 0.1797 0 0 -0.18 0.18 0 0 0.18 0.3598 0 0 0.18 0.18 0 0 0.1797 0.18 0 0 0.18 0.1798 0 0 0.18 0.1799 0 0 0.1798 0.18 0 0 0.18 0.1798 0 0 0.18 0.18 0 0 0.1797 0.18 0 0 0.36 0.1798 0 0 0.1798 0.1799 0 0 0.18 0.18 0 0 0.18 0.1798 0 0 0.3597 0.18 0 0 0.18 0.18 0 0 0.1798 0.1798 0 0 0.18 0.3599 0 0 0.18 0.1798 0 0 0.1797 0.5398 0 0 0.18 0.5397 0 0 -0.18 0.18 0 0 -0.1797 0.18 0 0 -0.18 0.1798 0 0 -0.3598 0.18 0 0 -0.5397 0.1799 0 0 -0.8998 -0.1799 0 0 -0.3597 -0.18 0 0 -0.3598 -0.1798 0 0 -0.18 -0.18 0 0 -0.18 -0.18 0 0 -0.1797 -0.1798 0 0 -0.18 -0.18 0 0 -0.18 -0.3597 0 0 -0.1798 -0.18 0 0 -0.18 -0.18 0 0 -0.18 -0.1798 0 0 -0.1797 -0.3599 0 0 -0.18 -0.1798 0 0 -0.18 -0.18 0 0 -0.1798 -0.18 0 0 -0.36 -0.1798 0 0 -0.1797 -0.18 0 0 -0.7198 0.18 0 0 -0.18 0.1798 0 0 0.18 0.36 0 0 0.18 0.1798 0 0 0.1798 0.1799 0 0 0.18 0.18 0 0 0.18 0.1798 0 0 0.1797 0.18 0 0 0.18 0.18 0 0 0.18 0.1798 0 0 0.1798 0.1799 0 0 0.18 0.18 0 0 0.3597 0.1798 0 0 0.18 0.18 0 0 0.18 0.18 0 0 0.1798 0.1798 0 0 0.18 0.18 0 0 0.18 0.1799 0 0 0.1797 0.1798 0 0 0.18 0.18 0 0 0.18 0.18 0 0 0.1798 0.3598 0 0 0.18 0.3597 0 0 0.18 1.0795 0 0 -0.18 0.18 0 0 -0.3598 0.18 0 0 -0.5397 0.1798 0 0 -0.5398 -0.1798 0 0 -0.5397 -0.18 0 0 -0.5398 -0.18 0 0 -0.5397 -0.1798 0 0 -0.36 -0.1799 0 0 -0.1798 -0.18 0 0 -0.36 -0.1798 0 0 -0.1798 -0.18 0 0 -0.1799 -0.18 0 0 -0.18 -0.1798 0 0 -0.1798 -0.1799 0 0 -0.18 -0.18 0 0 -0.18 -0.1798 0 0 -0.1798 -0.18 0 0 -0.1799 -0.3598 0 0 -0.18 -0.1799 0 0 -0.1798 -0.3598 0 0 -0.18 -0.36 0 0 -0.18 -0.5397 0 0 -0.1798 -0.3598 0 0 -0.1799 -0.3598 0 0 -0.18 -0.3599 0 0 -0.1798 -0.5398 0 0 -0.18 -0.3598 0 0 -0.18 -0.3597 0 0 -0.1798 -0.18 0 0 -0.1799 -0.3598 0 0 -0.18 -0.18 0 0 -0.1798 -0.1799 0 0 -0.18 -0.3598 0 0 0.18z"/>
   <polygon id="_388812736" class="fil1" points="28.653,29.2209 28.2932,29.2209 28.2932,29.4006 27.9335,29.4006 27.9335,29.5806 27.7535,29.5806 27.7535,29.9404 27.5735,29.9404 27.5735,30.4801 27.3937,30.4801 27.3937,31.3799 27.2137,31.3799 27.2137,32.9991 27.3937,32.9991 27.3937,33.7187 27.5735,33.7187 27.5735,34.0786 27.7535,34.0786 27.7535,34.4384 27.9335,34.4384 27.9335,34.6184 28.1132,34.6184 28.1132,34.7982 28.2932,34.7982 28.2932,34.9781 28.4732,34.9781 28.4732,35.1581 28.653,35.1581 28.653,35.3379 28.833,35.3379 28.833,35.5179 29.013,35.5179 29.013,35.6979 29.1927,35.6979 29.1927,35.8777 29.5527,35.8777 29.5527,36.0576 29.9125,36.0576 29.9125,36.2376 30.4522,36.2376 30.4522,36.4174 32.2515,36.4174 32.2515,36.2376 32.7912,36.2376 32.7912,36.0576 33.331,36.0576 33.331,35.8777 33.6907,35.8777 33.6907,35.6979 33.8707,35.6979 33.8707,35.5179 34.0505,35.5179 34.0505,35.3379 34.4105,35.3379 34.4105,35.1581 34.5903,35.1581 34.5903,34.7982 34.7702,34.7982 34.7702,34.6184 34.9502,34.6184 34.9502,34.2584 35.13,34.2584 35.13,33.5389 35.31,33.5389 35.31,29.2209 34.9502,29.2209 34.9502,29.0409 28.653,29.0409 "/>
   <path id="_388812424" class="fil1" d="M37.6488 40.9154l0.18 0 0 -0.18 0.18 0 0 -0.1798 0.1797 0 0 -0.1799 0.7198 0 0 0.1799 0.18 0 0 0.1798 0.1797 0 0 0.18 0.18 0 0 0.8995 -0.18 0 0 0.18 -0.1797 0 0 0.18 -1.0795 0 0 -0.18 -0.18 0 0 -0.18 -0.18 0 0 -0.8995zm8.0963 -8.0963l-0.1798 0 0 0.3598 -0.18 0 0 0.36 -0.18 0 0 0.1798 -0.1798 0 0 0.3599 -0.18 0 0 0.1798 -0.1799 0 0 0.18 -0.1798 0 0 0.3598 -0.18 0 0 0.1799 -0.18 0 0 0.18 -0.1798 0 0 0.1798 -0.18 0 0 0.18 -0.1799 0 0 0.18 -0.1798 0 0 0.1798 -0.18 0 0 0.1799 -0.3598 0 0 0.18 -0.18 0 0 0.1798 -0.18 0 0 0.18 -0.1797 0 0 0.18 -0.36 0 0 0.1798 -0.1798 0 0 0.1799 -0.36 0 0 0.18 -0.1797 0 0 0.1798 -0.36 0 0 0.18 -0.3598 0 0 0.18 -0.18 0 0 0.1798 -0.3597 0 0 0.18 -0.3598 0 0 0.1799 -0.36 0 0 0.1798 -0.3597 0 0 0.18 -0.3598 0 0 0.18 -0.18 0 0 0.1798 -0.3597 0 0 0.18 -0.18 0 0 0.1799 -0.18 0 0 0.1798 -0.1798 0 0 0.18 -0.18 0 0 0.18 -0.1798 0 0 0.1798 -0.1799 0 0 0.18 -0.18 0 0 0.3597 -0.1798 0 0 0.7198 -0.18 0 0 0.3597 0.18 0 0 0.7198 0.1798 0 0 0.3597 0.18 0 0 0.18 0.1799 0 0 0.3598 0.1798 0 0 0.18 0.18 0 0 0.18 0.1798 0 0 0.1797 0.36 0 0 0.18 0.1797 0 0 0.18 0.18 0 0 0.1798 0.3598 0 0 0.18 0.36 0 0 0.18 0.1797 0 0 -0.18 0.18 0 0 -0.7198 0.18 0 0 -0.7195 0.1798 0 0 -0.5397 0.18 0 0 -0.36 0.18 0 0 -0.3598 0.1797 0 0 -0.3598 0.18 0 0 -0.1799 0.18 0 0 -0.3598 0.1798 0 0 -0.18 0.18 0 0 -0.18 0.18 0 0 -0.1798 0.1797 0 0 -0.1799 0.18 0 0 -0.18 0.18 0 0 -0.1798 0.1798 0 0 -0.18 0.18 0 0 -0.18 0.18 0 0 -0.1798 0.3597 0 0 -0.1799 0.18 0 0 -0.18 0.1798 0 0 -0.1798 0.36 0 0 -0.18 0.3597 0 0 -0.18 0.18 0 0 -0.1798 0.3598 0 0 -0.1799 0.3598 0 0 -0.18 0.1799 0 0 -0.1798 0.3598 0 0 -0.18 0.36 0 0 -0.18 0.3597 0 0 -0.1798 0.18 0 0 -0.18 0.3598 0 0 -0.1799 0.18 0 0 -0.1798 0.1798 0 0 -0.18 0.1799 0 0 -0.18 0.18 0 0 -0.1798 0.1798 0 0 -0.3599 0.18 0 0 -0.1798 0.18 0 0 -0.36 0.1798 0 0 -0.5397 0.18 0 0 -1.0795 -0.18 0 0 -0.1798 -0.1798 0 0 -0.18 -0.18 0 0 -0.18 -0.18 0 0 -0.1798 -0.3598 0 0 -0.18 -0.1799 0 0 -0.18 -0.3598 0 0 -0.1797 -0.7197 0 0 0.3597z"/>
   <path id="_388813144" class="fil1" d="M24.695 40.9154l0.1797 0 0 -0.3598 0.36 0 0 -0.1799 0.8995 0 0 0.1799 0.3598 0 0 0.3598 0.18 0 0 0.7197 -0.18 0 0 0.3598 -0.1798 0 0 0.18 -1.2595 0 0 -0.18 -0.18 0 0 -0.3598 -0.1797 0 0 -0.7197zm-6.837 -8.2763l-0.3598 0 0 0.18 -0.3598 0 0 0.18 -0.18 0 0 0.1798 -0.1799 0 0 0.18 -0.1798 0 0 0.18 -0.18 0 0 0.1798 -0.18 0 0 0.3599 -0.1798 0 0 0.7196 0.1798 0 0 0.5397 0.18 0 0 0.36 0.18 0 0 0.1798 0.1798 0 0 0.1799 0.1799 0 0 0.18 0.18 0 0 0.1798 0.1798 0 0 0.18 0.18 0 0 0.18 0.18 0 0 0.1798 0.3597 0 0 0.1799 0.18 0 0 0.18 0.3598 0 0 0.1798 0.3598 0 0 0.18 0.3599 0 0 0.18 0.1798 0 0 0.1798 0.36 0 0 0.18 0.3598 0 0 0.1799 0.3597 0 0 0.1798 0.18 0 0 0.18 0.3598 0 0 0.18 0.18 0 0 0.1798 0.1799 0 0 0.18 0.3598 0 0 0.1799 0.18 0 0 0.1798 0.1798 0 0 0.18 0.18 0 0 0.18 0.1799 0 0 0.1798 0.1798 0 0 0.18 0.18 0 0 0.1799 0.18 0 0 0.1798 0.1798 0 0 0.36 0.18 0 0 0.1798 0.18 0 0 0.3599 0.1797 0 0 0.1798 0.18 0 0 0.36 0.18 0 0 0.5398 0.1798 0 0 0.3597 0.18 0 0 0.7198 0.18 0 0 0.7195 0.1797 0 0 0.36 0.36 0 0 -0.18 0.3598 0 0 -0.18 0.18 0 0 -0.1798 0.3597 0 0 -0.18 0.18 0 0 -0.18 0.1798 0 0 -0.1797 0.36 0 0 -0.36 0.1797 0 0 -0.1798 0.18 0 0 -0.18 0.18 0 0 -0.18 0.1798 0 0 -0.5397 0.18 0 0 -1.4393 -0.18 0 0 -0.3598 -0.1798 0 0 -0.3599 -0.18 0 0 -0.1798 -0.18 0 0 -0.18 -0.1797 0 0 -0.18 -0.18 0 0 -0.1798 -0.18 0 0 -0.1799 -0.1798 0 0 -0.18 -0.36 0 0 -0.1798 -0.1797 0 0 -0.18 -0.36 0 0 -0.18 -0.3598 0 0 -0.1798 -0.3597 0 0 -0.1799 -0.36 0 0 -0.18 -0.3598 0 0 -0.1798 -0.3597 0 0 -0.18 -0.18 0 0 -0.18 -0.3598 0 0 -0.1798 -0.18 0 0 -0.18 -0.3598 0 0 -0.1799 -0.1799 0 0 -0.1798 -0.3598 0 0 -0.18 -0.18 0 0 -0.18 -0.18 0 0 -0.1798 -0.3597 0 0 -0.18 -0.18 0 0 -0.1799 -0.1798 0 0 -0.1798 -0.18 0 0 -0.18 -0.18 0 0 -0.18 -0.1798 0 0 -0.1798 -0.1799 0 0 -0.18 -0.18 0 0 -0.1799 -0.1798 0 0 -0.1798 -0.18 0 0 -0.36 -0.18 0 0 -0.1798 -0.1798 0 0 -0.18 -0.18 0 0 -0.3597 -0.1799 0 0 -0.36 -0.1798 0 0 -0.3598 -0.18 0 0 -0.3597 -0.7197 0 0 0.1797z"/>
  </g>
  <path class="fil2" d="M72.3494 31.7361l1.8397 -4.8278c0.2634,-0.6914 0.3951,-1.1812 0.3951,-1.4693 0,-0.3539 -0.1564,-0.6009 -0.4692,-0.7408l1.9756 0 -3.4819 8.9641c-0.5927,-0.3869 -0.9755,-0.6832 -1.1483,-0.889 -0.1482,-0.1811 -0.3252,-0.5474 -0.5309,-1.0989l-1.7657 -4.7661c-0.321,-0.8725 -0.5289,-1.4034 -0.6235,-1.5927 -0.0947,-0.1894 -0.2655,-0.3952 -0.5124,-0.6174l1.9014 0c-0.0082,0.0412 -0.0123,0.0864 -0.0123,0.1358 0,0.1811 0.0988,0.5392 0.2963,1.0742l2.1361 5.8279z"/>
  <path id="1" class="fil2" d="M77.3994 31.6126l0 -5.2475c0,-0.4775 -0.0165,-0.7903 -0.0494,-0.9384 -0.0741,-0.3375 -0.2511,-0.5803 -0.5309,-0.7285l2.4694 0c-0.2799,0.1482 -0.4569,0.391 -0.5309,0.7285 -0.033,0.1481 -0.0494,0.4609 -0.0494,0.9384l0 5.2475c0,0.4775 0.0164,0.7902 0.0494,0.9384 0.074,0.3375 0.251,0.5803 0.5309,0.7285l-2.4694 0c0.2798,-0.1482 0.4568,-0.391 0.5309,-0.7285 0.0329,-0.1482 0.0494,-0.4609 0.0494,-0.9384z"/>
  <path id="12" class="fil2" d="M82.4 25.5995l0 6.0131c0,0.4775 0.0164,0.7902 0.0494,0.9384 0.074,0.3375 0.251,0.5803 0.5309,0.7285l-2.4694 0c0.2798,-0.1482 0.4568,-0.391 0.5309,-0.7285 0.0329,-0.1482 0.0494,-0.4609 0.0494,-0.9384l0 -5.2475c0,-0.4775 -0.0165,-0.7903 -0.0494,-0.9384 -0.0741,-0.3375 -0.2511,-0.5803 -0.5309,-0.7285l1.8891 0c0.1317,0 0.3251,-0.0041 0.5803,-0.0124 0.2552,-0.0082 0.4486,-0.0123 0.5803,-0.0123 0.8232,0 1.4652,0.1687 1.9262,0.5062 0.5762,0.4198 0.8643,0.9713 0.8643,1.6546 0,0.5021 -0.1976,0.963 -0.5927,1.3828 -0.3951,0.4199 -0.9013,0.708 -1.5187,0.8644 0.9713,1.3088 1.7471,2.2677 2.3275,2.8768 0.5803,0.6092 1.1297,1.0496 1.6483,1.3212 -0.6091,0.0494 -0.996,0.0741 -1.1606,0.0741 -0.3869,0 -0.7079,-0.0782 -0.9631,-0.2346 -0.2552,-0.1564 -0.5968,-0.4857 -1.0248,-0.9878 -0.8232,-0.9631 -1.6052,-2.0702 -2.346,-3.3214 1.4487,-0.2469 2.1731,-0.8684 2.1731,-1.8644 0,-0.428 -0.1461,-0.7758 -0.4383,-1.0434 -0.2922,-0.2675 -0.6771,-0.4012 -1.1545,-0.4012 -0.2634,0 -0.5638,0.0329 -0.9013,0.0987z"/>
  <path id="123" class="fil2" d="M94.2409 24.6118l-0.4198 1.5434c-0.1152,-0.2223 -0.2881,-0.3663 -0.5186,-0.4322 -0.1399,-0.0411 -0.3745,-0.0617 -0.7038,-0.0617 -0.0493,0 -0.1502,0.0062 -0.3025,0.0185 -0.1522,0.0123 -0.356,0.0185 -0.6111,0.0185l-0.2099 0 0 6.0501c0,0.4281 0.0452,0.7429 0.1358,0.9446 0.0905,0.2017 0.2757,0.3972 0.5556,0.5865l-2.5806 0c0.2799,-0.1482 0.4569,-0.391 0.531,-0.7285 0.0329,-0.1564 0.0493,-0.4692 0.0493,-0.9384l0 -5.9143c-0.2798,-0.0247 -0.6297,-0.037 -1.0495,-0.037 -0.3951,0 -0.6914,0.0247 -0.889,0.0741 -0.2551,0.0658 -0.5227,0.2057 -0.8025,0.4198l0.4815 -1.5434c0.1729,0.0576 0.3951,0.0864 0.6668,0.0864l4.9018 0c0.107,0 0.2161,-0.0041 0.3272,-0.0124 0.1111,-0.0082 0.1667,-0.0123 0.1667,-0.0123 0.0411,-0.0082 0.1317,-0.0288 0.2716,-0.0617z"/>
  <path id="1234" class="fil2" d="M100.958 33.2795l0 -0.9013c-0.6256,0.7408 -1.4858,1.1112 -2.5806,1.1112 -0.6091,0 -1.1524,-0.1214 -1.6298,-0.3642 -0.4774,-0.2429 -0.8355,-0.5783 -1.0742,-1.0063 -0.2222,-0.4034 -0.3334,-1.0578 -0.3334,-1.9632l0 -3.7906c0,-0.4775 -0.0164,-0.7903 -0.0494,-0.9384 -0.074,-0.3375 -0.251,-0.5803 -0.5309,-0.7285l2.4695 0c-0.2799,0.1564 -0.4569,0.3992 -0.531,0.7285 -0.0329,0.1564 -0.0494,0.4692 -0.0494,0.9384l0 3.7906c0,0.7326 0.14,1.2717 0.4198,1.6174 0.4034,0.5022 0.9672,0.7532 1.6916,0.7532 0.4116,0 0.8026,-0.0988 1.173,-0.2963 0.4033,-0.2058 0.6873,-0.4857 0.8519,-0.8396 0.0824,-0.1811 0.1235,-0.4445 0.1235,-0.7902l0 -4.2351c0,-0.4692 -0.0164,-0.782 -0.0494,-0.9384 -0.0741,-0.3293 -0.251,-0.5721 -0.5309,-0.7285l2.4694 0c-0.2798,0.1564 -0.4568,0.3992 -0.5309,0.7285 -0.0329,0.1564 -0.0494,0.4692 -0.0494,0.9384l0 5.2475c0,0.4692 0.0165,0.782 0.0494,0.9384 0.0741,0.3293 0.2511,0.5721 0.5309,0.7285l-1.8397 0z"/>
  <path id="12345" class="fil2" d="M109.774 30.0445l-3.2967 0 -0.7408 1.9879c-0.0988,0.2634 -0.1482,0.4857 -0.1482,0.6668 0,0.2058 0.1564,0.3992 0.4692,0.5803l-2.3954 0c0.2964,-0.1893 0.5145,-0.3869 0.6544,-0.5927 0.14,-0.2058 0.3252,-0.5926 0.5557,-1.1606l2.2965 -5.7291c0.0988,-0.2469 0.1482,-0.4404 0.1482,-0.5803 0,-0.214 -0.1317,-0.3869 -0.3951,-0.5186l2.0743 0 2.7411 6.828c0.214,0.5268 0.4033,0.9075 0.568,1.1421 0.1646,0.2346 0.3951,0.4383 0.6914,0.6112l-2.704 0c0.3128,-0.1893 0.4692,-0.3622 0.4692,-0.5186 0,-0.0988 -0.0741,-0.3416 -0.2223,-0.7285l-0.7655 -1.9879zm-0.3334 -0.8396l-1.3211 -3.4078 -1.3335 3.4078 2.6546 0z"/>
  <path id="123456" class="fil2" d="M115.552 26.3651l0 5.8525c0.5926,0.0906 1.1771,0.1359 1.7533,0.1359 0.4692,0 0.8746,-0.0577 1.2162,-0.1729 0.3416,-0.1152 0.7264,-0.3251 1.1544,-0.6297l-0.6914 1.7286 -5.3216 0c0.2798,-0.1482 0.4568,-0.391 0.5309,-0.7285 0.0329,-0.1482 0.0494,-0.4609 0.0494,-0.9384l0 -5.2475c0,-0.4775 -0.0165,-0.7903 -0.0494,-0.9384 -0.0741,-0.3375 -0.2511,-0.5803 -0.5309,-0.7285l2.4694 0c-0.2799,0.1482 -0.4569,0.391 -0.5309,0.7285 -0.033,0.1481 -0.0494,0.4609 -0.0494,0.9384z"/>
  <path class="fil2" d="M85.6658 4.815l0 2.9881c-1.6298,-0.9714 -3.202,-1.457 -4.7166,-1.457 -1.8274,0 -3.3255,0.5927 -4.4944,1.778 -1.1689,1.1853 -1.7533,2.7081 -1.7533,4.5684 0,2.0579 0.6338,3.7948 1.9015,5.2106 1.2676,1.4158 2.8316,2.1237 4.6919,2.1237 1.6628,0 3.556,-0.5598 5.6797,-1.6792l-1.3088 3.0374c-1.2347,0.5103 -2.5847,0.7655 -4.0499,0.7655 -3.3419,0 -5.9019,-0.996 -7.6799,-2.988 -1.4652,-1.6463 -2.1978,-3.6466 -2.1978,-6.0008 0,-2.6011 0.8766,-4.7577 2.6299,-6.4699 1.7533,-1.7121 3.9552,-2.5682 6.6058,-2.5682 1.2512,0 2.8151,0.2305 4.6919,0.6914z"/>
  <path id="1" class="fil2" d="M101.964 4.815l0 2.9881c-1.6298,-0.9714 -3.202,-1.457 -4.7166,-1.457 -1.8274,0 -3.3255,0.5927 -4.4944,1.778 -1.1689,1.1853 -1.7533,2.7081 -1.7533,4.5684 0,2.0579 0.6338,3.7948 1.9015,5.2106 1.2676,1.4158 2.8316,2.1237 4.6919,2.1237 1.6628,0 3.556,-0.5598 5.6797,-1.6792l-1.3088 3.0374c-1.2347,0.5103 -2.5847,0.7655 -4.0499,0.7655 -3.3419,0 -5.9019,-0.996 -7.6799,-2.988 -1.4652,-1.6463 -2.1978,-3.6466 -2.1978,-6.0008 0,-2.6011 0.8766,-4.7577 2.6299,-6.4699 1.7533,-1.7121 3.9552,-2.5682 6.6058,-2.5682 1.2512,0 2.8151,0.2305 4.6919,0.6914z"/>
  <path id="12" class="fil2" d="M108.656 13.3346l0 6.1983c1.103,0.1811 2.1731,0.2716 3.2102,0.2716 2.0744,0 3.77,-0.4939 5.0871,-1.4816l-1.2101 3.4078 -10.8655 0c0.5597,-0.2963 0.9137,-0.782 1.0619,-1.457 0.0658,-0.3128 0.0987,-0.9466 0.0987,-1.9014l0 -10.4705c0,-0.9384 -0.0329,-1.5639 -0.0987,-1.8767 -0.1482,-0.675 -0.5022,-1.1607 -1.0619,-1.457l8.6677 0c0.3787,0 0.7079,-0.0494 0.9878,-0.1482l0 3.0374c-0.4609,-0.4445 -0.9466,-0.7326 -1.457,-0.8643 -0.3951,-0.1152 -0.9795,-0.1728 -1.7533,-0.1728 -1.0865,0 -1.9755,0.0576 -2.6669,0.1728l0 4.8648 3.4819 0c0.3457,0 0.642,-0.0576 0.889,-0.1728l0 2.7657c-0.3622,-0.4774 -1.0454,-0.7161 -2.0497,-0.7161l-2.3212 0z"/>
  <line class="fil0 str0" x1="62.6019" y1="7.1372" x2="62.6019" y2= "67.1372" />
  <path class="fil1" d="M97.2016 68.7779c1.306,-1.9504 2.5776,-4.9465 3.1751,-7.1783l0.1542 -0.536 1.3857 0.4414c0.8753,0.2917 1.5059,0.5799 2.3096,0.9385 0.1218,0.0543 0.2098,0.0844 0.3381,0.1491l1.2449 0.6229c-0.3141,0.5935 -1.7846,2.0355 -2.3546,2.477 -1.0043,0.7779 -1.2007,0.9624 -2.3682,1.6108 -0.2096,0.1164 -0.36,0.1993 -0.5825,0.3107 -0.2157,0.1079 -0.39,0.1787 -0.609,0.2842 -0.2089,0.1007 -0.4146,0.1712 -0.634,0.2593 -0.3896,0.1564 -1.6875,0.5894 -2.0593,0.6204zm-15.3069 -5.5624l2.5111 -1.1837c1.1647,-0.4681 1.6596,-0.6201 2.7672,-0.9682l0.6444 2.1164c0.2439,0.7318 1.0753,2.7984 1.4281,3.4036l0.4875 0.8929c0.0811,0.1406 0.1597,0.2947 0.2488,0.4414l0.5205 0.86c-0.6554,-0.0546 -2.6247,-0.8244 -3.2481,-1.1369 -0.7257,-0.3637 -1.5628,-0.8451 -2.2043,-1.328 -0.1811,-0.1362 -0.3341,-0.2447 -0.5067,-0.3866 -0.1795,-0.1474 -0.3133,-0.2514 -0.4871,-0.4061 -0.4063,-0.3619 -0.491,-0.415 -0.9332,-0.8532 -0.1675,-0.166 -0.2583,-0.3005 -0.4268,-0.4665l-0.413 -0.4802c-0.1444,-0.1856 -0.2621,-0.3164 -0.3884,-0.5049zm8.2828 -2.8015c0.2895,0 1.1579,-0.1355 1.5452,-0.1601 2.5364,-0.1607 3.3484,-0.0893 5.8037,0.1601 -0.0065,0.2917 -0.2131,0.8398 -0.2928,1.1282 -0.3919,1.4177 -1.0583,2.7816 -1.7101,4.0959 -0.2988,0.6025 -1.007,1.7518 -1.3842,2.27l-0.3077 0.4232c-0.0415,-0.1555 -0.172,-0.2927 -0.267,-0.4232 -0.1089,-0.1494 -0.1962,-0.2854 -0.2936,-0.4373 -0.1982,-0.3092 -0.3652,-0.5816 -0.5586,-0.903 -0.377,-0.6263 -0.6697,-1.21 -1.0059,-1.8769 -0.0856,-0.1699 -0.1308,-0.304 -0.2164,-0.4737 -0.1659,-0.329 -0.4974,-1.1823 -0.6397,-1.5529 -0.1559,-0.4063 -0.6628,-1.8858 -0.6729,-2.2503zm-0.812 -5.7655c0,-1.661 0.013,-2.1705 0.203,-3.8165l2.0471 0.2266c0.2045,0.0298 2.0046,0.0944 2.216,0.0982 0.4193,0 0.7164,-0.0431 1.096,-0.0409 0.8852,0.005 2.3086,-0.1791 3.2078,-0.2839 0,0.2064 0.0617,0.4562 0.0778,0.653 0.0193,0.2365 0.0262,0.4709 0.0613,0.7101 0.0543,0.3706 0.0935,2.8585 0.0468,3.1671l-0.1859 2.0878 -2.0471 -0.2266c-0.1943,-0.0284 -0.3571,-0.0064 -0.5516,-0.0168 -0.5159,-0.0275 -1.1535,-0.0823 -1.6644,-0.0816 -0.4084,0.0006 -0.672,0.0424 -1.0964,0.0407 -0.796,-0.0032 -2.4009,0.1903 -3.2074,0.2843l-0.1391 -1.3632c-0.0304,-0.2075 -0.0639,-1.185 -0.0639,-1.4383zm-3.0452 -0.8932l-0.0016 1.2196c0.0027,0.2194 0.0382,0.2395 0.0434,0.4438 0.0258,0.9918 0.1106,1.6961 0.2424,2.6809 -0.1419,0.0118 -0.6983,0.1791 -0.8672,0.229 -0.9392,0.2774 -2.6417,0.9143 -3.5714,1.382 -0.7558,0.3802 -1.0246,0.4853 -1.8546,0.947 -0.4934,-1.0284 -0.6638,-1.6117 -0.9793,-2.6749 -0.427,-1.4385 -0.4824,-2.9802 -0.4824,-4.4711 0,-1.5725 0.5505,-3.8115 1.1763,-5.2387l0.2854 -0.6485c0.2418,0.128 0.4525,0.2677 0.7033,0.393 0.2597,0.1298 0.4718,0.2358 0.7308,0.3654l1.5352 0.6979c1.0374,0.4251 2.216,0.8267 3.3239,1.1016l-0.1919 1.7164c-0.0396,0.2941 -0.0923,1.4799 -0.0923,1.8566zm14.7791 -3.573c0.4786,-0.0398 2.961,-0.9529 3.3239,-1.1016 1.034,-0.4237 1.9959,-0.9149 2.9693,-1.4563 0.3071,0.5804 0.86,2.127 0.9828,2.712l0.4789 3.2564 0 1.0557c0,2.1985 -0.609,4.1058 -1.4617,6.0091 -1.3905,-0.7358 -1.4256,-0.754 -2.9777,-1.4479 -0.9074,-0.4056 -2.2911,-0.8559 -3.3155,-1.1101 0.0551,-0.2365 0.087,-0.6123 0.1145,-0.8599 0.2254,-2.0278 0.1522,-2.9118 0.1307,-4.7447 -0.0034,-0.2873 -0.2042,-2.2209 -0.2452,-2.3127zm-7.2271 -10.191l1.1451 1.7376c0.0852,0.1358 0.1743,0.294 0.249,0.4412 0.0927,0.1828 0.1637,0.2856 0.2571,0.4738 1.0714,2.1603 1.3731,2.8621 2.0029,5.2241 -0.3237,0 -0.5115,0.0568 -0.8109,0.0824 -2.9536,0.2526 -3.6535,0.2063 -6.538,-0.0824 0.0139,-0.6219 1.1203,-3.4605 1.5153,-4.2501 0.3321,-0.6638 0.6365,-1.2649 1.0043,-1.8785 0.2068,-0.345 0.6289,-1.0294 0.8565,-1.3359 0.1045,-0.1408 0.1847,-0.3225 0.3187,-0.4122zm3.3293 -0.4872c0.9086,0.0756 3.3505,1.1427 4.1244,1.6004 0.1031,0.061 0.1748,0.1065 0.2782,0.1684 0.5397,0.3232 1.0706,0.6833 1.5565,1.0826l0.7305 0.6094c0.2243,0.2078 0.7331,0.6697 0.9128,0.8737l1.0052 1.2279c-0.0133,0.0031 -2.1203,1.0358 -2.5057,1.1891 -1.1168,0.4444 -1.6694,0.6225 -2.7726,0.9628l-0.6444 -2.1165c-0.1985,-0.5956 -1.0931,-2.8289 -1.428,-3.4035 -0.0877,-0.1505 -0.1602,-0.2847 -0.2416,-0.4487 -0.1657,-0.3345 -0.8407,-1.4848 -1.0153,-1.7456zm-10.0286 7.7143l-1.3857 -0.4415c-0.4856,-0.1617 -0.8901,-0.3233 -1.3579,-0.5097 -0.7298,-0.2909 -1.8302,-0.8477 -2.5347,-1.2007 0.517,-0.772 1.2243,-1.4115 1.8771,-2.0613l0.4775 -0.4157c0.6816,-0.5266 1.0242,-0.8267 1.7995,-1.2863 0.4893,-0.29 1.2626,-0.7038 1.762,-0.9176 1.0119,-0.4334 1.6481,-0.6246 2.6915,-0.8815 -0.2539,0.4798 -0.7138,1.1372 -1.0153,1.7456 -0.0814,0.164 -0.1539,0.2982 -0.2415,0.4487l-0.6573 1.4134c-0.2674,0.6523 -0.5346,1.2813 -0.7708,1.9901 -0.1124,0.3373 -0.2245,0.6781 -0.3342,1.0463 -0.061,0.2046 -0.254,0.9531 -0.3102,1.0702zm-11.3685 6.5369c0,2.556 0.3788,4.8303 1.3108,7.175 0.3142,0.7904 0.6973,1.4955 1.0987,2.2306 0.0675,0.1238 0.124,0.2213 0.1906,0.3371 0.7157,1.2458 1.6951,2.4089 2.7086,3.4224l0.832 0.792c0.1156,0.1082 0.1842,0.1414 0.3046,0.2639 0.1841,0.1873 0.396,0.3306 0.6077,0.4885 1.7743,1.3238 3.7253,2.3657 5.8631,2.988 3.0491,0.8877 6.2999,0.9584 9.3658,0.24 1.0025,-0.2349 1.9565,-0.5753 2.897,-0.9602 0.1567,-0.0641 0.2369,-0.1152 0.3884,-0.18 0.52,-0.2223 0.957,-0.479 1.4468,-0.7457 0.8344,-0.4546 1.5689,-1.0077 2.3232,-1.5746 0.1317,-0.099 0.1995,-0.1413 0.3123,-0.256 0.1851,-0.1884 0.3878,-0.3433 0.5867,-0.5096 0.2859,-0.239 0.8656,-0.8284 1.1181,-1.1151 0.1018,-0.1156 0.1261,-0.1676 0.2441,-0.2836 0.2822,-0.2776 0.5098,-0.6008 0.7557,-0.909 0.0879,-0.1102 0.1696,-0.2072 0.2489,-0.3196l0.6668 -0.9978c0.0745,-0.1222 0.137,-0.1963 0.2098,-0.318 0.0775,-0.1294 0.1349,-0.2328 0.2058,-0.3627 0.1415,-0.2592 0.2571,-0.4309 0.3929,-0.7033 0.249,-0.4998 0.4957,-0.9991 0.7057,-1.5273 0.9145,-2.3008 1.3108,-4.6056 1.3108,-7.0938 0,-0.6932 -0.0528,-1.4153 -0.1444,-2.0481 -0.0933,-0.6442 -0.2164,-1.2523 -0.3461,-1.8871 -0.2464,-1.2063 -1.033,-3.2835 -1.6784,-4.3712 -0.0781,-0.1317 -0.1395,-0.2213 -0.2127,-0.3557 -0.4471,-0.8208 -0.9935,-1.5621 -1.5572,-2.3 -0.0873,-0.1142 -0.1444,-0.2076 -0.2527,-0.3157 -0.1184,-0.118 -0.1412,-0.1569 -0.2461,-0.2817 -0.411,-0.4888 -0.9046,-0.9855 -1.3781,-1.4234 -0.111,-0.1027 -0.1715,-0.1275 -0.2849,-0.2429 -0.1904,-0.1935 -0.3719,-0.3499 -0.5869,-0.5093 -0.118,-0.0875 -0.2105,-0.1518 -0.324,-0.2445 -0.5138,-0.4196 -1.0635,-0.7807 -1.6283,-1.1326 -0.8215,-0.5119 -1.6739,-0.9436 -2.5892,-1.3085 -0.8404,-0.3351 -1.6095,-0.6136 -2.5174,-0.812 -3.0493,-0.6665 -5.534,-0.6919 -8.5688,-0.0073 -1.2919,0.2914 -2.1315,0.6698 -3.281,1.1446 -0.8773,0.3623 -1.691,0.8588 -2.4759,1.3812 -0.773,0.5144 -1.4598,1.1042 -2.1642,1.693 -0.4949,0.4137 -0.9151,0.9389 -1.3624,1.3985 -0.2681,0.2753 -0.5122,0.5995 -0.7493,0.9154 -1.1411,1.5202 -2.1186,3.1662 -2.7271,4.9872 -0.6023,1.8023 -1.0198,3.697 -1.0198,5.6389z"/>
 </g>
</svg>
