<?xml version="1.0" encoding="UTF-8"?>
<!DOCTYPE svg PUBLIC "-//W3C//DTD SVG 1.1//EN" "http://www.w3.org/Graphics/SVG/1.1/DTD/svg11.dtd">
<!-- Creator: CorelDRAW -->
<svg xmlns="http://www.w3.org/2000/svg" xml:space="preserve" width="135mm" height="75mm" style="shape-rendering:geometricPrecision; text-rendering:geometricPrecision; image-rendering:optimizeQuality; fill-rule:evenodd; clip-rule:evenodd"
viewBox="0 0 135 75"
 xmlns:xlink="http://www.w3.org/1999/xlink">
 <defs>
  <style type="text/css">
   <![CDATA[
    .fil0 {fill:#E71E8A}
    .fil1 {fill:fuchsia}
   ]]>
  </style>
 </defs>
 <g id="Capa_x0020_1">
  <metadata id="CorelCorpID_0Corel-Layer"/>
  <g id="_387830376">
   <path id="_561261856" class="fil0" d="M35.7333 31.7366l-0.1797 0 0 0.36 -0.18 0 0 0.3598 -0.18 0 0 0.3597 -0.1798 0 0 0.18 -0.18 0 0 0.3598 -0.1798 0 0 0.18 -0.1799 0 0 0.18 -0.18 0 0 0.3597 -0.1798 0 0 0.18 -0.18 0 0 0.1798 -0.18 0 0 0.18 -0.1798 0 0 0.18 -0.3599 0 0 0.1798 -0.1798 0 0 0.1799 -0.18 0 0 0.5398 0.18 0 0 0.5397 -0.18 0 0 0.3598 -0.18 0 0 0.18 -0.1798 0 0 0.18 -0.3599 0 0 0.1798 -0.7196 0 0 0.1799 -5.0377 0 0 -0.1799 -0.3598 0 0 -0.1798 -0.36 0 0 -0.18 -0.1797 0 0 -0.18 -0.18 0 0 -1.0795 -0.18 0 0 -0.1798 -0.3598 0 0 -0.18 -0.3597 0 0 -0.1799 -0.18 0 0 -0.1798 -0.18 0 0 -0.18 -0.1798 0 0 -0.18 -0.18 0 0 -0.3598 -0.18 0 0 -0.1799 -0.1797 0 0 -0.3598 -0.18 0 0 -0.5398 -0.18 0 0 -0.5397 -0.1798 0 0 -0.5398 -0.18 0 0 -2.5187 0.18 0 0 -0.5398 0.1798 0 0 -0.36 0.18 0 0 -0.1797 0.3597 0 0 -0.18 0.36 0 0 -0.18 0.8995 0 0 -0.1798 1.6193 0 0 -0.18 2.339 0 0 -0.18 3.7782 0 0 0.18 1.2593 0 0 0.18 0.7198 0 0 0.1798 0.5397 0 0 0.18 0.3598 0 0 0.7197 0.18 0 0 0.7195 0.1797 0 0 0.7198 0.18 0 0 0.8995 -0.18 0 0 0.5397zm15.6528 -2.159l0.18 0 0 -0.1797 0.18 0 0 -0.18 0.3598 0 0 -0.18 0.3597 0 0 0.18 0.36 0 0 0.18 0.1798 0 0 0.1797 0.18 0 0 0.7198 -0.18 0 0 0.3597 -0.3598 0 0 0.18 -0.7197 0 0 -0.18 -0.3598 0 0 -0.3597 -0.18 0 0 -0.7198zm-45.1591 0l0.18 0 0 -0.1797 0.18 0 0 -0.18 0.3597 0 0 -0.18 0.3598 0 0 0.18 0.36 0 0 0.18 0.1797 0 0 0.3597 0.18 0 0 0.5398 -0.18 0 0 0.3597 -0.3597 0 0 0.18 -0.7198 0 0 -0.18 -0.3597 0 0 -0.3597 -0.18 0 0 -0.7198zm43.7199 -4.8577l0.18 0 0 -0.1798 0.1797 0 0 -0.18 0.18 0 0 -0.18 0.7198 0 0 0.18 0.1797 0 0 0.18 0.18 0 0 0.1798 0.18 0 0 0.7197 -0.18 0 0 0.3598 -0.3597 0 0 0.18 -0.7198 0 0 -0.18 -0.3597 0 0 -0.3598 -0.18 0 0 -0.7197zm-42.2804 0l0.1797 0 0 -0.3598 0.36 0 0 -0.18 0.7195 0 0 0.18 0.18 0 0 0.18 0.18 0 0 0.1798 0.1798 0 0 0.7197 -0.1798 0 0 0.18 -0.18 0 0 0.1798 -0.18 0 0 0.18 -0.7195 0 0 -0.18 -0.36 0 0 -0.3598 -0.1797 0 0 -0.7197zm23.749 -2.5188l-0.18 0 0 -0.18 0.18 0 0 0.18zm-20.6905 -2.8785l0.18 0 0 -0.36 0.3597 0 0 -0.1798 0.7198 0 0 0.1798 0.3597 0 0 0.36 0.18 0 0 0.7195 -0.18 0 0 0.18 -0.18 0 0 0.1798 -0.3597 0 0 0.1799 -0.3598 0 0 -0.1799 -0.36 0 0 -0.1798 -0.1797 0 0 -0.18 -0.18 0 0 -0.7195zm37.7826 0.8995l-0.18 0 0 0.1798 -0.3598 0 0 0.1799 -0.3599 0 0 -0.1799 -0.3598 0 0 -0.1798 -0.18 0 0 -0.18 -0.1798 0 0 -0.7195 0.1798 0 0 -0.36 0.18 0 0 -0.1798 0.8995 0 0 0.1798 0.36 0 0 0.36 0.1798 0 0 0.5397 -0.1798 0 0 0.3598zm-8.636 -3.5983l0.1797 0 0 0.1798 -0.1797 0 0 -0.1798zm-20.8704 0l0 0.1798 -0.1799 0 0 -0.1798 0.1799 0zm20.8704 0l-0.18 0 0 -0.18 -0.3598 0 0 -0.18 -0.36 0 0 -0.1797 -0.7195 0 0 -0.18 -0.5397 0 0 0.18 -0.36 0 0 0.1797 -0.1798 0 0 0.18 -0.18 0 0 0.3598 -0.18 0 0 1.0795 0.18 0 0 0.5397 0.18 0 0 0.36 0.1798 0 0 0.3598 0.18 0 0 0.18 0.18 0 0 0.1797 0.3597 0 0 0.18 0.3598 0 0 0.18 1.0795 0 0 -0.18 0.36 0 0 -0.18 0.3597 0 0 0.5398 0.18 0 0 0.5397 -0.18 0 0 0.5398 -0.18 0 0 0.3598 -0.1797 0 0 0.3599 -0.36 0 0 0.1798 -0.1798 0 0 0.18 -0.36 0 0 0.18 -0.5397 0 0 0.1798 -1.4393 0 0 -0.1798 -0.5397 0 0 -0.18 -0.3598 0 0 -0.18 -0.36 0 0 -0.3598 -0.1797 0 0 -0.3597 -0.18 0 0 -0.5398 -0.18 0 0 -0.5397 -0.1798 0 0 -0.3598 -0.18 0 0 -0.5397 -0.1798 0 0 -0.5398 -0.1799 0 0 -0.36 -0.18 0 0 -0.5397 -0.1798 0 0 -0.8995 0.1798 0 0 -0.5398 0.18 0 0 -0.3597 0.1799 0 0 -0.36 0.1798 0 0 -0.1798 0.18 0 0 -0.36 0.1798 0 0 -0.1797 0.36 0 0 -0.18 0.1797 0 0 -0.18 0.7198 0 0 -0.1798 0.7197 0 0 0.1798 0.8995 0 0 0.18 0.3598 0 0 0.18 0.36 0 0 0.1797 0.1797 0 0 0.18 0.18 0 0 0.18 0.18 0 0 0.1798 0.1798 0 0 0.18 0.18 0 0 0.3597 0.18 0 0 0.36zm-8.4561 5.5773l0.1798 0 0 0.18 0.18 0 0 0.1798 0.18 0 0 0.5397 0.1798 0 0 0.7198 -0.1798 0 0 0.5397 -0.18 0 0 0.18 -0.18 0 0 0.1798 -0.3598 0 0 0.18 -0.5397 0 0 0.1799 -1.0795 0 0 0.1798 -1.0795 0 0 -0.1798 -1.2595 0 0 -0.1799 -0.3598 0 0 -0.18 -0.18 0 0 -0.1798 -0.1797 0 0 -0.36 -0.18 0 0 -0.5397 -0.18 0 0 -2.6988 0.18 0 0 -0.8995 0.18 0 0 -0.7195 0.1797 0 0 -0.36 0.18 0 0 -0.5398 0.18 0 0 -0.3597 0.1798 0 0 -0.3598 0.18 0 0 -0.36 0.18 0 0 -0.3597 0.1797 0 0 -0.3598 0.18 0 0 -0.18 0.18 0 0 -0.3597 0.1798 0 0 -0.18 0.18 0 0 -0.18 0.18 0 0 -0.1798 0.1798 0 0 0.3598 -0.1798 0 0 0.5397 -0.18 0 0 0.7198 -0.18 0 0 0.8995 -0.1798 0 0 0.8995 -0.18 0 0 1.0795 -0.18 0 0 2.6988 0.18 0 0 0.3597 0.18 0 0 0.18 0.3598 0 0 0.18 0.8995 0 0 0.1798 0.36 0 0 -0.1798 1.2593 0 0 -0.18 0.3599 0 0 -0.18 0.1798 0 0 -0.3597 -0.1798 0 0 -0.5398zm-12.4143 -5.5773l0 -0.36 0.1798 0 0 -0.3597 0.18 0 0 -0.18 0.18 0 0 -0.1798 0.1798 0 0 -0.18 0.18 0 0 -0.18 0.1799 0 0 -0.1797 0.3598 0 0 -0.18 0.3598 0 0 -0.18 0.8997 0 0 -0.1798 0.7195 0 0 0.1798 0.7198 0 0 0.18 0.18 0 0 0.18 0.3597 0 0 0.1797 0.18 0 0 0.36 0.1798 0 0 0.1798 0.18 0 0 0.36 0.18 0 0 0.3597 0.1797 0 0 0.5398 0.18 0 0 0.8995 -0.18 0 0 0.36 -0.1797 0 0 0.5397 -0.18 0 0 0.5398 -0.18 0 0 0.3597 -0.1798 0 0 0.5398 -0.18 0 0 0.5397 -0.18 0 0 0.3598 -0.1797 0 0 0.5397 -0.18 0 0 0.18 -0.18 0 0 0.1798 -0.1798 0 0 0.18 -0.36 0 0 0.18 -0.5397 0 0 0.1798 -1.4393 0 0 -0.1798 -0.5397 0 0 -0.18 -0.3598 0 0 -0.18 -0.36 0 0 -0.1798 -0.1798 0 0 -0.3599 -0.1799 0 0 -0.1798 -0.18 0 0 -0.5398 -0.1798 0 0 -0.8995 0.1798 0 0 -0.36 0.18 0 0 0.18 0.5397 0 0 0.18 1.0795 0 0 -0.18 0.3598 0 0 -0.18 0.18 0 0 -0.1797 0.18 0 0 -0.18 0.1797 0 0 -0.18 0.18 0 0 -0.1798 0.18 0 0 -0.36 0.1798 0 0 -0.7195 0.18 0 0 -0.7197 -0.18 0 0 -0.5398 -0.1798 0 0 -0.18 -0.18 0 0 -0.1797 -0.3597 0 0 -0.18 -0.5398 0 0 0.18 -0.7197 0 0 0.1797 -0.3598 0 0 0.18 -0.36 0 0 0.18 -0.1798 0zm25.9079 -3.5985l0.18 0 0 -0.1798 0.18 0 0 -0.1799 0.8995 0 0 0.1799 0.18 0 0 0.1798 0.1798 0 0 1.0795 -0.1798 0 0 0.18 -0.5398 0 0 0.18 -0.1799 0 0 -0.18 -0.5398 0 0 -0.3598 -0.18 0 0 -0.8997zm-32.2051 0.36l0.18 0 0 -0.36 0.18 0 0 -0.1798 0.1798 0 0 -0.1799 0.8997 0 0 0.1799 0.1798 0 0 0.1798 0.1799 0 0 0.8997 -0.1799 0 0 0.1798 -0.1798 0 0 0.18 -0.36 0 0 0.18 -0.3598 0 0 -0.18 -0.3597 0 0 -0.18 -0.18 0 0 -0.5397 -0.18 0 0 -0.1798zm5.7575 -8.996l0.1798 0 0 -0.1798 0.18 0 0 -0.18 0.3597 0 0 -0.18 0.5398 0 0 0.18 0.18 0 0 0.18 0.1799 0 0 0.1798 0.1798 0 0 0.7197 -0.1798 0 0 0.3598 -0.3599 0 0 0.18 -0.7196 0 0 -0.18 -0.3599 0 0 -0.3598 -0.1798 0 0 -0.7197zm22.3096 0.8997l-0.18 0 0 0.1798 -0.1798 0 0 0.18 -0.7197 0 0 -0.18 -0.3598 0 0 -0.3598 -0.18 0 0 -0.7197 0.18 0 0 -0.3598 0.3598 0 0 -0.18 0.5397 0 0 0.18 0.3598 0 0 0.18 0.18 0 0 0.3598 0.18 0 0 0.3597 -0.18 0 0 0.36zm-21.7699 -3.2385l-0.1799 0 0 0.1798 -0.18 0 0 0.18 -0.1798 0 0 0.3597 -0.18 0 0 0.18 -0.18 0 0 0.18 -0.1798 0 0 0.1798 -0.1799 0 0 0.18 -0.3598 0 0 0.18 -0.18 0 0 0.1797 -0.3598 0 0 0.18 -0.18 0 0 0.18 -0.3597 0 0 0.1798 -0.18 0 0 0.18 -0.3598 0 0 0.18 -0.18 0 0 0.1797 -0.1799 0 0 0.5398 -0.1798 0 0 0.36 -0.18 0 0 0.5397 -0.18 0 0 0.3598 -0.1798 0 0 0.5397 -0.18 0 0 0.5398 -0.1799 0 0 0.3598 -0.1798 0 0 0.5397 -0.18 0 0 0.36 -0.18 0 0 0.3597 -0.1798 0 0 0.3598 -0.18 0 0 0.36 -0.1799 0 0 0.1798 -0.1798 0 0 0.18 -1.4395 0 0 0.1799 -0.3598 0 0 0.1798 -0.18 0 0 0.18 -0.1797 0 0 0.18 -0.18 0 0 0.3598 -0.18 0 0 0.8995 0.18 0 0 0.3599 0.18 0 0 0.3598 0.1797 0 0 0.18 0.18 0 0 0.1798 0.18 0 0 0.18 0.1798 0 0 0.1799 0.18 0 0 0.1798 0.18 0 0 0.18 -0.18 0 0 0.3598 -0.18 0 0 0.5397 -0.1798 0 0 0.36 -0.18 0 0 0.3598 -0.18 0 0 0.3597 -0.1797 0 0 0.18 -1.2595 0 0 0.18 -0.5398 0 0 0.1798 -0.18 0 0 0.18 -0.1797 0 0 0.18 -0.18 0 0 0.1797 -0.18 0 0 0.36 -0.1798 0 0 0.5398 -0.18 0 0 0.7195 0.18 0 0 0.36 0.1798 0 0 0.1797 0.18 0 0 0.18 0.18 0 0 0.18 0.1797 0 0 0.1798 0.18 0 0 0.18 0.18 0 0 0.3597 -0.18 0 0 0.5398 -0.18 0 0 0.3598 -0.1797 0 0 0.3599 -0.18 0 0 0.3598 -0.18 0 0 0.18 -0.1798 0 0 0.1798 -0.36 0 0 0.18 -0.3597 0 0 0.1799 -0.3598 0 0 0.1798 -0.18 0 0 0.18 -0.18 0 0 0.18 -0.1797 0 0 0.1798 -0.18 0 0 0.3599 -0.18 0 0 0.5398 -0.1798 0 0 0.7195 0.1798 0 0 0.18 0.18 0 0 0.18 0.18 0 0 0.1798 0.3597 0 0 0.18 0.18 0 0 0.3597 -0.18 0 0 0.7198 -0.18 0 0 0.5397 -0.3597 0 0 -0.18 -0.7198 0 0 0.18 -0.1797 0 0 0.18 -0.18 0 0 0.1798 -0.18 0 0 0.18 -0.1798 0 0 0.18 -0.18 0 0 0.3597 -0.18 0 0 1.2595 0.18 0 0 0.3598 0.18 0 0 0.18 0.1798 0 0 0.1797 0.18 0 0 0.18 0.18 0 0 0.18 0.1797 0 0 0.1798 0.18 0 0 0.5397 -0.18 0 0 1.2595 -0.1797 0 0 0.8996 -0.18 0 0 0.7197 -0.18 0 0 0.7197 -0.1798 0 0 0.5398 -0.18 0 0 0.5397 -0.18 0 0 0.5398 -0.1798 0 0 0.3597 -0.1799 0 0 0.18 -0.3598 0 0 0.1798 -0.18 0 0 0.18 -0.18 0 0 0.18 -0.3597 0 0 0.1798 -0.18 0 0 0.18 -0.1798 0 0 0.1799 -0.18 0 0 0.1798 -0.18 0 0 0.18 -0.1798 0 0 0.18 -0.1799 0 0 0.3598 -0.18 0 0 0.1799 -0.1798 0 0 0.3598 -0.18 0 0 0.3598 -0.18 0 0 0.3599 -0.1798 0 0 0.8996 -0.1799 0 0 1.6192 0.1799 0 0 1.0795 0.1798 0 0 0.5398 0.18 0 0 0.3597 0.18 0 0 0.36 0.1798 0 0 0.3598 0.18 0 0 0.18 0.1799 0 0 0.3597 0.3598 0 0 -1.4392 0.18 0 0 -0.8998 0.1798 0 0 -0.5397 0.18 0 0 -0.5398 0.1799 0 0 -0.3597 0.1798 0 0 -0.3598 0.18 0 0 -0.36 0.18 0 0 -0.3597 0.1798 0 0 -0.3598 0.18 0 0 -0.18 0.1799 0 0 -0.3598 0.1798 0 0 -0.1799 0.18 0 0 -0.18 0.18 0 0 -0.1798 0.1798 0 0 -0.36 0.18 0 0 -0.1798 0.18 0 0 -0.1799 0.1797 0 0 -0.18 0.18 0 0 -0.1798 0.18 0 0 -0.18 0.1798 0 0 -0.18 0.18 0 0 -0.1798 0.18 0 0 -0.1799 0.1797 0 0 -0.18 0.18 0 0 -0.1798 0.3598 0 0 -0.18 0.18 0 0 -0.18 0.3597 0 0 -0.1798 0.18 0 0 -0.18 0.3598 0 0 -0.1799 0.36 0 0 -0.1798 0.5397 0 0 -0.18 0.7195 0 0 -0.18 2.519 0 0 -0.1798 -0.18 0 0 -1.6192 0.18 0 0 -0.8997 0.1798 0 0 -0.1798 -0.1798 0 0 -0.18 0.1798 0 0 -0.8995 0.18 0 0 -0.5398 0.18 0 0 -0.5397 0.1798 0 0 -0.7198 0.1799 0 0 -0.5397 0.18 0 0 -0.7198 0.1798 0 0 -0.5397 0.18 0 0 -0.5398 0.18 0 0 -0.3597 0.1798 0 0 -0.3598 0.1799 0 0 -0.36 0.18 0 0 -0.1797 0.1798 0 0 -0.36 0.18 0 0 -0.3598 0.18 0 0 -0.18 1.0795 0 0 0.18 0.1798 0 0 0.18 0.1799 0 0 0.1798 0.18 0 0 0.36 0.1798 0 0 0.3597 0.18 0 0 1.7993 0.18 0 0 1.6192 0.1798 0 0 1.0795 0.18 0 0 0.5398 0.1799 0 0 0.3597 0.1798 0 0 0.3598 0.18 0 0 0.18 0.18 0 0 0.3598 0.1798 0 0 0.1799 0.18 0 0 0.18 0.1799 0 0 0.1798 0.1798 0 0 0.18 0.18 0 0 0.18 0.18 0 0 0.1798 0.1798 0 0 0.1799 0.18 0 0 0.18 0.1799 0 0 0.1798 0.1798 0 0 0.18 0.36 0 0 0.18 0.1798 0 0 0.1798 0.18 0 0 0.1799 0.3597 0 0 0.18 0.18 0 0 0.1798 0.3598 0 0 0.18 0.36 0 0 0.18 0.3597 0 0 0.1798 0.3598 0 0 0.1799 0.36 0 0 0.18 0.3597 0 0 0.1798 0.3598 0 0 0.18 0.36 0 0 0.18 0.3597 0 0 0.1798 0.18 0 0 0.18 0.3598 0 0 0.1799 0.18 0 0 0.1798 0.1797 0 0 0.18 0.18 0 0 0.18 0.18 0 0 0.3598 0.1798 0 0 0.1799 0.18 0 0 0.3598 0.18 0 0 0.5398 0.1797 0 0 1.6192 -0.1797 0 0 0.5398 -0.18 0 0 0.5397 -0.18 0 0 0.3598 -0.1798 0 0 0.36 -0.18 0 0 0.1797 -0.18 0 0 0.18 -0.1797 0 0 0.18 -0.18 0 0 0.1798 -0.18 0 0 0.18 -0.1798 0 0 0.18 -0.36 0 0 0.1797 -0.5397 0 0 0.18 -1.6193 0 0 0.8995 0.18 0 0 1.2595 -0.18 0 0 1.979 -0.1797 0 0 1.2595 -0.18 0 0 1.2595 -0.18 0 0 3.5983 0.18 0 0 0.5398 0.18 0 0 0.5397 0.1797 0 0 0.3598 0.18 0 0 0.3597 0.18 0 0 0.18 0.1798 0 0 0.18 0.18 0 0 0.1798 0.18 0 0 0.18 0.1797 0 0 0.18 0.18 0 0 0.1797 0.3598 0 0 0.18 0.36 0 0 0.18 0.3597 0 0 0.1798 0.5398 0 0 0.18 0.5397 0 0 0.18 0.5398 0 0 0.1797 0.7197 0 0 0.18 5.2175 0 0 -0.18 0.8996 0 0 -0.1797 0.7197 0 0 -0.18 0.5398 0 0 -0.18 0.3597 0 0 -0.1798 0.3598 0 0 -0.18 0.18 0 0 -0.18 0.3597 0 0 -0.1797 0.18 0 0 -0.18 0.18 0 0 -0.18 0.1798 0 0 -0.1798 0.18 0 0 -0.18 0.18 0 0 -0.3597 0.1797 0 0 -0.18 0.18 0 0 -0.5398 0.18 0 0 -0.3597 0.1798 0 0 -0.7198 0.18 0 0 -3.4183 -0.18 0 0 -1.4394 -0.1798 0 0 -1.0796 -0.18 0 0 -1.4392 -0.18 0 0 -2.6988 -1.4392 0 0 -0.18 -0.5398 0 0 -0.1797 -0.3597 0 0 -0.18 -0.18 0 0 -0.18 -0.3598 0 0 -0.1798 -0.18 0 0 -0.18 -0.1798 0 0 -0.3597 -0.1799 0 0 -0.36 -0.18 0 0 -0.3598 -0.1798 0 0 -0.3597 -0.18 0 0 -0.5398 -0.18 0 0 -1.9792 0.18 0 0 -0.3598 0.18 0 0 -0.3598 0.1798 0 0 -0.3599 0.18 0 0 -0.1798 0.1799 0 0 -0.18 0.1798 0 0 -0.18 0.18 0 0 -0.1798 0.18 0 0 -0.1799 0.1798 0 0 -0.18 0.3599 0 0 -0.1798 0.1798 0 0 -0.18 0.3598 0 0 -0.18 0.36 0 0 -0.1798 0.5397 0 0 -0.18 0.3598 0 0 -0.1799 0.3597 0 0 -0.1798 0.36 0 0 -0.18 0.3598 0 0 -0.18 0.18 0 0 -0.1798 0.3597 0 0 -0.18 0.18 0 0 -0.1799 0.3598 0 0 -0.1798 0.18 0 0 -0.18 0.3597 0 0 -0.18 0.18 0 0 -0.1798 0.1798 0 0 -0.18 0.18 0 0 -0.1799 0.18 0 0 -0.1798 0.1797 0 0 -0.18 0.18 0 0 -0.18 0.18 0 0 -0.1798 0.1798 0 0 -0.18 0.18 0 0 -0.3597 0.18 0 0 -0.18 0.1798 0 0 -0.3598 0.1799 0 0 -0.36 0.18 0 0 -0.3597 0.1798 0 0 -0.5398 0.18 0 0 -1.0795 0.18 0 0 -2.339 0.1798 0 0 -0.8995 0.1799 0 0 -0.3597 0.18 0 0 -0.36 0.1798 0 0 -0.1798 0.18 0 0 -0.18 0.18 0 0 -0.18 0.8995 0 0 0.18 0.18 0 0 0.18 0.1798 0 0 0.1798 0.1799 0 0 0.36 0.18 0 0 0.3597 0.1798 0 0 0.3598 0.18 0 0 0.36 0.18 0 0 0.3597 0.1798 0 0 0.3598 0.18 0 0 0.5397 0.1799 0 0 0.7198 0.1798 0 0 0.7197 0.18 0 0 0.5398 0.18 0 0 0.5397 0.1798 0 0 0.7195 0.18 0 0 1.4395 0.1799 0 0 2.5188 0.1798 0 0 -0.18 2.159 0 0 0.18 0.8998 0 0 0.18 0.3597 0 0 0.1798 0.3598 0 0 0.1799 0.36 0 0 0.18 0.3597 0 0 0.1798 0.18 0 0 0.18 0.3598 0 0 0.18 0.18 0 0 0.1798 0.1797 0 0 0.18 0.36 0 0 0.1799 0.1798 0 0 0.1798 0.18 0 0 0.18 0.18 0 0 0.18 0.1797 0 0 0.1798 0.18 0 0 0.18 0.18 0 0 0.3597 0.1798 0 0 0.18 0.18 0 0 0.18 0.18 0 0 0.1798 0.1797 0 0 0.3599 0.18 0 0 0.1798 0.18 0 0 0.36 0.1798 0 0 0.1798 0.18 0 0 0.3599 0.18 0 0 0.3598 0.1797 0 0 0.3598 0.18 0 0 0.36 0.18 0 0 0.5397 0.1798 0 0 0.3598 0.18 0 0 0.7197 0.18 0 0 1.2593 0.1798 0 0 0.7197 0.1799 0 0 -0.18 0.18 0 0 -0.1797 0.1798 0 0 -0.18 0.18 0 0 -0.3598 0.18 0 0 -0.36 0.1798 0 0 -0.5397 0.1799 0 0 -0.5398 0.18 0 0 -1.2592 0.1798 0 0 -1.0796 -0.1798 0 0 -0.8997 -0.18 0 0 -0.5397 -0.1799 0 0 -0.3598 -0.1798 0 0 -0.3598 -0.18 0 0 -0.1799 -0.18 0 0 -0.18 -0.1798 0 0 -0.3598 -0.18 0 0 -0.18 -0.1799 0 0 -0.1798 -0.1798 0 0 -0.1799 -0.18 0 0 -0.18 -0.3598 0 0 -0.1798 -0.18 0 0 -0.18 -0.18 0 0 -0.18 -0.1797 0 0 -0.1798 -0.36 0 0 -0.18 -0.1798 0 0 -0.3597 -0.18 0 0 -0.36 -0.18 0 0 -0.7195 -0.1797 0 0 -0.5398 -0.18 0 0 -0.5397 -0.18 0 0 -0.7198 -0.1798 0 0 -0.8995 -0.18 0 0 -1.0795 -0.18 0 0 -0.8997 0.18 0 0 -0.1798 0.18 0 0 -0.18 0.1798 0 0 -0.18 0.18 0 0 -0.1797 0.18 0 0 -0.36 0.1797 0 0 -0.1798 0.18 0 0 -1.0795 -0.18 0 0 -0.5397 -0.1797 0 0 -0.18 -0.18 0 0 -0.18 -0.18 0 0 -0.1798 -0.1798 0 0 -0.18 -0.18 0 0 -0.18 -0.7197 0 0 0.18 -0.3598 0 0 -0.5397 -0.18 0 0 -0.5398 -0.1797 0 0 -0.5397 0.1797 0 0 -0.18 0.36 0 0 -0.1798 0.1798 0 0 -0.18 0.18 0 0 -0.18 0.18 0 0 -0.5397 -0.18 0 0 -0.5398 -0.18 0 0 -0.3597 -0.1798 0 0 -0.3598 -0.18 0 0 -0.18 -0.18 0 0 -0.18 -0.1797 0 0 -0.1798 -0.36 0 0 -0.1799 -0.3598 0 0 -0.18 -0.3597 0 0 -0.1798 -0.18 0 0 -0.18 -0.18 0 0 -0.18 -0.1798 0 0 -0.5397 -0.18 0 0 -0.3598 -0.18 0 0 -0.5398 -0.1797 0 0 -0.3597 0.1797 0 0 -0.18 0.18 0 0 -0.1798 0.18 0 0 -0.18 0.1798 0 0 -0.18 0.18 0 0 -0.1797 0.18 0 0 -0.36 0.1797 0 0 -0.5398 -0.1797 0 0 -0.7195 -0.18 0 0 -0.36 -0.18 0 0 -0.1797 -0.1798 0 0 -0.18 -0.18 0 0 -0.18 -0.18 0 0 -0.1798 -0.5397 0 0 -0.18 -1.4393 0 0 -0.3597 -0.18 0 0 -0.5398 -0.1798 0 0 -0.36 -0.1799 0 0 -0.3597 -0.18 0 0 -0.3598 -0.1798 0 0 -0.36 0.1798 0 0 -0.1798 0.18 0 0 -0.1799 0.1799 0 0 -0.18 0.1798 0 0 -0.1798 0.18 0 0 -0.36 0.18 0 0 -0.1798 0.1798 0 0 -0.3599 0.18 0 0 -0.7196 -0.18 0 0 -0.3599 -0.1798 0 0 -0.3598 -0.18 0 0 -0.18 -0.18 0 0 -0.1798 -0.5397 0 0 -0.1799 -1.2593 0 0 -0.18 -0.18 0 0 -0.1798 -0.18 0 0 -0.36 -0.1798 0 0 -0.1798 -0.1799 0 0 -0.3599 -0.18 0 0 -0.5398 -0.1798 0 0 -0.3598 -0.18 0 0 -0.5397 -0.18 0 0 -0.5398 -0.1798 0 0 -0.3597 -0.18 0 0 -0.5398 -0.1799 0 0 -0.5397 -0.1798 0 0 -0.36 -0.18 0 0 -0.3598 -0.18 0 0 -0.3597 -0.1798 0 0 -0.18 -0.3599 0 0 -0.18 -0.1798 0 0 -0.1798 -0.36 0 0 -0.18 -0.1798 0 0 -0.18 -0.3599 0 0 -0.1797 -0.1798 0 0 -0.18 -0.36 0 0 -0.18 -0.1798 0 0 -0.1798 -0.18 0 0 -0.18 -0.1799 0 0 -0.18 -0.1798 0 0 -0.1797 -0.18 0 0 -0.36 -0.18 0 0 -0.1798 -0.1798 0 0 -0.18 -0.7197 0 0 0.18 -0.18 0 0 0.1798 -0.3598 0 0 0.18 -0.18 0 0 0.18 -0.1797 0 0 0.1797 -0.18 0 0 0.18 -0.3598 0 0 0.18 -0.18 0 0 0.1798 -0.3597 0 0 0.18 -0.5398 0 0 0.18 -0.7197 0 0 0.1797 -0.5398 0 0 0.18 -0.5397 0 0 0.18 -0.5398 0 0 0.1798 -0.5397 0 0 0.18 -0.3598 0 0 0.18 -0.3598 0 0 0.1797 -0.3599 0 0 0.18 -0.1798 0 0 0.18 -0.36 0 0 0.1798 -0.1798 0 0 0.18 -0.18 0 0 0.18 -0.1799 0 0 0.1797 -0.1798 0 0 0.18 -0.18 0 0 0.18 -0.18 0 0 0.3598 -0.1798 0 0 0.18 -0.18 0 0 0.3597 -0.1799 0 0 0.5398 -0.1798 0 0 0.5397 -0.18 0 0 0.3598 -0.18 0 0 0.36 -0.5397 0 0 0.1798 -0.8996 0 0 -0.3598 -0.1799 0 0 -0.5398 -0.1798 0 0 -0.3597 -0.18 0 0 -0.36 -0.18 0 0 -0.3598 -0.1798 0 0 -0.3597 -0.18 0 0 -0.18 -0.18 0 0 -0.3598 -0.1797 0 0 -0.18 -0.18 0 0 -0.18 -0.18 0 0 -0.1797 -0.1798 0 0 -0.18 -0.18 0 0 -0.18 -0.18 0 0 -0.1798 -0.3597 0 0 -0.18 -0.18 0 0 -0.18 -0.3598 0 0 -0.1797 -0.3597 0 0 -0.18 -0.5398 0 0 -0.18 -0.36 0 0 -0.1798 -0.5397 0 0 -0.18 -0.5398 0 0 -0.18 -0.7195 0 0 -0.1797 -0.5397 0 0 -0.18 -0.5398 0 0 -0.18 -0.36 0 0 -0.1798 -0.1797 0 0 -0.18 -0.36 0 0 -0.18 -0.1798 0 0 -0.1797 -0.18 0 0 -0.18 -0.3598 0 0 -0.18 -0.1799 0 0 -0.1798 -0.18 0 0 -0.18 -0.7196 0 0 0.18z"/>
   <path id="_561261832" class="fil0" d="M12.3442 71.6783l-0.18 0 0 0.18 -0.5397 0 0 -0.18 -0.1798 0 0 -0.7198 0.1798 0 0 -0.1797 0.5397 0 0 0.1797 0.18 0 0 0.18 0.18 0 0 0.3598 -0.18 0 0 0.18zm3.7783 -1.2595l0.8995 0 0 0.8997 -0.8995 0 0 -0.8997zm5.0378 -1.4393l0.1797 0 0 -0.18 0.7198 0 0 0.8998 -0.7198 0 0 -0.18 -0.1797 0 0 -0.5398zm-13.6738 0l0.18 0 0 -0.18 0.7195 0 0 0.18 0.18 0 0 0.5398 -0.18 0 0 0.18 -0.7195 0 0 -0.18 -0.18 0 0 -0.5398zm12.774 -21.2301l-0.3597 0 0 0.1798 -0.3598 0 0 0.18 -0.18 0 0 0.18 -0.18 0 0 0.1797 -0.1798 0 0 0.18 -0.1799 0 0 0.18 -0.18 0 0 0.1798 -0.1798 0 0 0.18 -0.18 0 0 0.18 -0.18 0 0 0.1797 -0.1798 0 0 0.18 -0.1799 0 0 0.18 -0.18 0 0 0.1798 -0.1798 0 0 0.18 -0.18 0 0 0.3598 -0.18 0 0 0.1799 -0.1798 0 0 0.18 -0.18 0 0 0.1798 -0.1799 0 0 0.36 -0.1798 0 0 0.1798 -0.18 0 0 0.1799 -0.18 0 0 0.18 -0.1798 0 0 0.3598 -0.18 0 0 0.18 -0.1799 0 0 0.1798 -0.1798 0 0 0.1799 -0.18 0 0 0.18 -0.18 0 0 0.1798 -0.1798 0 0 0.18 -0.18 0 0 0.18 -0.1799 0 0 0.1798 -0.3598 0 0 0.18 -0.18 0 0 0.1799 -0.3598 0 0 0.1798 -0.5397 0 0 0.18 -0.7198 0 0 0.18 -2.159 0 0 0.8995 0.18 0 0 1.0795 0.18 0 0 0.8995 0.1798 0 0 1.2595 -0.1798 0 0 0.8995 -0.18 0 0 0.8995 -0.18 0 0 0.7198 -0.1797 0 0 0.5397 -0.18 0 0 0.5398 -0.18 0 0 0.3598 -0.1798 0 0 0.3599 -0.18 0 0 0.3598 -0.18 0 0 0.3598 -0.1797 0 0 0.3599 -0.18 0 0 0.1798 -0.18 0 0 0.36 -0.1798 0 0 0.3597 -0.18 0 0 0.18 -0.18 0 0 0.3598 -0.1797 0 0 0.3598 -0.18 0 0 0.3599 -0.18 0 0 0.3598 -0.1798 0 0 0.3598 -0.18 0 0 0.3599 -0.18 0 0 0.3598 -0.1797 0 0 0.3598 -0.18 0 0 0.5397 -0.18 0 0 1.4395 0.18 0 0 0.3598 0.18 0 0 0.3597 0.1797 0 0 0.18 0.18 0 0 0.18 0.18 0 0 0.1798 0.1798 0 0 0.18 0.18 0 0 0.18 0.3597 0 0 0.1797 0.36 0 0 -0.1797 0.3598 0 0 -0.18 0.18 0 0 -0.18 0.1797 0 0 -0.1798 0.18 0 0 -0.36 0.18 0 0 -0.3597 0.1798 0 0 -0.3598 0.18 0 0 -0.36 0.18 0 0 -0.5397 0.1797 0 0 -0.3598 0.18 0 0 -0.7197 0.18 0 0 -0.5398 0.1798 0 0 -0.7195 0.18 0 0 -0.7197 0.18 0 0 -0.3598 0.1797 0 0 -0.18 0.5398 0 0 1.2595 -0.1798 0 0 0.5397 -0.18 0 0 0.5398 -0.18 0 0 0.5397 -0.1797 0 0 0.5398 -0.18 0 0 0.3598 -0.18 0 0 0.5397 -0.1798 0 0 0.3598 -0.18 0 0 0.5397 -0.18 0 0 0.5398 -0.1797 0 0 1.4395 0.1797 0 0 0.1797 0.36 0 0 0.18 0.5398 0 0 0.18 0.7195 0 0 0.1798 1.4395 0 0 -0.3598 0.1798 0 0 -0.5397 0.1799 0 0 -0.8995 0.18 0 0 -1.2595 0.1798 0 0 -1.2595 0.18 0 0 -2.8786 0.18 0 0 0.1798 0.3597 0 0 0.36 0.18 0 0 0.3598 0.1798 0 0 2.159 0.18 0 0 3.5982 0.18 0 0 0.5398 0.1798 0 0 0.18 0.1799 0 0 -0.18 1.2595 0 0 -0.1798 0.8996 0 0 -0.18 0.7197 0 0 -0.18 0.1798 0 0 -1.799 -0.1798 0 0 -0.7197 -0.18 0 0 -0.7198 -0.18 0 0 -0.5397 -0.1798 0 0 -0.7196 -0.1799 0 0 -1.4394 0.1799 0 0 -0.5398 0.1798 0 0 -0.1798 0.18 0 0 0.1798 0.18 0 0 0.7198 0.1798 0 0 0.7197 0.18 0 0 0.5397 0.1799 0 0 0.5398 0.1798 0 0 0.3598 0.18 0 0 0.5397 0.18 0 0 0.3598 0.1798 0 0 0.36 0.18 0 0 0.3597 0.1799 0 0 0.18 0.1798 0 0 0.3598 0.18 0 0 0.18 0.3598 0 0 0.1797 0.7197 0 0 -0.1797 0.3598 0 0 -0.18 0.36 0 0 -0.18 0.1797 0 0 -0.1798 0.18 0 0 -0.18 0.18 0 0 -0.18 0.1798 0 0 -0.1797 0.18 0 0 -0.18 0.18 0 0 -0.3598 0.1797 0 0 -0.18 0.18 0 0 -0.5397 0.18 0 0 -0.7198 0.1798 0 0 -0.3597 -0.1798 0 0 -0.5398 -0.18 0 0 -0.3598 -0.18 0 0 -0.3599 -0.1797 0 0 -0.1798 -0.18 0 0 -0.36 -0.18 0 0 -0.1798 -0.1798 0 0 -0.1799 -0.18 0 0 -0.18 -0.18 0 0 -0.3598 -0.1797 0 0 -0.18 -0.18 0 0 -0.1798 -0.18 0 0 -0.18 -0.1798 0 0 -0.3597 -0.18 0 0 -0.18 -0.18 0 0 -0.18 -0.1797 0 0 -0.1798 -0.18 0 0 -0.3599 -0.18 0 0 -0.3598 -0.1798 0 0 -0.3598 -0.18 0 0 -0.3599 -0.18 0 0 -0.7196 -0.1798 0 0 -2.8787 -0.1799 0 0 -1.0795 0.1799 0 0 -1.4393 0.1798 0 0 -0.7197 0.18 0 0 -0.5398 0.18 0 0 -1.6192 0.1798 0 0 -2.159 0.18 0 0 -3.0586 0.18 0 0 -0.8995 -0.18 0 0 -0.18 -0.7198 0 0 0.18z"/>
   <path id="_561262048" class="fil0" d="M46.5284 71.1385l0.18 0 0 -0.18 0.1799 0 0 -0.1797 0.5398 0 0 0.1797 0.1798 0 0 0.7198 -0.1798 0 0 0.18 -0.5398 0 0 -0.18 -0.1799 0 0 -0.18 -0.18 0 0 -0.3598zm-4.4978 -0.7197l0.8995 0 0 0.8997 -0.8995 0 0 -0.8997zm-5.0378 -1.6193l0.8995 0 0 0.8998 -0.8995 0 0 -0.8998zm13.4938 0.18l0.18 0 0 -0.18 0.7195 0 0 0.18 0.18 0 0 0.5398 -0.18 0 0 0.18 -0.7195 0 0 -0.18 -0.18 0 0 -0.5398zm-12.0545 -18.3515l0.18 0 0 1.6192 0.18 0 0 1.4395 0.1797 0 0 1.6192 0.18 0 0 1.4393 0.18 0 0 5.2175 -0.18 0 0 0.8996 -0.18 0 0 0.3599 -0.1797 0 0 0.3598 -0.18 0 0 0.3598 -0.18 0 0 0.1799 -0.1798 0 0 0.3598 -0.18 0 0 0.18 -0.18 0 0 0.18 -0.1797 0 0 0.1798 -0.18 0 0 0.3599 -0.18 0 0 0.1798 -0.1798 0 0 0.18 -0.18 0 0 0.18 -0.18 0 0 0.3598 -0.1797 0 0 0.1799 -0.18 0 0 0.1798 -0.18 0 0 0.36 -0.1798 0 0 0.1798 -0.18 0 0 0.3599 -0.18 0 0 0.1798 -0.1797 0 0 0.5398 -0.18 0 0 0.7197 0.18 0 0 0.7198 0.1797 0 0 0.3597 0.18 0 0 0.3598 0.18 0 0 0.18 0.1798 0 0 0.18 0.18 0 0 0.1797 0.18 0 0 0.18 0.1797 0 0 0.18 0.18 0 0 0.1798 0.18 0 0 0.18 0.3598 0 0 0.18 0.18 0 0 0.1797 0.7195 0 0 -0.1797 0.18 0 0 -0.18 0.18 0 0 -0.18 0.1797 0 0 -0.1798 0.18 0 0 -0.36 0.18 0 0 -0.3597 0.1798 0 0 -0.3598 0.18 0 0 -0.36 0.18 0 0 -0.5397 0.1797 0 0 -0.5398 0.18 0 0 -0.5397 0.18 0 0 -0.5398 0.1798 0 0 -0.7195 0.18 0 0 -0.5398 0.18 0 0 0.1798 0.1798 0 0 0.18 0.1799 0 0 2.159 -0.1799 0 0 0.7198 -0.1798 0 0 0.5397 -0.18 0 0 0.7195 -0.18 0 0 1.0795 -0.1798 0 0 0.8998 0.1798 0 0 0.1797 0.36 0 0 0.18 0.7195 0 0 0.18 0.8997 0 0 0.1798 1.2593 0 0 -0.1798 0.18 0 0 -0.7197 0.18 0 0 -4.6778 0.1798 0 0 -0.8997 0.1799 0 0 -0.3598 0.18 0 0 -0.18 0.1798 0 0 -0.1798 0.18 0 0 -0.1799 0.18 0 0 3.7782 0.1798 0 0 1.0795 0.18 0 0 1.0795 0.1799 0 0 0.7198 0.1798 0 0 0.5397 0.18 0 0 0.1798 0.18 0 0 0.18 0.1798 0 0 -0.18 1.2595 0 0 -0.1798 0.7197 0 0 -0.18 0.5398 0 0 -0.18 0.1797 0 0 -0.3597 0.18 0 0 -1.0795 -0.18 0 0 -0.5398 -0.1797 0 0 -0.3597 -0.18 0 0 -0.5398 -0.18 0 0 -0.5397 -0.1798 0 0 -0.36 -0.18 0 0 -0.5398 -0.18 0 0 -0.5397 -0.1798 0 0 -0.3598 -0.1799 0 0 -0.7197 -0.18 0 0 -0.7196 -0.1798 0 0 -0.5397 0.1798 0 0 -0.18 0.5397 0 0 0.3598 0.18 0 0 0.5397 0.18 0 0 0.7198 0.1798 0 0 0.7197 0.18 0 0 0.5397 0.18 0 0 0.5398 0.1797 0 0 0.5398 0.18 0 0 0.3597 0.18 0 0 0.3598 0.1798 0 0 0.36 0.18 0 0 0.3597 0.18 0 0 0.18 0.1797 0 0 0.1798 0.18 0 0 0.18 0.18 0 0 0.18 0.3598 0 0 0.1797 0.18 0 0 0.18 0.1797 0 0 -0.18 0.18 0 0 -0.1797 0.18 0 0 -0.18 0.3598 0 0 -0.18 0.18 0 0 -0.1798 0.1797 0 0 -0.18 0.18 0 0 -0.18 0.18 0 0 -0.3597 0.1798 0 0 -0.3598 0.18 0 0 -1.2595 -0.18 0 0 -0.5397 -0.1798 0 0 -0.5398 -0.18 0 0 -0.3598 -0.18 0 0 -0.3599 -0.1797 0 0 -0.3598 -0.18 0 0 -0.3598 -0.18 0 0 -0.3599 -0.1798 0 0 -0.3598 -0.18 0 0 -0.18 -0.18 0 0 -0.3598 -0.1797 0 0 -0.3597 -0.18 0 0 -0.18 -0.18 0 0 -0.3598 -0.1798 0 0 -0.3599 -0.18 0 0 -0.3598 -0.18 0 0 -0.3598 -0.1797 0 0 -0.3599 -0.18 0 0 -0.3598 -0.18 0 0 -0.3598 -0.1798 0 0 -0.7197 -0.18 0 0 -0.7198 -0.18 0 0 -0.7195 -0.1797 0 0 -0.8997 -0.18 0 0 -1.6193 0.18 0 0 -0.8995 0.1797 0 0 -1.0795 0.18 0 0 -0.7195 -2.159 0 0 -0.18 -0.7197 0 0 -0.18 -0.5398 0 0 -0.1798 -0.3597 0 0 -0.1799 -0.3598 0 0 -0.18 -0.18 0 0 -0.1798 -0.18 0 0 -0.18 -0.1798 0 0 -0.18 -0.3599 0 0 -0.3598 -0.1798 0 0 -0.1799 -0.18 0 0 -0.1798 -0.18 0 0 -0.18 -0.1798 0 0 -0.18 -0.18 0 0 -0.1798 -0.1799 0 0 -0.3599 -0.1798 0 0 -0.1798 -0.18 0 0 -0.18 -0.18 0 0 -0.18 -0.1798 0 0 -0.3598 -0.18 0 0 -0.1799 -0.1799 0 0 -0.1798 -0.1798 0 0 -0.18 -0.18 0 0 -0.3598 -0.18 0 0 -0.18 -0.1798 0 0 -0.18 -0.18 0 0 -0.1797 -0.1799 0 0 -0.18 -0.1798 0 0 -0.18 -0.18 0 0 -0.1798 -0.18 0 0 -0.18 -0.1798 0 0 -0.18 -0.18 0 0 -0.1797 -0.18 0 0 -0.18 -0.3597 0 0 -0.18 -0.18 0 0 -0.1798 -0.5398 0 0 -0.18 -0.5397 0 0 3.0586z"/>
   <polygon id="_561262384" class="fil0" points="72.2567,58.7242 72.0767,58.7242 72.0767,60.8832 134.868,60.8832 134.868,58.7242 134.688,58.7242 134.688,58.5442 72.2567,58.5442 "/>
   <polygon id="_561261064" class="fil0" points="81.9722,5.6488 80.8927,5.6488 80.8927,5.8288 80.173,5.8288 80.173,6.0085 79.4532,6.0085 79.4532,6.1885 78.9135,6.1885 78.9135,6.3685 78.5537,6.3685 78.5537,6.5483 78.1939,6.5483 78.1939,6.7283 77.6542,6.7283 77.6542,6.9083 77.4742,6.9083 77.4742,7.0881 77.1144,7.0881 77.1144,7.268 76.7545,7.268 76.7545,7.448 76.5747,7.448 76.5747,7.6278 76.2147,7.6278 76.2147,7.8078 76.0349,7.8078 76.0349,7.9878 75.8549,7.9878 75.8549,8.1676 75.675,8.1676 75.675,8.3475 75.3152,8.3475 75.3152,8.5275 75.1352,8.5275 75.1352,8.7073 74.9554,8.7073 74.9554,8.8873 74.7754,8.8873 74.7754,9.0673 74.5955,9.0673 74.5955,9.427 74.4157,9.427 74.4157,9.607 74.2357,9.607 74.2357,9.7868 74.0557,9.7868 74.0557,9.9668 73.8759,9.9668 73.8759,10.3266 73.6959,10.3266 73.6959,10.5066 73.516,10.5066 73.516,10.8663 73.3362,10.8663 73.3362,11.2263 73.1562,11.2263 73.1562,11.4061 72.9762,11.4061 72.9762,11.766 72.7964,11.766 72.7964,12.3058 72.6164,12.3058 72.6164,12.6656 72.4364,12.6656 72.4364,13.3853 72.2567,13.3853 72.2567,13.925 72.0767,13.925 72.0767,14.8246 71.8967,14.8246 71.8967,18.9626 72.0767,18.9626 72.0767,19.8623 72.2567,19.8623 72.2567,20.5818 72.4364,20.5818 72.4364,21.1216 72.6164,21.1216 72.6164,21.6613 72.7964,21.6613 72.7964,22.0211 72.9762,22.0211 72.9762,22.3811 73.1562,22.3811 73.1562,22.7409 73.3362,22.7409 73.3362,23.1006 73.516,23.1006 73.516,23.2806 73.6959,23.2806 73.6959,23.6404 73.8759,23.6404 73.8759,23.8204 74.0557,23.8204 74.0557,24.0003 74.2357,24.0003 74.2357,24.3601 74.4157,24.3601 74.4157,24.5401 74.5955,24.5401 74.5955,24.7199 74.7754,24.7199 74.7754,24.8999 74.9554,24.8999 74.9554,25.0798 75.1352,25.0798 75.1352,25.2596 75.3152,25.2596 75.3152,25.4396 75.4952,25.4396 75.4952,25.6196 75.675,25.6196 75.675,25.7994 75.8549,25.7994 75.8549,25.9794 76.2147,25.9794 76.2147,26.1594 76.3947,26.1594 76.3947,26.3391 76.7545,26.3391 76.7545,26.5191 76.9345,26.5191 76.9345,26.6991 77.2942,26.6991 77.2942,26.8789 77.4742,26.8789 77.4742,27.0589 77.834,27.0589 77.834,27.2389 78.1939,27.2389 78.1939,27.4186 78.7337,27.4186 78.7337,27.5986 79.0935,27.5986 79.0935,27.7786 79.6332,27.7786 79.6332,27.9584 80.173,27.9584 80.173,28.1384 80.8927,28.1384 80.8927,28.3184 81.6122,28.3184 81.6122,28.4981 82.8717,28.4981 82.8717,28.6781 88.809,28.6781 88.809,28.4981 89.8885,28.4981 89.8885,28.3184 90.6082,28.3184 90.6082,28.1384 91.148,28.1384 91.148,27.9584 91.5077,27.9584 91.5077,27.7786 91.6877,27.7786 91.6877,27.4186 91.8675,27.4186 91.8675,26.8789 92.0475,26.8789 92.0475,25.9794 92.2275,25.9794 92.2275,24.8999 92.4073,24.8999 92.4073,23.4606 92.5873,23.4606 92.5873,23.1006 92.4073,23.1006 92.4073,22.7409 91.8675,22.7409 91.8675,23.1006 91.6877,23.1006 91.6877,23.8204 91.5077,23.8204 91.5077,24.1801 91.3278,24.1801 91.3278,24.5401 91.148,24.5401 91.148,24.8999 90.968,24.8999 90.968,25.0798 90.788,25.0798 90.788,25.2596 90.6082,25.2596 90.6082,25.4396 90.4282,25.4396 90.4282,25.6196 90.2483,25.6196 90.2483,25.7994 90.0685,25.7994 90.0685,25.9794 89.8885,25.9794 89.8885,26.1594 89.5287,26.1594 89.5287,26.3391 88.989,26.3391 88.989,26.5191 88.4492,26.5191 88.4492,26.6991 87.3697,26.6991 87.3697,26.8789 84.1312,26.8789 84.1312,26.6991 83.4115,26.6991 83.4115,26.5191 82.6917,26.5191 82.6917,26.3391 82.332,26.3391 82.332,26.1594 81.7922,26.1594 81.7922,25.9794 81.4325,25.9794 81.4325,25.7994 81.2525,25.7994 81.2525,25.6196 80.8927,25.6196 80.8927,25.4396 80.5327,25.4396 80.5327,25.2596 80.3529,25.2596 80.3529,25.0798 79.993,25.0798 79.993,24.8999 79.8132,24.8999 79.8132,24.7199 79.6332,24.7199 79.6332,24.5401 79.4532,24.5401 79.4532,24.3601 79.2734,24.3601 79.2734,24.1801 79.0935,24.1801 79.0935,24.0003 78.9135,24.0003 78.9135,23.8204 78.7337,23.8204 78.7337,23.6404 78.5537,23.6404 78.5537,23.4606 78.3737,23.4606 78.3737,23.2806 78.1939,23.2806 78.1939,22.9208 78.014,22.9208 78.014,22.7409 77.834,22.7409 77.834,22.3811 77.6542,22.3811 77.6542,22.2011 77.4742,22.2011 77.4742,21.8413 77.2942,21.8413 77.2942,21.4814 77.1144,21.4814 77.1144,21.1216 76.9345,21.1216 76.9345,20.5818 76.7545,20.5818 76.7545,20.0421 76.5747,20.0421 76.5747,19.5023 76.3947,19.5023 76.3947,18.6028 76.2147,18.6028 76.2147,16.8036 76.0349,16.8036 76.0349,16.0841 76.2147,16.0841 76.2147,13.7451 76.3947,13.7451 76.3947,12.8455 76.5747,12.8455 76.5747,12.3058 76.7545,12.3058 76.7545,11.766 76.9345,11.766 76.9345,11.2263 77.1144,11.2263 77.1144,10.8663 77.2942,10.8663 77.2942,10.5066 77.4742,10.5066 77.4742,10.3266 77.6542,10.3266 77.6542,9.9668 77.834,9.9668 77.834,9.7868 78.014,9.7868 78.014,9.607 78.1939,9.607 78.1939,9.2471 78.3737,9.2471 78.3737,9.0673 78.5537,9.0673 78.5537,8.8873 78.7337,8.8873 78.7337,8.7073 79.0935,8.7073 79.0935,8.5275 79.2734,8.5275 79.2734,8.3475 79.4532,8.3475 79.4532,8.1676 79.8132,8.1676 79.8132,7.9878 80.173,7.9878 80.173,7.8078 80.3529,7.8078 80.3529,7.6278 80.8927,7.6278 80.8927,7.448 81.4325,7.448 81.4325,7.268 82.152,7.268 82.152,7.0881 84.1312,7.0881 84.1312,6.9083 84.491,6.9083 84.491,7.0881 86.65,7.0881 86.65,7.268 87.3697,7.268 87.3697,7.448 88.0892,7.448 88.0892,7.6278 88.629,7.6278 88.629,7.8078 88.989,7.8078 88.989,7.9878 89.3487,7.9878 89.3487,8.1676 89.7085,8.1676 89.7085,8.3475 89.8885,8.3475 89.8885,8.5275 90.0685,8.5275 90.0685,8.7073 90.2483,8.7073 90.2483,8.8873 90.4282,8.8873 90.4282,9.0673 90.6082,9.0673 90.6082,9.2471 90.788,9.2471 90.788,9.607 90.968,9.607 90.968,9.9668 91.148,9.9668 91.148,10.3266 91.3278,10.3266 91.3278,11.4061 91.5077,11.4061 91.5077,12.1258 92.0475,12.1258 92.0475,11.9458 92.2275,11.9458 92.2275,8.1676 92.4073,8.1676 92.4073,6.3685 92.2275,6.3685 92.2275,6.1885 91.3278,6.1885 91.3278,6.0085 90.4282,6.0085 90.4282,5.8288 89.3487,5.8288 89.3487,5.6488 87.9095,5.6488 87.9095,5.4688 81.9722,5.4688 "/>
   <polygon id="_561261712" class="fil0" points="105.542,5.6488 104.462,5.6488 104.462,5.8288 103.742,5.8288 103.742,6.0085 103.023,6.0085 103.023,6.1885 102.483,6.1885 102.483,6.3685 102.123,6.3685 102.123,6.5483 101.763,6.5483 101.763,6.7283 101.224,6.7283 101.224,6.9083 101.044,6.9083 101.044,7.0881 100.684,7.0881 100.684,7.268 100.324,7.268 100.324,7.448 100.144,7.448 100.144,7.6278 99.7837,7.6278 99.7837,7.8078 99.6037,7.8078 99.6037,7.9878 99.4237,7.9878 99.4237,8.1676 99.2447,8.1676 99.2447,8.3475 98.8847,8.3475 98.8847,8.5275 98.7047,8.5275 98.7047,8.7073 98.5247,8.7073 98.5247,8.8873 98.3447,8.8873 98.3447,9.0673 98.1647,9.0673 98.1647,9.427 97.9847,9.427 97.9847,9.607 97.8048,9.607 97.8048,9.7868 97.625,9.7868 97.625,9.9668 97.445,9.9668 97.445,10.3266 97.265,10.3266 97.265,10.5066 97.0853,10.5066 97.0853,10.8663 96.9053,10.8663 96.9053,11.2263 96.7253,11.2263 96.7253,11.4061 96.5455,11.4061 96.5455,11.766 96.3655,11.766 96.3655,12.3058 96.1855,12.3058 96.1855,12.6656 96.0057,12.6656 96.0057,13.3853 95.8258,13.3853 95.8258,13.925 95.6458,13.925 95.6458,14.8246 95.466,14.8246 95.466,18.9626 95.6458,18.9626 95.6458,19.8623 95.8258,19.8623 95.8258,20.5818 96.0057,20.5818 96.0057,21.1216 96.1855,21.1216 96.1855,21.6613 96.3655,21.6613 96.3655,22.0211 96.5455,22.0211 96.5455,22.3811 96.7253,22.3811 96.7253,22.7409 96.9053,22.7409 96.9053,23.1006 97.0853,23.1006 97.0853,23.2806 97.265,23.2806 97.265,23.6404 97.445,23.6404 97.445,23.8204 97.625,23.8204 97.625,24.0003 97.8048,24.0003 97.8048,24.3601 97.9847,24.3601 97.9847,24.5401 98.1647,24.5401 98.1647,24.7199 98.3447,24.7199 98.3447,24.8999 98.5247,24.8999 98.5247,25.0798 98.7047,25.0798 98.7047,25.2596 98.8847,25.2596 98.8847,25.4396 99.0647,25.4396 99.0647,25.6196 99.2447,25.6196 99.2447,25.7994 99.4237,25.7994 99.4237,25.9794 99.7837,25.9794 99.7837,26.1594 99.9637,26.1594 99.9637,26.3391 100.324,26.3391 100.324,26.5191 100.504,26.5191 100.504,26.6991 100.864,26.6991 100.864,26.8789 101.044,26.8789 101.044,27.0589 101.404,27.0589 101.404,27.2389 101.763,27.2389 101.763,27.4186 102.303,27.4186 102.303,27.5986 102.663,27.5986 102.663,27.7786 103.203,27.7786 103.203,27.9584 103.742,27.9584 103.742,28.1384 104.462,28.1384 104.462,28.3184 105.182,28.3184 105.182,28.4981 106.441,28.4981 106.441,28.6781 112.378,28.6781 112.378,28.4981 113.458,28.4981 113.458,28.3184 114.178,28.3184 114.178,28.1384 114.717,28.1384 114.717,27.9584 115.077,27.9584 115.077,27.7786 115.257,27.7786 115.257,27.4186 115.437,27.4186 115.437,26.8789 115.617,26.8789 115.617,25.9794 115.797,25.9794 115.797,24.8999 115.977,24.8999 115.977,23.4606 116.157,23.4606 116.157,23.1006 115.977,23.1006 115.977,22.7409 115.437,22.7409 115.437,23.1006 115.257,23.1006 115.257,23.8204 115.077,23.8204 115.077,24.1801 114.897,24.1801 114.897,24.5401 114.717,24.5401 114.717,24.8999 114.537,24.8999 114.537,25.0798 114.357,25.0798 114.357,25.2596 114.178,25.2596 114.178,25.4396 113.998,25.4396 113.998,25.6196 113.818,25.6196 113.818,25.7994 113.638,25.7994 113.638,25.9794 113.458,25.9794 113.458,26.1594 113.098,26.1594 113.098,26.3391 112.558,26.3391 112.558,26.5191 112.019,26.5191 112.019,26.6991 110.939,26.6991 110.939,26.8789 107.701,26.8789 107.701,26.6991 106.981,26.6991 106.981,26.5191 106.261,26.5191 106.261,26.3391 105.901,26.3391 105.901,26.1594 105.362,26.1594 105.362,25.9794 105.002,25.9794 105.002,25.7994 104.822,25.7994 104.822,25.6196 104.462,25.6196 104.462,25.4396 104.102,25.4396 104.102,25.2596 103.922,25.2596 103.922,25.0798 103.562,25.0798 103.562,24.8999 103.383,24.8999 103.383,24.7199 103.203,24.7199 103.203,24.5401 103.023,24.5401 103.023,24.3601 102.843,24.3601 102.843,24.1801 102.663,24.1801 102.663,24.0003 102.483,24.0003 102.483,23.8204 102.303,23.8204 102.303,23.6404 102.123,23.6404 102.123,23.4606 101.943,23.4606 101.943,23.2806 101.763,23.2806 101.763,22.9208 101.583,22.9208 101.583,22.7409 101.404,22.7409 101.404,22.3811 101.224,22.3811 101.224,22.2011 101.044,22.2011 101.044,21.8413 100.864,21.8413 100.864,21.4814 100.684,21.4814 100.684,21.1216 100.504,21.1216 100.504,20.5818 100.324,20.5818 100.324,20.0421 100.144,20.0421 100.144,19.5023 99.9637,19.5023 99.9637,18.6028 99.7837,18.6028 99.7837,16.8036 99.6037,16.8036 99.6037,16.0841 99.7837,16.0841 99.7837,13.7451 99.9637,13.7451 99.9637,12.8455 100.144,12.8455 100.144,12.3058 100.324,12.3058 100.324,11.766 100.504,11.766 100.504,11.2263 100.684,11.2263 100.684,10.8663 100.864,10.8663 100.864,10.5066 101.044,10.5066 101.044,10.3266 101.224,10.3266 101.224,9.9668 101.404,9.9668 101.404,9.7868 101.583,9.7868 101.583,9.607 101.763,9.607 101.763,9.2471 101.943,9.2471 101.943,9.0673 102.123,9.0673 102.123,8.8873 102.303,8.8873 102.303,8.7073 102.663,8.7073 102.663,8.5275 102.843,8.5275 102.843,8.3475 103.023,8.3475 103.023,8.1676 103.383,8.1676 103.383,7.9878 103.742,7.9878 103.742,7.8078 103.922,7.8078 103.922,7.6278 104.462,7.6278 104.462,7.448 105.002,7.448 105.002,7.268 105.721,7.268 105.721,7.0881 107.701,7.0881 107.701,6.9083 108.06,6.9083 108.06,7.0881 110.219,7.0881 110.219,7.268 110.939,7.268 110.939,7.448 111.659,7.448 111.659,7.6278 112.198,7.6278 112.198,7.8078 112.558,7.8078 112.558,7.9878 112.918,7.9878 112.918,8.1676 113.278,8.1676 113.278,8.3475 113.458,8.3475 113.458,8.5275 113.638,8.5275 113.638,8.7073 113.818,8.7073 113.818,8.8873 113.998,8.8873 113.998,9.0673 114.178,9.0673 114.178,9.2471 114.357,9.2471 114.357,9.607 114.537,9.607 114.537,9.9668 114.717,9.9668 114.717,10.3266 114.897,10.3266 114.897,11.4061 115.077,11.4061 115.077,12.1258 115.617,12.1258 115.617,11.9458 115.797,11.9458 115.797,8.1676 115.977,8.1676 115.977,6.3685 115.797,6.3685 115.797,6.1885 114.897,6.1885 114.897,6.0085 113.998,6.0085 113.998,5.8288 112.918,5.8288 112.918,5.6488 111.479,5.6488 111.479,5.4688 105.542,5.4688 "/>
   <path id="_561261016" class="fil0" d="M49.7669 50.628l0.18 0 0 -0.3598 0.7197 0 0 0.18 0.1798 0 0 0.7195 -0.3598 0 0 0.18 -0.3597 0 0 -0.18 -0.18 0 0 -0.1798 -0.18 0 0 -0.3599zm-1.6193 -2.8786l-0.7195 0 0 -0.18 -0.18 0 0 -0.5397 0.18 0 0 -0.18 0.7195 0 0 0.36 0.18 0 0 0.1797 -0.18 0 0 0.36zm-3.0585 -3.7782l0.18 0 0 -0.18 0.1798 0 0 -0.18 0.5397 0 0 0.18 0.18 0 0 0.7197 -0.3598 0 0 0.1798 -0.3599 0 0 -0.1798 -0.1798 0 0 -0.18 -0.18 0 0 -0.3597zm-3.2385 -2.519l0.18 0 0 -0.1798 0.5397 0 0 0.1798 0.1798 0 0 0.7197 -0.1798 0 0 0.18 -0.5397 0 0 -0.18 -0.18 0 0 -0.7197zm4.318 -3.4183l-0.18 0 0 0.1798 -0.3597 0 0 0.18 -0.18 0 0 0.1799 -0.3598 0 0 0.1798 -0.3598 0 0 0.18 -0.3599 0 0 0.18 -0.3598 0 0 0.1798 -0.3598 0 0 0.18 -0.5397 0 0 0.1799 -0.36 0 0 0.1798 -0.3598 0 0 0.18 -0.3597 0 0 0.18 -0.36 0 0 0.1798 -0.3598 0 0 0.18 -0.1799 0 0 0.1799 -0.3598 0 0 0.1798 -0.18 0 0 0.18 -0.1798 0 0 0.18 -0.18 0 0 0.1798 -0.18 0 0 0.18 -0.1797 0 0 0.1799 -0.18 0 0 0.3598 -0.18 0 0 0.18 -0.1798 0 0 0.3598 -0.18 0 0 0.5397 -0.18 0 0 0.5398 -0.1797 0 0 0.5397 -0.18 0 0 1.0795 0.18 0 0 0.3598 0.1797 0 0 0.18 0.18 0 0 0.18 1.0795 0 0 -0.18 0.3598 0 0 -0.18 0.18 0 0 -0.1798 0.3598 0 0 -0.18 0.1799 0 0 -0.18 0.18 0 0 -0.1797 0.1798 0 0 -0.18 0.18 0 0 -0.18 0.18 0 0 -0.1798 0.1798 0 0 -0.36 0.1799 0 0 -0.1797 0.18 0 0 -0.18 0.1798 0 0 -0.18 0.18 0 0 -0.1798 0.18 0 0 -0.18 0.1798 0 0 -0.3597 0.1799 0 0 -0.18 0.18 0 0 -0.18 0.1798 0 0 -0.1798 0.36 0 0 -0.18 0.1798 0 0 -0.18 0.1799 0 0 0.18 0.3598 0 0 0.5398 -0.1798 0 0 0.3597 -0.18 0 0 0.18 -0.1799 0 0 0.18 -0.1798 0 0 0.1798 -0.18 0 0 0.18 -0.18 0 0 0.18 -0.1798 0 0 0.1797 -0.18 0 0 0.18 -0.1799 0 0 0.18 -0.3598 0 0 0.1798 -0.18 0 0 0.18 -0.1798 0 0 0.18 -0.3599 0 0 0.1797 -0.1798 0 0 0.36 -0.18 0 0 0.1798 -0.18 0 0 0.36 -0.1798 0 0 1.4392 0.1798 0 0 0.3598 0.18 0 0 0.18 0.18 0 0 0.3597 0.1798 0 0 0.18 0.7197 0 0 -0.18 0.3598 0 0 -0.1797 0.3599 0 0 -0.18 0.1798 0 0 -0.18 0.18 0 0 -0.1798 0.18 0 0 -0.18 0.1798 0 0 -0.18 0.1799 0 0 -0.1797 0.18 0 0 -0.18 0.1798 0 0 -0.3598 0.18 0 0 -0.18 0.18 0 0 -0.18 0.1798 0 0 -0.1797 0.18 0 0 -0.18 0.1799 0 0 -0.18 0.1798 0 0 -0.1798 0.18 0 0 -0.18 0.18 0 0 -0.18 0.1798 0 0 -0.1797 0.18 0 0 -0.18 0.1799 0 0 -0.18 0.1798 0 0 0.18 0.36 0 0 0.5397 -0.18 0 0 0.3598 -0.18 0 0 0.18 -0.1798 0 0 0.18 -0.1799 0 0 0.1797 -0.18 0 0 0.18 -0.1798 0 0 0.18 -0.18 0 0 0.1798 -0.18 0 0 0.18 -0.1798 0 0 0.18 -0.3599 0 0 0.1797 -0.1798 0 0 0.18 -0.18 0 0 0.18 -0.18 0 0 0.1798 -0.1798 0 0 0.18 -0.18 0 0 0.18 -0.1799 0 0 0.1797 -0.1798 0 0 0.18 -0.18 0 0 0.3598 -0.18 0 0 1.2595 0.18 0 0 0.18 0.18 0 0 0.1798 0.1798 0 0 0.3599 0.1799 0 0 0.1798 0.18 0 0 0.18 0.1798 0 0 0.18 0.18 0 0 0.1798 0.3598 0 0 -0.1798 0.3599 0 0 -0.18 0.3598 0 0 -0.18 0.18 0 0 -0.1798 0.1798 0 0 -0.18 0.18 0 0 -0.1799 0.1799 0 0 -0.1798 0.1798 0 0 -0.18 0.18 0 0 -0.3598 0.18 0 0 -0.18 0.1798 0 0 -0.18 0.18 0 0 -0.1797 0.1799 0 0 -0.18 0.1798 0 0 -0.18 0.18 0 0 -0.1798 0.18 0 0 -0.18 0.1798 0 0 -0.3597 0.18 0 0 -0.18 0.3597 0 0 -0.18 0.18 0 0 -0.1798 0.3598 0 0 0.1798 0.18 0 0 0.5397 -0.18 0 0 0.36 -0.1798 0 0 0.1798 -0.18 0 0 0.18 -0.18 0 0 0.18 -0.1797 0 0 0.1797 -0.18 0 0 0.18 -0.18 0 0 0.18 -0.1798 0 0 0.1798 -0.18 0 0 0.18 -0.3598 0 0 0.18 -0.1799 0 0 0.1798 -0.3598 0 0 0.1799 -0.18 0 0 0.18 -0.18 0 0 0.1798 -0.1798 0 0 0.18 -0.1799 0 0 0.3598 -0.18 0 0 0.3599 -0.1798 0 0 0.8995 0.1798 0 0 0.18 0.18 0 0 0.1798 0.1799 0 0 0.18 0.1798 0 0 0.18 0.5398 0 0 0.1798 1.0795 0 0 -0.1798 0.5397 0 0 -0.18 0.36 0 0 -0.18 0.1798 0 0 -0.1798 0.18 0 0 -0.18 0.18 0 0 -0.1799 0.1797 0 0 -0.1798 0.18 0 0 -0.18 0.18 0 0 -0.18 0.1798 0 0 -0.1798 0.18 0 0 -0.18 0.18 0 0 -0.3597 0.1797 0 0 -0.18 0.18 0 0 -0.18 0.18 0 0 -0.1798 0.1798 0 0 -0.3599 0.18 0 0 -0.1798 0.18 0 0 -0.18 0.1797 0 0 -0.18 0.18 0 0 -0.1798 0.18 0 0 -0.18 0.1798 0 0 -0.18 0.36 0 0 -0.1797 0.1797 0 0 -0.18 0.18 0 0 -0.18 0.18 0 0 -0.1798 0.1798 0 0 -0.5397 0.18 0 0 -0.7198 0.18 0 0 -0.8995 -0.18 0 0 -0.7197 -0.18 0 0 -0.5398 -0.1798 0 0 -0.5397 -0.18 0 0 -0.5398 -0.18 0 0 -0.3597 -0.1797 0 0 -0.5398 -0.18 0 0 -0.36 -0.18 0 0 -0.3597 -0.1798 0 0 -0.18 -0.18 0 0 -0.3598 -0.18 0 0 -0.3598 -0.1797 0 0 -0.1799 -0.18 0 0 -0.3598 -0.18 0 0 -0.18 -0.1798 0 0 -0.18 -0.18 0 0 -0.1798 -0.18 0 0 -0.1799 -0.1797 0 0 -0.18 -0.18 0 0 -0.1798 -0.18 0 0 -0.18 -0.1798 0 0 -0.18 -0.18 0 0 -0.1798 -0.18 0 0 -0.1799 -0.1797 0 0 -0.18 -0.36 0 0 -0.1798 -0.1798 0 0 -0.18 -0.36 0 0 -0.18 -0.3597 0 0 -0.1798 -0.3598 0 0 -0.1799 -0.5398 0 0 -0.18 -0.5397 0 0 -0.1798 -0.8997 0 0 -0.18 -0.3598 0 0 0.18z"/>
   <path id="_561261400" class="fil0" d="M8.566 50.4482l0.18 0 0 -0.18 0.5397 0 0 0.18 0.1798 0 0 0.7195 -0.3598 0 0 0.18 -0.3597 0 0 -0.18 -0.18 0 0 -0.7195zm2.5187 -3.4185l0.18 0 0 -0.18 0.7198 0 0 0.18 0.1797 0 0 0.5397 -0.1797 0 0 0.18 -0.7198 0 0 -0.18 -0.18 0 0 -0.5397zm1.9793 -3.0585l0.1798 0 0 -0.18 0.1799 0 0 -0.18 0.5398 0 0 0.18 0.18 0 0 0.7197 -0.36 0 0 0.1798 -0.3598 0 0 -0.1798 -0.1799 0 0 -0.18 -0.1798 0 0 -0.3597zm3.4183 -2.339l0.1799 0 0 -0.18 0.18 0 0 -0.1798 0.3598 0 0 0.1798 0.18 0 0 0.18 0.1798 0 0 0.3597 -0.1798 0 0 0.36 -0.5398 0 0 -0.18 -0.18 0 0 -0.18 -0.1799 0 0 -0.3597zm-3.5983 -3.5983l-0.8995 0 0 0.1798 -0.7198 0 0 0.18 -0.3597 0 0 0.1799 -0.36 0 0 0.1798 -0.3598 0 0 0.18 -0.3597 0 0 0.18 -0.36 0 0 0.1798 -0.1798 0 0 0.18 -0.18 0 0 0.1799 -0.3597 0 0 0.1798 -0.18 0 0 0.18 -0.18 0 0 0.18 -0.1798 0 0 0.1798 -0.18 0 0 0.18 -0.18 0 0 0.1799 -0.1797 0 0 0.3598 -0.18 0 0 0.18 -0.18 0 0 0.1798 -0.1798 0 0 0.3599 -0.18 0 0 0.1798 -0.18 0 0 0.36 -0.1797 0 0 0.1798 -0.18 0 0 0.36 -0.18 0 0 0.3597 -0.1798 0 0 0.5398 -0.18 0 0 0.3597 -0.18 0 0 0.5398 -0.1797 0 0 0.5397 -0.18 0 0 0.5398 -0.18 0 0 0.7197 -0.1798 0 0 1.4393 0.1798 0 0 0.5397 0.18 0 0 0.36 0.18 0 0 0.1798 0.1797 0 0 0.18 0.18 0 0 0.18 0.18 0 0 0.1797 0.1798 0 0 0.18 0.36 0 0 0.18 0.1797 0 0 0.1798 0.18 0 0 0.18 0.18 0 0 0.18 0.1798 0 0 0.3597 0.18 0 0 0.18 0.18 0 0 0.1798 0.1797 0 0 0.18 0.18 0 0 0.3598 0.18 0 0 0.1799 0.1798 0 0 0.18 0.18 0 0 0.1798 0.18 0 0 0.18 0.1797 0 0 0.18 0.18 0 0 0.1798 0.18 0 0 0.1799 0.1798 0 0 0.18 0.18 0 0 0.1798 0.18 0 0 0.18 0.3597 0 0 0.18 0.5398 0 0 0.1798 1.0795 0 0 -0.1798 0.3597 0 0 -0.18 0.36 0 0 -0.18 0.1798 0 0 -0.1798 0.18 0 0 -0.5397 0.18 0 0 -0.18 -0.18 0 0 -0.5398 -0.18 0 0 -0.3597 -0.1798 0 0 -0.18 -0.18 0 0 -0.18 -0.18 0 0 -0.1798 -0.1797 0 0 -0.18 -0.18 0 0 -0.1799 -0.18 0 0 -0.1798 -0.3598 0 0 -0.18 -0.18 0 0 -0.18 -0.1797 0 0 -0.1798 -0.36 0 0 -0.18 -0.1798 0 0 -0.18 -0.18 0 0 -0.1797 -0.18 0 0 -0.18 -0.1797 0 0 -0.18 -0.18 0 0 -0.3598 -0.18 0 0 -0.3597 -0.1798 0 0 -0.36 0.3598 0 0 -0.1798 0.18 0 0 0.1798 0.3597 0 0 0.18 0.18 0 0 0.18 0.1798 0 0 0.1797 0.18 0 0 0.18 0.18 0 0 0.18 0.1797 0 0 0.1798 0.18 0 0 0.18 0.18 0 0 0.18 0.1798 0 0 0.1797 0.18 0 0 0.36 0.18 0 0 0.1798 0.1797 0 0 0.18 0.18 0 0 0.3598 0.18 0 0 0.1799 0.1798 0 0 0.18 0.18 0 0 0.1798 0.3598 0 0 0.18 0.3599 0 0 0.18 0.3598 0 0 0.1798 0.3598 0 0 -0.1798 0.1799 0 0 -0.18 0.18 0 0 -0.3598 0.1798 0 0 -0.18 0.18 0 0 -0.1799 0.18 0 0 -0.3598 0.1798 0 0 -0.3598 0.1799 0 0 -0.5397 -0.1799 0 0 -0.5398 -0.1798 0 0 -0.36 -0.18 0 0 -0.1797 -0.18 0 0 -0.18 -0.1798 0 0 -0.18 -0.18 0 0 -0.1798 -0.1799 0 0 -0.18 -0.1798 0 0 -0.18 -0.36 0 0 -0.1797 -0.1798 0 0 -0.18 -0.18 0 0 -0.18 -0.3597 0 0 -0.1798 -0.18 0 0 -0.18 -0.18 0 0 -0.18 -0.1798 0 0 -0.1797 -0.18 0 0 -0.18 -0.18 0 0 -0.3598 -0.1797 0 0 -0.7197 0.1797 0 0 -0.18 0.18 0 0 0.18 0.3598 0 0 0.18 0.18 0 0 0.1797 0.18 0 0 0.18 0.1798 0 0 0.18 0.1799 0 0 0.1798 0.18 0 0 0.18 0.1798 0 0 0.18 0.18 0 0 0.1797 0.18 0 0 0.36 0.1798 0 0 0.1798 0.1799 0 0 0.18 0.18 0 0 0.18 0.1798 0 0 0.3597 0.18 0 0 0.18 0.18 0 0 0.1798 0.1798 0 0 0.18 0.3599 0 0 0.18 0.1798 0 0 0.1797 0.5398 0 0 0.18 0.5397 0 0 -0.18 0.18 0 0 -0.1797 0.18 0 0 -0.18 0.1798 0 0 -0.3598 0.18 0 0 -0.5397 0.1799 0 0 -0.8998 -0.1799 0 0 -0.3597 -0.18 0 0 -0.3598 -0.1798 0 0 -0.18 -0.18 0 0 -0.18 -0.18 0 0 -0.1797 -0.1798 0 0 -0.18 -0.18 0 0 -0.18 -0.3597 0 0 -0.1798 -0.18 0 0 -0.18 -0.18 0 0 -0.18 -0.1798 0 0 -0.1797 -0.3599 0 0 -0.18 -0.1798 0 0 -0.18 -0.18 0 0 -0.1798 -0.18 0 0 -0.36 -0.1798 0 0 -0.1797 -0.18 0 0 -0.7198 0.18 0 0 -0.18 0.1798 0 0 0.18 0.36 0 0 0.18 0.1798 0 0 0.1798 0.1799 0 0 0.18 0.18 0 0 0.18 0.1798 0 0 0.1797 0.18 0 0 0.18 0.18 0 0 0.18 0.1798 0 0 0.1798 0.1799 0 0 0.18 0.18 0 0 0.3597 0.1798 0 0 0.18 0.18 0 0 0.18 0.18 0 0 0.1798 0.1798 0 0 0.18 0.18 0 0 0.18 0.1799 0 0 0.1797 0.1798 0 0 0.18 0.18 0 0 0.18 0.18 0 0 0.1798 0.3598 0 0 0.18 0.3597 0 0 0.18 1.0795 0 0 -0.18 0.18 0 0 -0.3598 0.18 0 0 -0.5397 0.1798 0 0 -0.5398 -0.1798 0 0 -0.5397 -0.18 0 0 -0.5398 -0.18 0 0 -0.5397 -0.1798 0 0 -0.36 -0.1799 0 0 -0.1798 -0.18 0 0 -0.36 -0.1798 0 0 -0.1798 -0.18 0 0 -0.1799 -0.18 0 0 -0.18 -0.1798 0 0 -0.1798 -0.1799 0 0 -0.18 -0.18 0 0 -0.18 -0.1798 0 0 -0.1798 -0.18 0 0 -0.1799 -0.3598 0 0 -0.18 -0.1799 0 0 -0.1798 -0.3598 0 0 -0.18 -0.36 0 0 -0.18 -0.5397 0 0 -0.1798 -0.3598 0 0 -0.1799 -0.3598 0 0 -0.18 -0.3599 0 0 -0.1798 -0.5398 0 0 -0.18 -0.3598 0 0 -0.18 -0.3597 0 0 -0.1798 -0.18 0 0 -0.1799 -0.3598 0 0 -0.18 -0.18 0 0 -0.1798 -0.1799 0 0 -0.18 -0.3598 0 0 0.18z"/>
   <polygon id="_561261328" class="fil0" points="132.709,5.8288 121.374,5.8288 121.374,6.0085 119.215,6.0085 119.215,6.5483 120.295,6.5483 120.295,6.7283 121.374,6.7283 121.374,6.9083 121.734,6.9083 121.734,7.0881 121.914,7.0881 121.914,7.448 122.094,7.448 122.094,9.9668 122.274,9.9668 122.274,22.5609 122.094,22.5609 122.094,26.3391 121.914,26.3391 121.914,27.0589 121.734,27.0589 121.734,27.2389 121.554,27.2389 121.554,27.4186 120.655,27.4186 120.655,27.5986 119.755,27.5986 119.755,28.1384 124.613,28.1384 124.613,28.3184 133.429,28.3184 133.429,28.1384 133.609,28.1384 133.609,27.9584 133.789,27.9584 133.789,27.4186 133.968,27.4186 133.968,26.3391 134.148,26.3391 134.148,24.3601 134.328,24.3601 134.328,24.1801 134.148,24.1801 134.148,23.6404 133.789,23.6404 133.789,23.8204 133.609,23.8204 133.609,24.1801 133.429,24.1801 133.429,24.8999 133.249,24.8999 133.249,25.4396 133.069,25.4396 133.069,25.7994 132.889,25.7994 132.889,25.9794 132.709,25.9794 132.709,26.1594 132.349,26.1594 132.349,26.3391 131.989,26.3391 131.989,26.5191 130.91,26.5191 130.91,26.6991 128.211,26.6991 128.211,26.5191 127.132,26.5191 127.132,26.3391 126.772,26.3391 126.772,26.1594 126.592,26.1594 126.592,25.9794 126.412,25.9794 126.412,25.7994 126.232,25.7994 126.232,25.0798 126.052,25.0798 126.052,17.1636 130.73,17.1636 130.73,17.3433 131.27,17.3433 131.27,17.5233 131.45,17.5233 131.45,17.7033 131.629,17.7033 131.629,17.8831 131.809,17.8831 131.809,18.2431 131.989,18.2431 131.989,19.5023 132.169,19.5023 132.169,19.6823 132.529,19.6823 132.529,19.5023 132.709,19.5023 132.709,17.5233 132.889,17.5233 132.889,15.5443 133.069,15.5443 133.069,14.8246 132.889,14.8246 132.889,14.6446 132.529,14.6446 132.529,14.8246 132.349,14.8246 132.349,15.0046 132.169,15.0046 132.169,15.1843 131.809,15.1843 131.809,15.3643 128.211,15.3643 128.211,15.5443 126.232,15.5443 126.232,15.3643 126.052,15.3643 126.052,7.6278 130.73,7.6278 130.73,7.8078 131.45,7.8078 131.45,7.9878 131.809,7.9878 131.809,8.1676 131.989,8.1676 131.989,8.3475 132.169,8.3475 132.169,8.7073 132.349,8.7073 132.349,9.607 132.529,9.607 132.529,10.1468 133.069,10.1468 133.069,9.7868 133.249,9.7868 133.249,7.268 133.429,7.268 133.429,5.6488 132.709,5.6488 "/>
   <polygon id="_561261472" class="fil0" points="91.8675,46.1302 92.2275,46.1302 92.2275,46.3099 92.4073,46.3099 92.4073,47.0297 92.5873,47.0297 92.5873,54.946 92.4073,54.946 92.4073,55.6657 92.2275,55.6657 92.2275,55.8457 91.8675,55.8457 91.8675,56.0255 94.9262,56.0255 94.9262,55.8457 94.5663,55.8457 94.5663,55.6657 94.3865,55.6657 94.3865,55.3059 94.2065,55.3059 94.2065,47.2097 94.5663,47.2097 94.5663,47.0297 95.6458,47.0297 95.6458,47.2097 96.1855,47.2097 96.1855,47.3894 96.5455,47.3894 96.5455,47.5694 96.7253,47.5694 96.7253,47.7494 96.9053,47.7494 96.9053,48.1092 97.0853,48.1092 97.0853,49.1887 96.9053,49.1887 96.9053,49.7284 96.7253,49.7284 96.7253,49.9084 96.5455,49.9084 96.5455,50.0882 96.1855,50.0882 96.1855,50.2682 96.0057,50.2682 96.0057,50.4482 95.466,50.4482 95.466,50.628 94.9262,50.628 94.9262,50.8079 94.5663,50.8079 94.5663,51.1677 94.7463,51.1677 94.7463,51.3477 94.9262,51.3477 94.9262,51.7075 95.106,51.7075 95.106,52.0674 95.286,52.0674 95.286,52.2472 95.466,52.2472 95.466,52.6072 95.6458,52.6072 95.6458,52.787 95.8258,52.787 95.8258,53.1469 96.0057,53.1469 96.0057,53.3267 96.1855,53.3267 96.1855,53.5067 96.3655,53.5067 96.3655,53.6867 96.5455,53.6867 96.5455,54.0465 96.7253,54.0465 96.7253,54.2264 96.9053,54.2264 96.9053,54.4062 97.0853,54.4062 97.0853,54.5862 97.265,54.5862 97.265,54.7662 97.445,54.7662 97.445,55.126 97.625,55.126 97.625,55.3059 97.8048,55.3059 97.8048,55.4857 97.9847,55.4857 97.9847,55.6657 98.1647,55.6657 98.1647,55.8457 98.7047,55.8457 98.7047,56.0255 103.203,56.0255 103.203,55.8457 102.843,55.8457 102.843,55.6657 102.663,55.6657 102.663,55.3059 102.483,55.3059 102.483,47.2097 102.843,47.2097 102.843,47.0297 103.922,47.0297 103.922,47.2097 104.462,47.2097 104.462,47.3894 104.822,47.3894 104.822,47.5694 105.002,47.5694 105.002,47.7494 105.182,47.7494 105.182,48.1092 105.362,48.1092 105.362,49.1887 105.182,49.1887 105.182,49.7284 105.002,49.7284 105.002,49.9084 104.822,49.9084 104.822,50.0882 104.462,50.0882 104.462,50.2682 104.282,50.2682 104.282,50.4482 103.742,50.4482 103.742,50.628 103.203,50.628 103.203,50.8079 102.843,50.8079 102.843,51.1677 103.023,51.1677 103.023,51.3477 103.203,51.3477 103.203,51.7075 103.383,51.7075 103.383,52.0674 103.562,52.0674 103.562,52.2472 103.742,52.2472 103.742,52.6072 103.922,52.6072 103.922,52.787 104.102,52.787 104.102,53.1469 104.282,53.1469 104.282,53.3267 104.462,53.3267 104.462,53.5067 104.642,53.5067 104.642,53.6867 104.822,53.6867 104.822,54.0465 105.002,54.0465 105.002,54.2264 105.182,54.2264 105.182,54.4062 105.362,54.4062 105.362,54.5862 105.542,54.5862 105.542,54.7662 105.721,54.7662 105.721,55.126 105.901,55.126 105.901,55.3059 106.081,55.3059 106.081,55.4857 106.261,55.4857 106.261,55.6657 106.441,55.6657 106.441,55.8457 106.981,55.8457 106.981,56.0255 111.299,56.0255 111.299,55.8457 111.119,55.8457 111.119,55.6657 110.939,55.6657 110.939,55.3059 110.759,55.3059 110.759,46.6699 110.939,46.6699 110.939,46.3099 111.119,46.3099 111.119,46.1302 111.299,46.1302 111.299,45.9502 108.42,45.9502 108.42,46.1302 108.78,46.1302 108.78,46.4899 108.96,46.4899 108.96,47.3894 109.14,47.3894 109.14,54.4062 108.96,54.4062 108.96,55.4857 108.78,55.4857 108.78,55.6657 108.6,55.6657 108.6,55.4857 108.42,55.4857 108.42,55.3059 108.24,55.3059 108.24,55.126 107.88,55.126 107.88,54.946 107.701,54.946 107.701,54.7662 107.521,54.7662 107.521,54.5862 107.341,54.5862 107.341,54.4062 107.161,54.4062 107.161,54.2264 106.981,54.2264 106.981,54.0465 106.801,54.0465 106.801,53.8665 106.621,53.8665 106.621,53.5067 106.441,53.5067 106.441,53.3267 106.261,53.3267 106.261,53.1469 106.081,53.1469 106.081,52.9669 105.901,52.9669 105.901,52.6072 105.721,52.6072 105.721,52.4272 105.542,52.4272 105.542,52.2472 105.362,52.2472 105.362,51.8874 105.182,51.8874 105.182,51.7075 105.002,51.7075 105.002,51.5277 104.822,51.5277 104.822,51.3477 104.642,51.3477 104.642,51.1677 105.002,51.1677 105.002,50.9879 105.362,50.9879 105.362,50.8079 105.721,50.8079 105.721,50.628 105.901,50.628 105.901,50.4482 106.081,50.4482 106.081,50.2682 106.261,50.2682 106.261,50.0882 106.441,50.0882 106.441,49.9084 106.621,49.9084 106.621,49.7284 106.801,49.7284 106.801,49.1887 106.981,49.1887 106.981,47.5694 106.801,47.5694 106.801,47.2097 106.621,47.2097 106.621,47.0297 106.441,47.0297 106.441,46.8497 106.261,46.8497 106.261,46.6699 106.081,46.6699 106.081,46.4899 105.901,46.4899 105.901,46.3099 105.542,46.3099 105.542,46.1302 105.002,46.1302 105.002,45.9502 100.144,45.9502 100.144,46.1302 100.504,46.1302 100.504,46.3099 100.684,46.3099 100.684,47.0297 100.864,47.0297 100.864,54.946 100.684,54.946 100.684,55.6657 100.324,55.6657 100.324,55.4857 100.144,55.4857 100.144,55.3059 99.9637,55.3059 99.9637,55.126 99.6037,55.126 99.6037,54.946 99.4237,54.946 99.4237,54.7662 99.2447,54.7662 99.2447,54.5862 99.0647,54.5862 99.0647,54.4062 98.8847,54.4062 98.8847,54.2264 98.7047,54.2264 98.7047,54.0465 98.5247,54.0465 98.5247,53.8665 98.3447,53.8665 98.3447,53.5067 98.1647,53.5067 98.1647,53.3267 97.9847,53.3267 97.9847,53.1469 97.8048,53.1469 97.8048,52.9669 97.625,52.9669 97.625,52.6072 97.445,52.6072 97.445,52.4272 97.265,52.4272 97.265,52.2472 97.0853,52.2472 97.0853,51.8874 96.9053,51.8874 96.9053,51.7075 96.7253,51.7075 96.7253,51.5277 96.5455,51.5277 96.5455,51.3477 96.3655,51.3477 96.3655,51.1677 96.7253,51.1677 96.7253,50.9879 97.0853,50.9879 97.0853,50.8079 97.445,50.8079 97.445,50.628 97.625,50.628 97.625,50.4482 97.8048,50.4482 97.8048,50.2682 97.9847,50.2682 97.9847,50.0882 98.1647,50.0882 98.1647,49.9084 98.3447,49.9084 98.3447,49.7284 98.5247,49.7284 98.5247,49.1887 98.7047,49.1887 98.7047,47.5694 98.5247,47.5694 98.5247,47.2097 98.3447,47.2097 98.3447,47.0297 98.1647,47.0297 98.1647,46.8497 97.9847,46.8497 97.9847,46.6699 97.8048,46.6699 97.8048,46.4899 97.625,46.4899 97.625,46.3099 97.265,46.3099 97.265,46.1302 96.7253,46.1302 96.7253,45.9502 91.8675,45.9502 "/>
   <path id="_561260632" class="fil0" d="M102.663 36.9544l0.18 0 0 -0.36 0.1798 0 0 -0.5397 0.18 0 0 -0.5398 0.18 0 0 -0.3598 0.1798 0 0 -0.5397 0.1799 0 0 -0.3598 0.18 0 0 0.1798 0.1798 0 0 0.5398 0.18 0 0 0.3599 0.18 0 0 0.5398 0.1798 0 0 0.3597 0.18 0 0 0.5398 0.1799 0 0 0.5397 -2.339 0 0 -0.3597zm0 -3.9583l0.3598 0 0 0.7198 -0.1798 0 0 0.5397 -0.18 0 0 0.3598 -0.1799 0 0 0.5397 -0.1798 0 0 0.3598 -0.18 0 0 0.5398 -0.1798 0 0 0.3599 -0.18 0 0 0.5398 -0.18 0 0 0.3597 -0.1797 0 0 0.5398 -0.18 0 0 0.3598 -0.18 0 0 0.5397 -0.1798 0 0 0.36 -0.18 0 0 0.5397 -0.18 0 0 0.3598 -0.1797 0 0 0.3598 -0.18 0 0 0.5397 -0.18 0 0 0.18 -0.1798 0 0 0.18 -0.18 0 0 0.1798 -0.3597 0 0 0.18 2.5187 0 0 -0.18 -0.3597 0 0 -1.0795 0.1797 0 0 -0.5398 0.18 0 0 -0.3597 0.18 0 0 -0.5398 0.1798 0 0 -0.5397 0.18 0 0 -0.18 3.2385 0 0 0.3599 0.1798 0 0 0.5398 0.18 0 0 0.3598 0.1799 0 0 0.5397 0.1798 0 0 0.3598 0.18 0 0 0.5397 0.18 0 0 0.36 -0.18 0 0 0.1798 -0.3598 0 0 0.18 4.8578 0 0 -0.18 -0.18 0 0 -0.1798 -0.18 0 0 -1.7992 0.18 0 0 -1.2595 0.18 0 0 -1.4393 0.1798 0 0 -1.4393 0.18 0 0 -0.8997 0.18 0 0 0.36 0.1797 0 0 0.3597 0.18 0 0 0.5398 0.18 0 0 0.3598 0.1798 0 0 0.5397 0.18 0 0 0.36 0.18 0 0 0.3597 0.1797 0 0 0.5398 0.18 0 0 0.3598 0.18 0 0 0.5397 0.1798 0 0 0.36 0.18 0 0 0.3598 0.18 0 0 0.5397 0.1797 0 0 0.3598 0.18 0 0 0.3599 0.18 0 0 0.3598 0.1798 0 0 0.18 0.18 0 0 0.1798 0.18 0 0 0.18 0.1797 0 0 0.1799 0.18 0 0 -0.1799 0.18 0 0 -0.3598 0.1798 0 0 -0.5398 0.18 0 0 -0.3599 0.18 0 0 -0.5398 0.1797 0 0 -0.5397 0.18 0 0 -0.3598 0.18 0 0 -0.5397 0.1798 0 0 -0.3598 0.18 0 0 -0.5398 0.18 0 0 -0.3599 0.1798 0 0 -0.5398 0.1799 0 0 -0.5397 0.18 0 0 -0.3598 0.1798 0 0 -0.5398 0.18 0 0 -0.3597 0.18 0 0 -0.36 0.1798 0 0 1.6193 0.1799 0 0 1.6192 0.18 0 0 1.4395 0.1798 0 0 2.159 -0.1798 0 0 0.1798 -0.18 0 0 0.3599 0.18 0 0 -0.1799 2.3388 0 0 -0.18 -0.1798 0 0 -0.1798 -0.1799 0 0 -0.18 -0.18 0 0 -1.0795 -0.1798 0 0 -1.2595 -0.18 0 0 -1.4393 -0.18 0 0 -1.2594 -0.1798 0 0 -1.4393 -0.18 0 0 -1.6193 0.3598 0 0 -0.18 -2.5188 0 0 0.7198 -0.1799 0 0 0.5397 -0.1798 0 0 0.3598 -0.18 0 0 0.5398 -0.18 0 0 0.3599 -0.1798 0 0 0.5398 -0.18 0 0 0.5397 -0.18 0 0 0.3598 -0.1797 0 0 0.5397 -0.18 0 0 0.3598 -0.18 0 0 0.5398 -0.1798 0 0 0.3599 -0.18 0 0 0.5398 -0.18 0 0 -0.36 -0.1797 0 0 -0.3597 -0.18 0 0 -0.3598 -0.18 0 0 -0.5398 -0.1798 0 0 -0.3599 -0.18 0 0 -0.3598 -0.18 0 0 -0.5398 -0.1797 0 0 -0.3597 -0.18 0 0 -0.5398 -0.18 0 0 -0.3599 -0.1798 0 0 -0.3598 -0.18 0 0 -0.5398 -0.18 0 0 -0.3597 -0.1797 0 0 -0.36 -0.18 0 0 -0.5398 -2.5188 0 0 0.18 0.1798 0 0 0.18 0.18 0 0 0.3598 0.18 0 0 0.18 -0.18 0 0 1.2593 -0.18 0 0 1.2594 -0.1798 0 0 1.2595 -0.18 0 0 1.4393 -0.18 0 0 1.2595 -0.1797 0 0 0.7195 -0.18 0 0 0.36 -0.18 0 0 0.1798 -0.3598 0 0 -0.1798 -0.18 0 0 -0.18 -0.1798 0 0 -0.18 -0.1799 0 0 -0.3597 -0.18 0 0 -0.3598 -0.1798 0 0 -0.5398 -0.18 0 0 -0.3599 -0.18 0 0 -0.5398 -0.1798 0 0 -0.3597 -0.1799 0 0 -0.5398 -0.18 0 0 -0.3598 -0.1798 0 0 -0.5397 -0.18 0 0 -0.36 -0.18 0 0 -0.5397 -0.1798 0 0 -0.3598 -0.1799 0 0 -0.3598 -0.18 0 0 -0.5397 -0.1798 0 0 -0.36 -0.18 0 0 -0.5397 -0.18 0 0 -0.3598 -0.1798 0 0 -0.5398 -0.1799 0 0 -0.18 -2.1591 0 0 0.18z"/>
   <polygon id="_561260512" class="fil0" points="26.1978,29.3979 25.838,29.3979 25.838,29.5776 25.4783,29.5776 25.4783,29.7576 25.2983,29.7576 25.2983,30.1174 25.1183,30.1174 25.1183,30.6571 24.9385,30.6571 24.9385,31.5569 24.7585,31.5569 24.7585,33.1761 24.9385,33.1761 24.9385,33.8957 25.1183,33.8957 25.1183,34.2556 25.2983,34.2556 25.2983,34.6154 25.4783,34.6154 25.4783,34.7954 25.658,34.7954 25.658,34.9752 25.838,34.9752 25.838,35.1551 26.018,35.1551 26.018,35.3351 26.1978,35.3351 26.1978,35.5149 26.3778,35.5149 26.3778,35.6949 26.5578,35.6949 26.5578,35.8749 26.7375,35.8749 26.7375,36.0547 27.0975,36.0547 27.0975,36.2346 27.4573,36.2346 27.4573,36.4146 27.997,36.4146 27.997,36.5944 29.7963,36.5944 29.7963,36.4146 30.336,36.4146 30.336,36.2346 30.8758,36.2346 30.8758,36.0547 31.2355,36.0547 31.2355,35.8749 31.4155,35.8749 31.4155,35.6949 31.5953,35.6949 31.5953,35.5149 31.9553,35.5149 31.9553,35.3351 32.1351,35.3351 32.1351,34.9752 32.315,34.9752 32.315,34.7954 32.495,34.7954 32.495,34.4354 32.6748,34.4354 32.6748,33.7159 32.8548,33.7159 32.8548,29.3979 32.495,29.3979 32.495,29.2179 26.1978,29.2179 "/>
   <path id="_561260248" class="fil0" d="M114.178 49.5484l0.1798 0 0 -0.5397 0.18 0 0 -0.3598 0.18 0 0 -0.3597 0.1797 0 0 -0.18 0.18 0 0 -0.18 0.18 0 0 -0.1798 0.1798 0 0 -0.18 0.18 0 0 -0.18 0.18 0 0 -0.1797 0.3597 0 0 -0.18 0.3598 0 0 -0.18 0.7197 0 0 -0.1798 1.2595 0 0 0.1798 0.7196 0 0 0.18 0.5397 0 0 0.18 0.18 0 0 0.1797 0.18 0 0 0.18 0.3598 0 0 0.18 0.1799 0 0 0.3598 0.1798 0 0 0.18 0.18 0 0 0.1797 0.18 0 0 0.36 0.1798 0 0 0.5398 0.18 0 0 0.7195 0.1799 0 0 1.9792 -0.1799 0 0 0.5398 -0.18 0 0 0.3597 -0.1798 0 0 0.3598 -0.18 0 0 0.18 -0.18 0 0 0.3598 -0.1798 0 0 0.18 -0.3599 0 0 0.1799 -0.1798 0 0 0.1798 -0.36 0 0 0.18 -0.3598 0 0 0.18 -0.7197 0 0 0.1798 -1.2593 0 0 -0.1798 -0.7197 0 0 -0.18 -0.3598 0 0 -0.18 -0.36 0 0 -0.1798 -0.1797 0 0 -0.1799 -0.18 0 0 -0.18 -0.18 0 0 -0.1798 -0.1798 0 0 -0.18 -0.18 0 0 -0.18 -0.18 0 0 -0.3598 -0.1797 0 0 -0.1799 -0.18 0 0 -0.5398 -0.18 0 0 -0.5397 -0.1798 0 0 -2.1591zm2.5188 -3.7782l-0.7198 0 0 0.18 -0.3597 0 0 0.18 -0.3598 0 0 0.1797 -0.36 0 0 0.18 -0.3597 0 0 0.18 -0.18 0 0 0.1798 -0.1798 0 0 0.18 -0.18 0 0 0.18 -0.18 0 0 0.1797 -0.1797 0 0 0.18 -0.18 0 0 0.18 -0.18 0 0 0.1798 -0.1798 0 0 0.36 -0.18 0 0 0.3597 -0.18 0 0 0.3598 -0.1797 0 0 0.5397 -0.18 0 0 2.6988 0.18 0 0 0.5398 0.1797 0 0 0.3599 0.18 0 0 0.3598 0.18 0 0 0.18 0.1798 0 0 0.3598 0.18 0 0 0.1799 0.18 0 0 0.1798 0.1797 0 0 0.18 0.18 0 0 0.18 0.18 0 0 0.1798 0.3598 0 0 0.18 0.18 0 0 0.1799 0.3597 0 0 0.1798 0.3598 0 0 0.18 0.36 0 0 0.18 0.7195 0 0 0.1798 2.6988 0 0 -0.1798 0.7197 0 0 -0.18 0.5398 0 0 -0.18 0.3597 0 0 -0.1798 0.18 0 0 -0.1799 0.3598 0 0 -0.18 0.18 0 0 -0.1798 0.1799 0 0 -0.18 0.1798 0 0 -0.18 0.18 0 0 -0.1798 0.18 0 0 -0.1799 0.1798 0 0 -0.18 0.18 0 0 -0.1798 0.1799 0 0 -0.36 0.1798 0 0 -0.3598 0.18 0 0 -0.3597 0.18 0 0 -0.5398 0.1798 0 0 -2.6987 -0.1798 0 0 -0.5398 -0.18 0 0 -0.36 -0.18 0 0 -0.3597 -0.1798 0 0 -0.18 -0.1799 0 0 -0.3598 -0.18 0 0 -0.18 -0.1798 0 0 -0.1797 -0.18 0 0 -0.18 -0.18 0 0 -0.18 -0.1798 0 0 -0.1798 -0.3599 0 0 -0.18 -0.1798 0 0 -0.18 -0.36 0 0 -0.1797 -0.3597 0 0 -0.18 -0.3598 0 0 -0.18 -0.7198 0 0 -0.1798 -2.6987 0 0 0.1798z"/>
   <polygon id="_561260992" class="fil0" points="124.253,46.1302 124.433,46.1302 124.433,46.3099 124.613,46.3099 124.613,46.4899 124.793,46.4899 124.793,46.8497 124.973,46.8497 124.973,54.946 124.793,54.946 124.793,55.4857 124.613,55.4857 124.613,55.6657 124.433,55.6657 124.433,55.8457 124.253,55.8457 124.253,56.0255 126.952,56.0255 126.952,55.8457 126.592,55.8457 126.592,55.6657 126.412,55.6657 126.412,55.3059 126.232,55.3059 126.232,48.4689 126.412,48.4689 126.412,48.6489 126.592,48.6489 126.592,49.0087 126.772,49.0087 126.772,49.1887 126.952,49.1887 126.952,49.3687 127.132,49.3687 127.132,49.5484 127.311,49.5484 127.311,49.9084 127.491,49.9084 127.491,50.0882 127.671,50.0882 127.671,50.2682 127.851,50.2682 127.851,50.4482 128.031,50.4482 128.031,50.8079 128.211,50.8079 128.211,50.9879 128.391,50.9879 128.391,51.1677 128.571,51.1677 128.571,51.3477 128.751,51.3477 128.751,51.7075 128.931,51.7075 128.931,51.8874 129.111,51.8874 129.111,52.0674 129.291,52.0674 129.291,52.2472 129.47,52.2472 129.47,52.6072 129.65,52.6072 129.65,52.787 129.83,52.787 129.83,52.9669 130.01,52.9669 130.01,53.3267 130.19,53.3267 130.19,53.5067 130.37,53.5067 130.37,53.6867 130.55,53.6867 130.55,53.8665 130.73,53.8665 130.73,54.2264 130.91,54.2264 130.91,54.4062 131.09,54.4062 131.09,54.5862 131.27,54.5862 131.27,54.7662 131.45,54.7662 131.45,55.126 131.629,55.126 131.629,55.3059 131.809,55.3059 131.809,55.4857 131.989,55.4857 131.989,55.6657 132.169,55.6657 132.169,55.8457 132.529,55.8457 132.529,56.0255 132.709,56.0255 132.709,56.2055 133.069,56.2055 133.069,56.3852 133.609,56.3852 133.609,46.8497 133.789,46.8497 133.789,46.4899 133.968,46.4899 133.968,46.3099 134.148,46.3099 134.148,46.1302 134.328,46.1302 134.328,45.9502 131.629,45.9502 131.629,46.1302 131.989,46.1302 131.989,46.3099 132.169,46.3099 132.169,46.6699 132.349,46.6699 132.349,53.3267 132.169,53.3267 132.169,53.1469 131.989,53.1469 131.989,52.9669 131.809,52.9669 131.809,52.6072 131.629,52.6072 131.629,52.4272 131.45,52.4272 131.45,52.2472 131.27,52.2472 131.27,52.0674 131.09,52.0674 131.09,51.7075 130.91,51.7075 130.91,51.5277 130.73,51.5277 130.73,51.3477 130.55,51.3477 130.55,51.1677 130.37,51.1677 130.37,50.8079 130.19,50.8079 130.19,50.628 130.01,50.628 130.01,50.4482 129.83,50.4482 129.83,50.2682 129.65,50.2682 129.65,49.9084 129.47,49.9084 129.47,49.7284 129.291,49.7284 129.291,49.5484 129.111,49.5484 129.111,49.3687 128.931,49.3687 128.931,49.0087 128.751,49.0087 128.751,48.8289 128.571,48.8289 128.571,48.6489 128.391,48.6489 128.391,48.4689 128.211,48.4689 128.211,48.1092 128.031,48.1092 128.031,47.9292 127.851,47.9292 127.851,47.7494 127.671,47.7494 127.671,47.3894 127.491,47.3894 127.491,47.2097 127.311,47.2097 127.311,47.0297 127.132,47.0297 127.132,46.8497 126.952,46.8497 126.952,46.4899 126.772,46.4899 126.772,46.3099 126.592,46.3099 126.592,45.9502 124.253,45.9502 "/>
   <path id="_561260728" class="fil0" d="M35.1936 41.0924l0.18 0 0 -0.18 0.18 0 0 -0.1798 0.1797 0 0 -0.1799 0.7198 0 0 0.1799 0.18 0 0 0.1798 0.1797 0 0 0.18 0.18 0 0 0.8995 -0.18 0 0 0.18 -0.1797 0 0 0.18 -1.0795 0 0 -0.18 -0.18 0 0 -0.18 -0.18 0 0 -0.8995zm8.0963 -8.0963l-0.1798 0 0 0.3598 -0.18 0 0 0.36 -0.18 0 0 0.1798 -0.1798 0 0 0.3599 -0.18 0 0 0.1798 -0.1799 0 0 0.18 -0.1798 0 0 0.3598 -0.18 0 0 0.1799 -0.18 0 0 0.18 -0.1798 0 0 0.1798 -0.18 0 0 0.18 -0.1799 0 0 0.18 -0.1798 0 0 0.1798 -0.18 0 0 0.1799 -0.3598 0 0 0.18 -0.18 0 0 0.1798 -0.18 0 0 0.18 -0.1797 0 0 0.18 -0.36 0 0 0.1798 -0.1798 0 0 0.1799 -0.36 0 0 0.18 -0.1797 0 0 0.1798 -0.36 0 0 0.18 -0.3598 0 0 0.18 -0.18 0 0 0.1798 -0.3597 0 0 0.18 -0.3598 0 0 0.1799 -0.36 0 0 0.1798 -0.3597 0 0 0.18 -0.3598 0 0 0.18 -0.18 0 0 0.1798 -0.3597 0 0 0.18 -0.18 0 0 0.1799 -0.18 0 0 0.1798 -0.1798 0 0 0.18 -0.18 0 0 0.18 -0.1798 0 0 0.1798 -0.1799 0 0 0.18 -0.18 0 0 0.3597 -0.1798 0 0 0.7198 -0.18 0 0 0.3597 0.18 0 0 0.7198 0.1798 0 0 0.3597 0.18 0 0 0.18 0.1799 0 0 0.3598 0.1798 0 0 0.18 0.18 0 0 0.18 0.1798 0 0 0.1797 0.36 0 0 0.18 0.1797 0 0 0.18 0.18 0 0 0.1798 0.3598 0 0 0.18 0.36 0 0 0.18 0.1797 0 0 -0.18 0.18 0 0 -0.7198 0.18 0 0 -0.7195 0.1798 0 0 -0.5397 0.18 0 0 -0.36 0.18 0 0 -0.3598 0.1797 0 0 -0.3598 0.18 0 0 -0.1799 0.18 0 0 -0.3598 0.1798 0 0 -0.18 0.18 0 0 -0.18 0.18 0 0 -0.1798 0.1797 0 0 -0.1799 0.18 0 0 -0.18 0.18 0 0 -0.1798 0.1798 0 0 -0.18 0.18 0 0 -0.18 0.18 0 0 -0.1798 0.3597 0 0 -0.1799 0.18 0 0 -0.18 0.1798 0 0 -0.1798 0.36 0 0 -0.18 0.3597 0 0 -0.18 0.18 0 0 -0.1798 0.3598 0 0 -0.1799 0.3598 0 0 -0.18 0.1799 0 0 -0.1798 0.3598 0 0 -0.18 0.36 0 0 -0.18 0.3597 0 0 -0.1798 0.18 0 0 -0.18 0.3598 0 0 -0.1799 0.18 0 0 -0.1798 0.1798 0 0 -0.18 0.1799 0 0 -0.18 0.18 0 0 -0.1798 0.1798 0 0 -0.3599 0.18 0 0 -0.1798 0.18 0 0 -0.36 0.1798 0 0 -0.5397 0.18 0 0 -1.0795 -0.18 0 0 -0.1798 -0.1798 0 0 -0.18 -0.18 0 0 -0.18 -0.18 0 0 -0.1798 -0.3598 0 0 -0.18 -0.1799 0 0 -0.18 -0.3598 0 0 -0.1797 -0.7197 0 0 0.3597z"/>
   <path id="_561260536" class="fil0" d="M22.2398 41.0924l0.1797 0 0 -0.3598 0.36 0 0 -0.1799 0.8995 0 0 0.1799 0.3598 0 0 0.3598 0.18 0 0 0.7197 -0.18 0 0 0.3598 -0.1798 0 0 0.18 -1.2595 0 0 -0.18 -0.18 0 0 -0.3598 -0.1797 0 0 -0.7197zm-6.837 -8.2763l-0.3598 0 0 0.18 -0.3598 0 0 0.18 -0.18 0 0 0.1798 -0.1799 0 0 0.18 -0.1798 0 0 0.18 -0.18 0 0 0.1798 -0.18 0 0 0.3599 -0.1798 0 0 0.7196 0.1798 0 0 0.5397 0.18 0 0 0.36 0.18 0 0 0.1798 0.1798 0 0 0.1799 0.1799 0 0 0.18 0.18 0 0 0.1798 0.1798 0 0 0.18 0.18 0 0 0.18 0.18 0 0 0.1798 0.3597 0 0 0.1799 0.18 0 0 0.18 0.3598 0 0 0.1798 0.3598 0 0 0.18 0.3599 0 0 0.18 0.1798 0 0 0.1798 0.36 0 0 0.18 0.3598 0 0 0.1799 0.3597 0 0 0.1798 0.18 0 0 0.18 0.3598 0 0 0.18 0.18 0 0 0.1798 0.1799 0 0 0.18 0.3598 0 0 0.1799 0.18 0 0 0.1798 0.1798 0 0 0.18 0.18 0 0 0.18 0.1799 0 0 0.1798 0.1798 0 0 0.18 0.18 0 0 0.1799 0.18 0 0 0.1798 0.1798 0 0 0.36 0.18 0 0 0.1798 0.18 0 0 0.3599 0.1797 0 0 0.1798 0.18 0 0 0.36 0.18 0 0 0.5398 0.1798 0 0 0.3597 0.18 0 0 0.7198 0.18 0 0 0.7195 0.1797 0 0 0.36 0.36 0 0 -0.18 0.3598 0 0 -0.18 0.18 0 0 -0.1798 0.3597 0 0 -0.18 0.18 0 0 -0.18 0.1798 0 0 -0.1797 0.36 0 0 -0.36 0.1797 0 0 -0.1798 0.18 0 0 -0.18 0.18 0 0 -0.18 0.1798 0 0 -0.5397 0.18 0 0 -1.4393 -0.18 0 0 -0.3598 -0.1798 0 0 -0.3599 -0.18 0 0 -0.1798 -0.18 0 0 -0.18 -0.1797 0 0 -0.18 -0.18 0 0 -0.1798 -0.18 0 0 -0.1799 -0.1798 0 0 -0.18 -0.36 0 0 -0.1798 -0.1797 0 0 -0.18 -0.36 0 0 -0.18 -0.3598 0 0 -0.1798 -0.3597 0 0 -0.1799 -0.36 0 0 -0.18 -0.3598 0 0 -0.1798 -0.3597 0 0 -0.18 -0.18 0 0 -0.18 -0.3598 0 0 -0.1798 -0.18 0 0 -0.18 -0.3598 0 0 -0.1799 -0.1799 0 0 -0.1798 -0.3598 0 0 -0.18 -0.18 0 0 -0.18 -0.18 0 0 -0.1798 -0.3597 0 0 -0.18 -0.18 0 0 -0.1799 -0.1798 0 0 -0.1798 -0.18 0 0 -0.18 -0.18 0 0 -0.18 -0.1798 0 0 -0.1798 -0.1799 0 0 -0.18 -0.18 0 0 -0.1799 -0.1798 0 0 -0.1798 -0.18 0 0 -0.36 -0.18 0 0 -0.1798 -0.1798 0 0 -0.18 -0.18 0 0 -0.3597 -0.1799 0 0 -0.36 -0.1798 0 0 -0.3598 -0.18 0 0 -0.3597 -0.7197 0 0 0.1797z"/>
   <path id="_561260056" class="fil0" d="M84.1312 50.9879l0.1798 0 0 -0.3599 0.18 0 0 -0.5398 0.18 0 0 -0.5398 0.1797 0 0 -0.3597 0.18 0 0 -0.5398 0.18 0 0 -0.3597 0.1798 0 0 -0.5398 0.18 0 0 -0.18 0.18 0 0 0.3598 0.1797 0 0 0.5397 0.18 0 0 0.5398 0.18 0 0 0.36 0.1798 0 0 0.5397 0.18 0 0 0.3598 0.18 0 0 0.5397 0.1797 0 0 0.3598 -2.8785 0 0 -0.1798zm0 -4.8577l0.3598 0 0 0.1797 0.18 0 0 0.5398 -0.18 0 0 0.5397 -0.18 0 0 0.5398 -0.1798 0 0 0.36 -0.18 0 0 0.5397 -0.18 0 0 0.3598 -0.1797 0 0 0.5397 -0.18 0 0 0.3598 -0.18 0 0 0.5398 -0.1798 0 0 0.3599 -0.18 0 0 0.5398 -0.18 0 0 0.3597 -0.1797 0 0 0.5398 -0.18 0 0 0.3598 -0.18 0 0 0.5397 -0.1798 0 0 0.36 -0.18 0 0 0.5397 -0.18 0 0 0.3598 -0.1797 0 0 0.3598 -0.18 0 0 0.3599 -0.18 0 0 0.1798 -0.1798 0 0 0.18 -0.18 0 0 0.18 -0.3598 0 0 0.1798 2.8786 0 0 -0.1798 -0.3598 0 0 -0.36 -0.18 0 0 -0.5397 0.18 0 0 -0.5398 0.18 0 0 -0.3597 0.1798 0 0 -0.5398 0.18 0 0 -0.5398 0.18 0 0 -0.5397 0.1797 0 0 -0.18 3.7783 0 0 0.36 0.18 0 0 0.5397 0.18 0 0 0.3598 0.1797 0 0 0.5398 0.18 0 0 0.5397 0.18 0 0 0.3598 0.1798 0 0 0.7197 -0.1798 0 0 0.18 -0.36 0 0 0.1798 3.2386 0 0 -0.1798 -0.3598 0 0 -0.18 -0.18 0 0 -0.18 -0.1798 0 0 -0.1798 -0.18 0 0 -0.3599 -0.1799 0 0 -0.3598 -0.1798 0 0 -0.5397 -0.18 0 0 -0.3598 -0.18 0 0 -0.36 -0.1798 0 0 -0.5397 -0.18 0 0 -0.3598 -0.1799 0 0 -0.5398 -0.1798 0 0 -0.3597 -0.18 0 0 -0.5398 -0.18 0 0 -0.3599 -0.1798 0 0 -0.5398 -0.18 0 0 -0.3598 -0.18 0 0 -0.5397 -0.1797 0 0 -0.3598 -0.18 0 0 -0.5397 -0.18 0 0 -0.36 -0.1798 0 0 -0.5398 -0.18 0 0 -0.3597 -0.18 0 0 -0.5398 -0.1797 0 0 -0.3597 -0.18 0 0 -0.18 -2.5188 0 0 0.18z"/>
   <polygon id="_561260032" class="fil0" points="86.47,32.9961 86.83,32.9961 86.83,33.1761 87.0097,33.1761 87.0097,33.5359 87.1897,33.5359 87.1897,40.9124 87.0097,40.9124 87.0097,41.2724 86.83,41.2724 86.83,41.4522 86.65,41.4522 86.65,41.6322 88.989,41.6322 88.989,41.4522 88.629,41.4522 88.629,41.2724 88.4492,41.2724 88.4492,40.7326 88.2692,40.7326 88.2692,34.9752 88.4492,34.9752 88.4492,35.1551 88.629,35.1551 88.629,35.3351 88.809,35.3351 88.809,35.6949 88.989,35.6949 88.989,35.8749 89.1688,35.8749 89.1688,36.0547 89.3487,36.0547 89.3487,36.4146 89.5287,36.4146 89.5287,36.5944 89.7085,36.5944 89.7085,36.7744 89.8885,36.7744 89.8885,36.9544 90.0685,36.9544 90.0685,37.3141 90.2483,37.3141 90.2483,37.4941 90.4282,37.4941 90.4282,37.6739 90.6082,37.6739 90.6082,37.8539 90.788,37.8539 90.788,38.2137 90.968,38.2137 90.968,38.3937 91.148,38.3937 91.148,38.5736 91.3278,38.5736 91.3278,38.9334 91.5077,38.9334 91.5077,39.1134 91.6877,39.1134 91.6877,39.2932 91.8675,39.2932 91.8675,39.4732 92.0475,39.4732 92.0475,39.8329 92.2275,39.8329 92.2275,40.0129 92.4073,40.0129 92.4073,40.1929 92.5873,40.1929 92.5873,40.3727 92.7672,40.3727 92.7672,40.7326 92.947,40.7326 92.947,40.9124 93.127,40.9124 93.127,41.0924 93.307,41.0924 93.307,41.2724 93.4868,41.2724 93.4868,41.4522 93.6668,41.4522 93.6668,41.6322 94.0265,41.6322 94.0265,41.8121 94.3865,41.8121 94.3865,41.9919 94.9262,41.9919 94.9262,33.3559 95.106,33.3559 95.106,33.1761 95.286,33.1761 95.286,32.9961 95.466,32.9961 95.466,32.8161 93.127,32.8161 93.127,32.9961 93.307,32.9961 93.307,33.1761 93.4868,33.1761 93.4868,33.3559 93.6668,33.3559 93.6668,34.2556 93.8467,34.2556 93.8467,39.4732 93.6668,39.4732 93.6668,39.2932 93.4868,39.2932 93.4868,39.1134 93.307,39.1134 93.307,38.7534 93.127,38.7534 93.127,38.5736 92.947,38.5736 92.947,38.3937 92.7672,38.3937 92.7672,38.0339 92.5873,38.0339 92.5873,37.8539 92.4073,37.8539 92.4073,37.6739 92.2275,37.6739 92.2275,37.4941 92.0475,37.4941 92.0475,37.1342 91.8675,37.1342 91.8675,36.9544 91.6877,36.9544 91.6877,36.7744 91.5077,36.7744 91.5077,36.5944 91.3278,36.5944 91.3278,36.2346 91.148,36.2346 91.148,36.0547 90.968,36.0547 90.968,35.8749 90.788,35.8749 90.788,35.5149 90.6082,35.5149 90.6082,35.3351 90.4282,35.3351 90.4282,35.1551 90.2483,35.1551 90.2483,34.9752 90.0685,34.9752 90.0685,34.6154 89.8885,34.6154 89.8885,34.4354 89.7085,34.4354 89.7085,34.2556 89.5287,34.2556 89.5287,34.0756 89.3487,34.0756 89.3487,33.7159 89.1688,33.7159 89.1688,33.5359 88.989,33.5359 88.989,33.3559 88.809,33.3559 88.809,32.9961 88.629,32.9961 88.629,32.8161 86.47,32.8161 "/>
   <polygon id="_561260200" class="fil0" points="124.793,32.9961 125.152,32.9961 125.152,33.1761 125.332,33.1761 125.332,33.5359 125.512,33.5359 125.512,40.9124 125.332,40.9124 125.332,41.2724 125.152,41.2724 125.152,41.4522 124.973,41.4522 124.973,41.6322 127.311,41.6322 127.311,41.4522 126.952,41.4522 126.952,41.2724 126.772,41.2724 126.772,40.7326 126.592,40.7326 126.592,34.9752 126.772,34.9752 126.772,35.1551 126.952,35.1551 126.952,35.3351 127.132,35.3351 127.132,35.6949 127.311,35.6949 127.311,35.8749 127.491,35.8749 127.491,36.0547 127.671,36.0547 127.671,36.4146 127.851,36.4146 127.851,36.5944 128.031,36.5944 128.031,36.7744 128.211,36.7744 128.211,36.9544 128.391,36.9544 128.391,37.3141 128.571,37.3141 128.571,37.4941 128.751,37.4941 128.751,37.6739 128.931,37.6739 128.931,37.8539 129.111,37.8539 129.111,38.2137 129.291,38.2137 129.291,38.3937 129.47,38.3937 129.47,38.5736 129.65,38.5736 129.65,38.9334 129.83,38.9334 129.83,39.1134 130.01,39.1134 130.01,39.2932 130.19,39.2932 130.19,39.4732 130.37,39.4732 130.37,39.8329 130.55,39.8329 130.55,40.0129 130.73,40.0129 130.73,40.1929 130.91,40.1929 130.91,40.3727 131.09,40.3727 131.09,40.7326 131.27,40.7326 131.27,40.9124 131.45,40.9124 131.45,41.0924 131.629,41.0924 131.629,41.2724 131.809,41.2724 131.809,41.4522 131.989,41.4522 131.989,41.6322 132.349,41.6322 132.349,41.8121 132.709,41.8121 132.709,41.9919 133.249,41.9919 133.249,33.3559 133.429,33.3559 133.429,33.1761 133.609,33.1761 133.609,32.9961 133.789,32.9961 133.789,32.8161 131.45,32.8161 131.45,32.9961 131.629,32.9961 131.629,33.1761 131.809,33.1761 131.809,33.3559 131.989,33.3559 131.989,34.2556 132.169,34.2556 132.169,39.4732 131.989,39.4732 131.989,39.2932 131.809,39.2932 131.809,39.1134 131.629,39.1134 131.629,38.7534 131.45,38.7534 131.45,38.5736 131.27,38.5736 131.27,38.3937 131.09,38.3937 131.09,38.0339 130.91,38.0339 130.91,37.8539 130.73,37.8539 130.73,37.6739 130.55,37.6739 130.55,37.4941 130.37,37.4941 130.37,37.1342 130.19,37.1342 130.19,36.9544 130.01,36.9544 130.01,36.7744 129.83,36.7744 129.83,36.5944 129.65,36.5944 129.65,36.2346 129.47,36.2346 129.47,36.0547 129.291,36.0547 129.291,35.8749 129.111,35.8749 129.111,35.5149 128.931,35.5149 128.931,35.3351 128.751,35.3351 128.751,35.1551 128.571,35.1551 128.571,34.9752 128.391,34.9752 128.391,34.6154 128.211,34.6154 128.211,34.4354 128.031,34.4354 128.031,34.2556 127.851,34.2556 127.851,34.0756 127.671,34.0756 127.671,33.7159 127.491,33.7159 127.491,33.5359 127.311,33.5359 127.311,33.3559 127.132,33.3559 127.132,32.9961 126.952,32.9961 126.952,32.8161 124.793,32.8161 "/>
   <path id="_561259504" class="fil0" d="M76.9345 40.0129l-0.18 0 0 0.18 -0.1798 0 0 0.1798 -0.36 0 0 0.18 -0.5397 0 0 0.1799 -0.8996 0 0 -0.1799 -0.8995 0 0 -3.2386 1.979 0 0 0.18 0.3598 0 0 0.1798 0.36 0 0 0.18 0.1798 0 0 0.18 0.18 0 0 0.3598 0.1799 0 0 1.2594 -0.1799 0 0 0.3598zm-0.7198 -4.318l-0.1798 0 0 0.18 -0.18 0 0 0.1798 -0.5397 0 0 0.1799 -1.4393 0 0 -2.3389 0.3598 0 0 -0.1798 1.0795 0 0 0.1798 0.3598 0 0 0.1799 0.3599 0 0 0.18 0.1798 0 0 0.5398 0.18 0 0 0.5397 -0.18 0 0 0.3598zm-4.318 -2.6988l0.18 0 0 0.18 0.18 0 0 0.5398 0.1797 0 0 7.0167 -0.1797 0 0 0.5398 -0.18 0 0 0.1798 -0.18 0 0 0.18 4.498 0 0 -0.18 0.5398 0 0 -0.1798 0.3597 0 0 -0.18 0.36 0 0 -0.18 0.1798 0 0 -0.1798 0.18 0 0 -0.1799 0.1799 0 0 -0.18 0.1798 0 0 -0.3598 0.18 0 0 -0.3598 0.18 0 0 -1.6192 -0.18 0 0 -0.36 -0.18 0 0 -0.1798 -0.1798 0 0 -0.18 -0.1799 0 0 -0.1799 -0.18 0 0 -0.1798 -0.1798 0 0 -0.18 -0.36 0 0 -0.18 -0.5397 0 0 -0.1798 0.18 0 0 -0.18 0.3597 0 0 -0.1799 0.18 0 0 -0.1798 0.18 0 0 -0.36 0.1798 0 0 -1.4393 -0.1798 0 0 -0.3597 -0.18 0 0 -0.18 -0.18 0 0 -0.18 -0.1798 0 0 -0.1798 -0.3599 0 0 -0.18 -0.5398 0 0 -0.18 -4.318 0 0 0.18z"/>
   <polygon id="_561259864" class="fil0" points="75.675,45.9502 74.9554,45.9502 74.9554,46.1302 74.4157,46.1302 74.4157,46.3099 74.0557,46.3099 74.0557,46.4899 73.8759,46.4899 73.8759,46.6699 73.516,46.6699 73.516,46.8497 73.3362,46.8497 73.3362,47.0297 73.1562,47.0297 73.1562,47.2097 72.9762,47.2097 72.9762,47.3894 72.7964,47.3894 72.7964,47.5694 72.6164,47.5694 72.6164,47.9292 72.4364,47.9292 72.4364,48.1092 72.2567,48.1092 72.2567,48.4689 72.0767,48.4689 72.0767,48.8289 71.8967,48.8289 71.8967,49.3687 71.7169,49.3687 71.7169,50.4482 71.5369,50.4482 71.5369,51.5277 71.7169,51.5277 71.7169,52.6072 71.8967,52.6072 71.8967,53.1469 72.0767,53.1469 72.0767,53.5067 72.2567,53.5067 72.2567,53.8665 72.4364,53.8665 72.4364,54.0465 72.6164,54.0465 72.6164,54.4062 72.7964,54.4062 72.7964,54.5862 72.9762,54.5862 72.9762,54.7662 73.1562,54.7662 73.1562,54.946 73.3362,54.946 73.3362,55.126 73.6959,55.126 73.6959,55.3059 73.8759,55.3059 73.8759,55.4857 74.2357,55.4857 74.2357,55.6657 74.5955,55.6657 74.5955,55.8457 75.1352,55.8457 75.1352,56.0255 75.8549,56.0255 75.8549,56.2055 78.9135,56.2055 78.9135,56.0255 79.4532,56.0255 79.4532,55.8457 79.8132,55.8457 79.8132,55.6657 79.993,55.6657 79.993,55.126 80.173,55.126 80.173,54.7662 80.3529,54.7662 80.3529,54.4062 80.5327,54.4062 80.5327,54.0465 80.173,54.0465 80.173,54.2264 79.993,54.2264 79.993,54.4062 79.6332,54.4062 79.6332,54.5862 79.0935,54.5862 79.0935,54.7662 78.7337,54.7662 78.7337,54.946 77.834,54.946 77.834,55.126 76.7545,55.126 76.7545,54.946 76.0349,54.946 76.0349,54.7662 75.4952,54.7662 75.4952,54.5862 75.3152,54.5862 75.3152,54.4062 74.9554,54.4062 74.9554,54.2264 74.7754,54.2264 74.7754,54.0465 74.5955,54.0465 74.5955,53.8665 74.4157,53.8665 74.4157,53.5067 74.2357,53.5067 74.2357,53.3267 74.0557,53.3267 74.0557,52.9669 73.8759,52.9669 73.8759,52.6072 73.6959,52.6072 73.6959,52.0674 73.516,52.0674 73.516,49.5484 73.6959,49.5484 73.6959,49.0087 73.8759,49.0087 73.8759,48.6489 74.0557,48.6489 74.0557,48.2892 74.2357,48.2892 74.2357,48.1092 74.4157,48.1092 74.4157,47.9292 74.5955,47.9292 74.5955,47.7494 74.7754,47.7494 74.7754,47.5694 74.9554,47.5694 74.9554,47.3894 75.3152,47.3894 75.3152,47.2097 75.675,47.2097 75.675,47.0297 76.3947,47.0297 76.3947,46.8497 77.4742,46.8497 77.4742,47.0297 78.1939,47.0297 78.1939,47.2097 78.7337,47.2097 78.7337,47.3894 79.0935,47.3894 79.0935,47.5694 79.2734,47.5694 79.2734,47.7494 79.6332,47.7494 79.6332,47.9292 79.8132,47.9292 79.8132,46.1302 79.4532,46.1302 79.4532,45.9502 78.5537,45.9502 78.5537,45.7702 75.675,45.7702 "/>
   <path id="_561260080" class="fil0" d="M110.039 66.6405l0.18 0 0 -0.3597 0.18 0 0 -0.5398 0.1797 0 0 -0.3598 0.18 0 0 -0.3599 0.18 0 0 0.5397 0.1798 0 0 0.36 0.18 0 0 0.5397 0.18 0 0 0.3598 0.1797 0 0 0.18 -1.6192 0 0 -0.36zm-7.3766 -2.5188l0.18 0 0 0.18 0.1798 0 0 5.5773 -0.1798 0 0 0.18 -0.18 0 0 0.18 1.7993 0 0 -0.18 -0.18 0 0 -0.3597 -0.18 0 0 -4.8578 0.18 0 0 -0.18 0.7197 0 0 0.18 0.5398 0 0 0.1798 0.1798 0 0 0.3599 0.18 0 0 0.7196 -0.18 0 0 0.18 -0.1798 0 0 0.1799 -0.18 0 0 0.1798 -0.3598 0 0 0.18 -0.5397 0 0 0.18 -0.18 0 0 0.1798 0.18 0 0 0.3599 0.1798 0 0 0.1798 0.18 0 0 0.36 0.1799 0 0 0.1798 0.1798 0 0 0.3599 0.18 0 0 0.1798 0.18 0 0 0.18 0.1798 0 0 0.18 0.18 0 0 0.3598 0.1799 0 0 0.18 0.1798 0 0 0.1797 0.18 0 0 0.18 0.3598 0 0 0.18 2.519 0 0 -0.18 -0.18 0 0 -0.18 -0.18 0 0 -0.1797 0.18 0 0 -0.5398 0.18 0 0 -0.5398 0.1797 0 0 -0.3599 0.18 0 0 -0.5398 2.339 0 0 0.5398 0.1798 0 0 0.3599 0.18 0 0 0.5398 0.18 0 0 0.5398 0.1797 0 0 0.3597 -0.3597 0 0 0.18 1.979 0 0 -0.18 -0.1798 0 0 -0.18 -0.18 0 0 -0.1797 -0.18 0 0 -0.36 -0.1797 0 0 -0.3598 -0.18 0 0 -0.5397 -0.18 0 0 -0.3598 -0.1798 0 0 -0.5398 -0.18 0 0 -0.3599 -0.18 0 0 -0.5398 -0.1797 0 0 -0.3597 -0.18 0 0 -0.3598 -0.18 0 0 -0.5398 -0.1798 0 0 -0.3599 -0.18 0 0 -0.5398 -0.18 0 0 -0.3598 -0.1797 0 0 -0.1799 -1.6193 0 0 0.1799 0.3598 0 0 0.3598 -0.18 0 0 0.5398 -0.1798 0 0 0.5397 -0.18 0 0 0.36 -0.18 0 0 0.5397 -0.1797 0 0 0.3598 -0.18 0 0 0.5398 -0.18 0 0 0.3597 -0.1798 0 0 0.5398 -0.18 0 0 0.3599 -0.18 0 0 0.5398 -0.1798 0 0 0.3598 -0.1799 0 0 0.3597 -0.18 0 0 -0.1797 -0.3598 0 0 -0.18 -0.18 0 0 -0.18 -0.1798 0 0 -0.1798 -0.1799 0 0 -0.18 -0.18 0 0 -0.18 -0.1798 0 0 -0.3597 -0.18 0 0 -0.18 -0.18 0 0 -0.1798 -0.1798 0 0 -0.18 -0.1799 0 0 -0.3598 -0.18 0 0 -0.1799 -0.1798 0 0 -0.18 0.3598 0 0 -0.1798 0.1799 0 0 -0.18 0.3598 0 0 -0.18 0.18 0 0 -0.3597 0.1798 0 0 -0.18 0.18 0 0 -1.0795 -0.18 0 0 -0.3598 -0.1798 0 0 -0.18 -0.18 0 0 -0.1798 -0.18 0 0 -0.18 -0.3597 0 0 -0.1799 -3.2386 0 0 0.1799z"/>
   <polygon id="_561259576" class="fil0" points="71.3569,64.6615 71.1772,64.6615 71.1772,65.0213 71.3569,65.0213 71.3569,64.8415 71.8967,64.8415 71.8967,64.6615 73.1562,64.6615 73.1562,69.6993 72.9762,69.6993 72.9762,70.059 72.7964,70.059 72.7964,70.239 74.5955,70.239 74.5955,70.059 74.4157,70.059 74.4157,69.879 74.2357,69.879 74.2357,64.6615 75.3152,64.6615 75.3152,64.8415 75.675,64.8415 75.675,65.0213 76.0349,65.0213 76.0349,64.3017 76.2147,64.3017 76.2147,64.1217 76.3947,64.1217 76.3947,68.7995 76.5747,68.7995 76.5747,69.3393 76.7545,69.3393 76.7545,69.6993 76.9345,69.6993 76.9345,69.879 77.1144,69.879 77.1144,70.059 77.4742,70.059 77.4742,70.239 77.834,70.239 77.834,70.4188 79.6332,70.4188 79.6332,70.239 79.993,70.239 79.993,70.059 80.173,70.059 80.173,69.879 80.3529,69.879 80.3529,69.6993 80.5327,69.6993 80.5327,70.239 81.9722,70.239 81.9722,70.059 81.7922,70.059 81.7922,69.879 81.6122,69.879 81.6122,64.4815 81.7922,64.4815 81.7922,64.1217 81.9722,64.1217 81.9722,63.9418 80.173,63.9418 80.173,64.1217 80.3529,64.1217 80.3529,64.3017 80.5327,64.3017 80.5327,68.7995 80.3529,68.7995 80.3529,69.1595 80.173,69.1595 80.173,69.3393 79.8132,69.3393 79.8132,69.5193 79.4532,69.5193 79.4532,69.6993 78.5537,69.6993 78.5537,69.5193 78.1939,69.5193 78.1939,69.3393 78.014,69.3393 78.014,69.1595 77.834,69.1595 77.834,68.9795 77.6542,68.9795 77.6542,68.2598 77.4742,68.2598 77.4742,64.6615 77.6542,64.6615 77.6542,64.1217 77.834,64.1217 77.834,63.9418 71.3569,63.9418 "/>
   <polygon id="_561258808" class="fil0" points="79.6332,32.9961 79.993,32.9961 79.993,33.3559 80.173,33.3559 80.173,41.0924 79.993,41.0924 79.993,41.4522 79.6332,41.4522 79.6332,41.6322 85.3905,41.6322 85.3905,41.0924 85.5705,41.0924 85.5705,40.5527 85.7505,40.5527 85.7505,39.8329 85.5705,39.8329 85.5705,40.0129 85.3905,40.0129 85.3905,40.1929 85.2107,40.1929 85.2107,40.3727 84.8507,40.3727 84.8507,40.5527 84.1312,40.5527 84.1312,40.7326 82.8717,40.7326 82.8717,40.5527 81.6122,40.5527 81.6122,37.1342 83.2315,37.1342 83.2315,37.3141 83.5915,37.3141 83.5915,37.4941 83.7712,37.4941 83.7712,37.6739 83.9512,37.6739 83.9512,36.4146 83.7712,36.4146 83.7712,36.2346 81.6122,36.2346 81.6122,33.8957 81.9722,33.8957 81.9722,33.7159 83.5915,33.7159 83.5915,33.8957 84.1312,33.8957 84.1312,34.0756 84.311,34.0756 84.311,34.2556 84.671,34.2556 84.671,32.8161 79.6332,32.8161 "/>
   <polygon id="_561258784" class="fil0" points="82.8717,64.1217 83.0517,64.1217 83.0517,64.3017 83.2315,64.3017 83.2315,69.879 83.0517,69.879 83.0517,70.059 82.8717,70.059 82.8717,70.239 84.491,70.239 84.491,70.059 84.311,70.059 84.311,69.879 84.1312,69.879 84.1312,65.561 84.311,65.561 84.311,65.921 84.491,65.921 84.491,66.1008 84.671,66.1008 84.671,66.2808 84.8507,66.2808 84.8507,66.4607 85.0307,66.4607 85.0307,66.8205 85.2107,66.8205 85.2107,67.0005 85.3905,67.0005 85.3905,67.1803 85.5705,67.1803 85.5705,67.5402 85.7505,67.5402 85.7505,67.72 85.9302,67.72 85.9302,67.9 86.1102,67.9 86.1102,68.08 86.2902,68.08 86.2902,68.4398 86.47,68.4398 86.47,68.6197 86.65,68.6197 86.65,68.7995 86.83,68.7995 86.83,68.9795 87.0097,68.9795 87.0097,69.3393 87.1897,69.3393 87.1897,69.5193 87.3697,69.5193 87.3697,69.6993 87.5495,69.6993 87.5495,69.879 87.7295,69.879 87.7295,70.059 87.9095,70.059 87.9095,70.239 88.2692,70.239 88.2692,70.4188 88.809,70.4188 88.809,64.3017 88.989,64.3017 88.989,64.1217 89.1688,64.1217 89.1688,63.9418 87.5495,63.9418 87.5495,64.1217 87.7295,64.1217 87.7295,64.3017 87.9095,64.3017 87.9095,68.4398 87.7295,68.4398 87.7295,68.2598 87.5495,68.2598 87.5495,68.08 87.3697,68.08 87.3697,67.72 87.1897,67.72 87.1897,67.5402 87.0097,67.5402 87.0097,67.3603 86.83,67.3603 86.83,67.1803 86.65,67.1803 86.65,66.8205 86.47,66.8205 86.47,66.6405 86.2902,66.6405 86.2902,66.4607 86.1102,66.4607 86.1102,66.2808 85.9302,66.2808 85.9302,65.921 85.7505,65.921 85.7505,65.741 85.5705,65.741 85.5705,65.561 85.3905,65.561 85.3905,65.3812 85.2107,65.3812 85.2107,65.0213 85.0307,65.0213 85.0307,64.8415 84.8507,64.8415 84.8507,64.6615 84.671,64.6615 84.671,64.3017 84.491,64.3017 84.491,64.1217 84.311,64.1217 84.311,63.9418 82.8717,63.9418 "/>
   <polygon id="_561259096" class="fil0" points="96.1855,32.9961 96.5455,32.9961 96.5455,33.3559 96.7253,33.3559 96.7253,42.7117 96.5455,42.7117 96.5455,43.2514 96.3655,43.2514 96.3655,43.6112 96.1855,43.6112 96.1855,43.7912 96.0057,43.7912 96.0057,43.9712 95.8258,43.9712 95.8258,44.1509 95.6458,44.1509 95.6458,44.3309 95.466,44.3309 95.466,44.5109 95.106,44.5109 95.106,44.6907 95.8258,44.6907 95.8258,44.5109 96.5455,44.5109 96.5455,44.3309 96.9053,44.3309 96.9053,44.1509 97.265,44.1509 97.265,43.9712 97.445,43.9712 97.445,43.7912 97.625,43.7912 97.625,43.6112 97.8048,43.6112 97.8048,43.4314 97.9847,43.4314 97.9847,43.0714 98.1647,43.0714 98.1647,33.8957 98.3447,33.8957 98.3447,33.1761 98.5247,33.1761 98.5247,32.9961 98.7047,32.9961 98.7047,32.8161 96.1855,32.8161 "/>
   <polygon id="_561259048" class="fil0" points="114.717,64.1217 114.897,64.1217 114.897,64.4815 115.077,64.4815 115.077,69.6993 114.897,69.6993 114.897,70.059 114.717,70.059 114.717,70.239 116.516,70.239 116.516,70.059 116.337,70.059 116.337,69.879 116.157,69.879 116.157,67.1803 119.395,67.1803 119.395,70.059 119.035,70.059 119.035,70.239 121.014,70.239 121.014,70.059 120.655,70.059 120.655,69.5193 120.475,69.5193 120.475,64.8415 120.655,64.8415 120.655,64.1217 121.014,64.1217 121.014,63.9418 119.035,63.9418 119.035,64.1217 119.395,64.1217 119.395,66.4607 116.157,66.4607 116.157,64.3017 116.337,64.3017 116.337,64.1217 116.516,64.1217 116.516,63.9418 114.717,63.9418 "/>
   <polygon id="_561258832" class="fil0" points="92.2275,63.9418 91.6877,63.9418 91.6877,64.1217 91.148,64.1217 91.148,64.3017 90.968,64.3017 90.968,64.4815 90.6082,64.4815 90.6082,64.6615 90.4282,64.6615 90.4282,64.8415 90.2483,64.8415 90.2483,65.0213 90.0685,65.0213 90.0685,65.3812 89.8885,65.3812 89.8885,65.741 89.7085,65.741 89.7085,66.1008 89.5287,66.1008 89.5287,68.08 89.7085,68.08 89.7085,68.6197 89.8885,68.6197 89.8885,68.9795 90.0685,68.9795 90.0685,69.1595 90.2483,69.1595 90.2483,69.3393 90.4282,69.3393 90.4282,69.5193 90.6082,69.5193 90.6082,69.6993 90.788,69.6993 90.788,69.879 91.148,69.879 91.148,70.059 91.5077,70.059 91.5077,70.239 92.0475,70.239 92.0475,70.4188 94.9262,70.4188 94.9262,70.239 95.8258,70.239 95.8258,69.879 95.6458,69.879 95.6458,67.3603 95.8258,67.3603 95.8258,67.0005 94.2065,67.0005 94.2065,67.1803 94.3865,67.1803 94.3865,67.3603 94.5663,67.3603 94.5663,69.5193 94.0265,69.5193 94.0265,69.6993 92.947,69.6993 92.947,69.5193 92.2275,69.5193 92.2275,69.3393 91.8675,69.3393 91.8675,69.1595 91.6877,69.1595 91.6877,68.9795 91.5077,68.9795 91.5077,68.7995 91.3278,68.7995 91.3278,68.6197 91.148,68.6197 91.148,68.4398 90.968,68.4398 90.968,68.08 90.788,68.08 90.788,67.1803 90.6082,67.1803 90.6082,66.8205 90.788,66.8205 90.788,65.921 90.968,65.921 90.968,65.561 91.148,65.561 91.148,65.3812 91.3278,65.3812 91.3278,65.2012 91.5077,65.2012 91.5077,65.0213 91.8675,65.0213 91.8675,64.8415 92.0475,64.8415 92.0475,64.6615 92.7672,64.6615 92.7672,64.4815 93.8467,64.4815 93.8467,64.6615 94.3865,64.6615 94.3865,64.8415 94.7463,64.8415 94.7463,65.0213 95.106,65.0213 95.106,63.9418 94.9262,63.9418 94.9262,63.762 92.2275,63.762 "/>
   <polygon id="_561258928" class="fil0" points="96.0057,64.1217 96.3655,64.1217 96.3655,68.7995 96.5455,68.7995 96.5455,69.3393 96.7253,69.3393 96.7253,69.6993 96.9053,69.6993 96.9053,69.879 97.0853,69.879 97.0853,70.059 97.445,70.059 97.445,70.239 97.8048,70.239 97.8048,70.4188 99.6037,70.4188 99.6037,70.239 99.9637,70.239 99.9637,70.059 100.144,70.059 100.144,69.879 100.324,69.879 100.324,69.6993 100.504,69.6993 100.504,70.239 101.943,70.239 101.943,70.059 101.763,70.059 101.763,69.879 101.583,69.879 101.583,64.4815 101.763,64.4815 101.763,64.1217 101.943,64.1217 101.943,63.9418 100.144,63.9418 100.144,64.1217 100.324,64.1217 100.324,64.3017 100.504,64.3017 100.504,68.7995 100.324,68.7995 100.324,69.1595 100.144,69.1595 100.144,69.3393 99.7837,69.3393 99.7837,69.5193 99.4237,69.5193 99.4237,69.6993 98.5247,69.6993 98.5247,69.5193 98.1647,69.5193 98.1647,69.3393 97.9847,69.3393 97.9847,69.1595 97.8048,69.1595 97.8048,68.9795 97.625,68.9795 97.625,68.2598 97.445,68.2598 97.445,64.6615 97.625,64.6615 97.625,64.1217 97.8048,64.1217 97.8048,63.9418 96.0057,63.9418 "/>
   <polygon id="_390382872" class="fil0" points="121.374,64.1217 121.734,64.1217 121.734,68.7995 121.914,68.7995 121.914,69.3393 122.094,69.3393 122.094,69.6993 122.274,69.6993 122.274,69.879 122.454,69.879 122.454,70.059 122.814,70.059 122.814,70.239 123.173,70.239 123.173,70.4188 124.973,70.4188 124.973,70.239 125.332,70.239 125.332,70.059 125.512,70.059 125.512,69.879 125.692,69.879 125.692,69.6993 125.872,69.6993 125.872,70.239 127.311,70.239 127.311,70.059 127.132,70.059 127.132,69.879 126.952,69.879 126.952,64.4815 127.132,64.4815 127.132,64.1217 127.311,64.1217 127.311,63.9418 125.512,63.9418 125.512,64.1217 125.692,64.1217 125.692,64.3017 125.872,64.3017 125.872,68.7995 125.692,68.7995 125.692,69.1595 125.512,69.1595 125.512,69.3393 125.152,69.3393 125.152,69.5193 124.793,69.5193 124.793,69.6993 123.893,69.6993 123.893,69.5193 123.533,69.5193 123.533,69.3393 123.353,69.3393 123.353,69.1595 123.173,69.1595 123.173,68.9795 122.993,68.9795 122.993,68.2598 122.814,68.2598 122.814,64.6615 122.993,64.6615 122.993,64.1217 123.173,64.1217 123.173,63.9418 121.374,63.9418 "/>
   <path id="_390382416" class="fil0" d="M130.19 66.6405l0.18 0 0 -0.3597 0.1797 0 0 -0.5398 0.18 0 0 -0.3598 0.18 0 0 -0.3599 0.1798 0 0 0.5397 0.18 0 0 0.36 0.18 0 0 0.5397 0.1797 0 0 0.3598 0.18 0 0 0.18 -1.6192 0 0 -0.36zm-0.18 -2.5188l0.36 0 0 0.3598 -0.18 0 0 0.5398 -0.18 0 0 0.5397 -0.1798 0 0 0.36 -0.18 0 0 0.5397 -0.18 0 0 0.3598 -0.1797 0 0 0.5398 -0.18 0 0 0.3597 -0.18 0 0 0.5398 -0.1798 0 0 0.3599 -0.18 0 0 0.5398 -0.18 0 0 0.3598 -0.1797 0 0 0.3597 -0.18 0 0 0.18 -0.3598 0 0 0.18 1.799 0 0 -0.18 -0.1797 0 0 -0.18 -0.18 0 0 -0.1797 0.18 0 0 -0.5398 0.1797 0 0 -0.5398 0.18 0 0 -0.3599 0.18 0 0 -0.5398 2.3388 0 0 0.5398 0.18 0 0 0.3599 0.18 0 0 0.5398 0.1798 0 0 0.5398 0.1799 0 0 0.3597 -0.3597 0 0 0.18 1.979 0 0 -0.18 -0.18 0 0 -0.18 -0.1798 0 0 -0.1797 -0.18 0 0 -0.36 -0.1799 0 0 -0.3598 -0.1798 0 0 -0.5397 -0.18 0 0 -0.3598 -0.18 0 0 -0.5398 -0.1798 0 0 -0.3599 -0.18 0 0 -0.5398 -0.1799 0 0 -0.3597 -0.1798 0 0 -0.3598 -0.18 0 0 -0.5398 -0.18 0 0 -0.3599 -0.1798 0 0 -0.5398 -0.18 0 0 -0.3598 -0.18 0 0 -0.1799 -1.6192 0 0 0.1799z"/>
   <polygon id="_390381864" class="fil0" points="121.374,32.9961 121.554,32.9961 121.554,33.1761 121.734,33.1761 121.734,33.7159 121.914,33.7159 121.914,40.5527 121.734,40.5527 121.734,41.2724 121.554,41.2724 121.554,41.4522 121.374,41.4522 121.374,41.6322 123.893,41.6322 123.893,41.4522 123.713,41.4522 123.713,41.2724 123.533,41.2724 123.533,40.9124 123.353,40.9124 123.353,33.5359 123.533,33.5359 123.533,32.9961 123.893,32.9961 123.893,32.8161 121.374,32.8161 "/>
   <polygon id="_390382272" class="fil0" points="118.675,45.0507 119.215,45.0507 119.215,44.8707 119.755,44.8707 119.755,44.6907 120.295,44.6907 120.295,44.5109 121.014,44.5109 121.014,44.3309 121.554,44.3309 121.554,44.1509 122.094,44.1509 122.094,43.9712 122.634,43.9712 122.634,43.7912 122.814,43.7912 122.814,43.6112 122.634,43.6112 122.634,43.4314 122.454,43.4314 122.454,43.2514 122.274,43.2514 122.274,42.8917 122.094,42.8917 122.094,42.7117 121.554,42.7117 121.554,42.8917 121.374,42.8917 121.374,43.0714 121.194,43.0714 121.194,43.2514 120.834,43.2514 120.834,43.4314 120.655,43.4314 120.655,43.6112 120.475,43.6112 120.475,43.7912 120.115,43.7912 120.115,43.9712 119.935,43.9712 119.935,44.1509 119.755,44.1509 119.755,44.3309 119.395,44.3309 119.395,44.5109 119.215,44.5109 119.215,44.6907 118.855,44.6907 118.855,44.8707 118.675,44.8707 "/>
   <polygon id="_390395064" class="fil0" points="125.332,30.2974 124.973,30.2974 124.973,30.4774 124.793,30.4774 124.793,30.6571 124.613,30.6571 124.613,30.8371 124.433,30.8371 124.433,31.0171 124.253,31.0171 124.253,31.1969 123.893,31.1969 123.893,31.3769 123.713,31.3769 123.713,31.5569 123.533,31.5569 123.533,31.7366 123.353,31.7366 123.353,31.9166 123.173,31.9166 123.173,32.0966 122.814,32.0966 122.814,32.2764 122.634,32.2764 122.634,32.6364 122.814,32.6364 122.814,32.4564 123.173,32.4564 123.173,32.2764 123.713,32.2764 123.713,32.0966 124.073,32.0966 124.073,31.9166 124.613,31.9166 124.613,31.7366 125.152,31.7366 125.152,31.5569 125.692,31.5569 125.692,31.3769 126.232,31.3769 126.232,31.0171 126.052,31.0171 126.052,30.6571 125.872,30.6571 125.872,30.4774 125.692,30.4774 125.692,30.1174 125.332,30.1174 "/>
   <polygon id="_390395520" class="fil1" points="118.675,45.0507 118.496,45.0507 118.496,45.2304 118.675,45.2304 "/>
  </g>
 </g>
</svg>
